<?xml version="1.0" encoding="utf-8"?>
<!-- Generator: Adobe Illustrator 19.0.0, SVG Export Plug-In . SVG Version: 6.00 Build 0)  -->
<svg version="1.1" id="Layer_1" xmlns="http://www.w3.org/2000/svg" xmlns:xlink="http://www.w3.org/1999/xlink" x="0px" y="0px"
	 width="100px" height="100px" viewBox="34 -30 100 100" style="enable-background:new 34 -30 100 100;" xml:space="preserve">
<style type="text/css">
	.st0{fill:#FFFFFF;}
</style>
<g>
	<path class="st0" d="M112.7,13.1c0.6,0.6,1.5,0.6,2.1,0l6.1-6.1c0.6-0.6,0.6-1.5,0-2.1l-2.6-2.6l3.2-3c1-1,1.7-2.4,2.1-4.1
		c0.9-4-0.4-8.2-3.4-11.2s-7.2-4.2-11.2-3.4c-1.7,0.4-3.1,1.1-4.1,2.1l-3,3.1l-2.6-2.6c-0.6-0.6-1.5-0.6-2.1,0l-6.1,6.1
		c-0.6,0.6-0.6,1.5,0,2.1l2.8,2.8L58.8,30.7c0,0,0,0,0,0l-3.6-3.6c-0.6-0.6-1.5-0.6-2.1,0L47,33.1c-0.6,0.6-0.6,1.5,0,2.1l3.6,3.6
		c0.1,0.1,0.2,0.1,0.3,0.2l-5.3,5.6c-1.7,1.7-1.7,4.6,0,6.3l7.5,7.5c1.7,1.7,4.6,1.7,6.3,0l5.6-5.3c0.1,0.1,0.1,0.2,0.2,0.3l3.6,3.6
		c0.6,0.6,1.5,0.6,2.1,0l6.1-6.1c0.6-0.6,0.6-1.5,0-2.1l-3.6-3.6c0,0,0,0,0,0l36.6-34.9L112.7,13.1z M116.1,4.5l1.5,1.5l-3.9,3.9
		l-1.5-1.5L116.1,4.5z M95.6-8.2l-1.5-1.5l3.9-3.9l1.5,1.5L95.6-8.2z M51.7,35.7l-1.5-1.5l3.9-3.9l1.5,1.5L51.7,35.7z M72.2,48.4
		l1.5,1.5l-3.9,3.9l-1.5-1.5L72.2,48.4z M57.2,56.3c-0.6,0.6-1.5,0.6-2,0l-7.5-7.5c-0.6-0.6-0.6-1.5,0-2.1l59.1-62
		c0.6-0.6,1.5-1,2.6-1.3c3-0.7,6.2,0.3,8.4,2.5s3.2,5.4,2.5,8.4c-0.3,1.2-0.7,2.1-1.2,2.6L57.2,56.3z"/>
	<circle class="st0" cx="105.9" cy="-4.5" r="1"/>
	<circle class="st0" cx="108.5" cy="-1.9" r="1"/>
	<circle class="st0" cx="103.2" cy="-1.9" r="1"/>
	<circle class="st0" cx="105.9" cy="0.8" r="1"/>
	<circle class="st0" cx="62" cy="39.4" r="1"/>
	<circle class="st0" cx="64.6" cy="42" r="1"/>
	<circle class="st0" cx="59.3" cy="42.1" r="1"/>
	<circle class="st0" cx="61.9" cy="44.7" r="1"/>
</g>
</svg>
