<?xml version="1.0" encoding="utf-8"?>
<!-- Generator: Adobe Illustrator 19.0.0, SVG Export Plug-In . SVG Version: 6.00 Build 0)  -->
<svg version="1.1" id="Layer_1" xmlns="http://www.w3.org/2000/svg" xmlns:xlink="http://www.w3.org/1999/xlink" x="0px" y="0px"
	 width="315px" height="90px" viewBox="0 0 315 90" style="enable-background:new 0 0 315 90;" xml:space="preserve">
<style type="text/css">
	.st0{fill:#FFFFFF;}
</style>
<g id="XMLID_14_">
	<path id="XMLID_16_" class="st0" d="M28.3,4.5L31.7,7c0.5,0.3,0.7,0.8,0.7,1.3V22c0,0.3-0.1,0.5-0.2,0.8l-0.9,2
		c-0.1,0.2-0.3,0.4-0.5,0.6l-9.4,7.2C21,32.9,20.6,33,20.2,33h-3.2c-0.4,0-0.8-0.1-1.1-0.4l-2.3-1.8v36.2c-0.1,0.5-0.3,0.8-0.6,1.1
		c-0.3,0.3-0.8,0.5-1.2,0.5H6.7c-0.4,0-0.8-0.2-1.1-0.5c-0.3-0.3-0.5-0.7-0.5-1.1V8.3c0-0.5,0.2-1,0.7-1.3l3.4-2.5
		c0.3-0.2,0.7-0.3,0.9-0.3c0.3,0,0.4,0,0.6,0.1l7.9,2.6l7.9-2.6c0.1,0,0.3-0.1,0.6-0.1c0.3,0,0.7,0.1,1,0.3H28.3z M13.6,14.3V20
		l5,3.9l5-3.9v-5.6L20,15.5c-0.3,0.1-0.4,0.1-0.6,0.1h-1.6c-0.1,0-0.3,0-0.6-0.1L15.4,15c-0.6-0.2-1-0.4-1.3-0.4
		C13.9,14.4,13.7,14.4,13.6,14.3z"/>
	<path id="XMLID_19_" class="st0" d="M74.8,21.6l3.4,2.5c0.5,0.3,0.7,0.8,0.7,1.3V84c0,0.4-0.2,0.8-0.5,1.1
		c-0.3,0.3-0.7,0.5-1.1,0.5h-5.1c-0.5,0-0.9-0.2-1.2-0.5c-0.3-0.3-0.5-0.7-0.6-1.1V57.8h-10V84c-0.1,0.5-0.3,0.8-0.6,1.1
		c-0.3,0.3-0.8,0.5-1.2,0.5h-5.1c-0.4,0-0.8-0.2-1.1-0.5c-0.3-0.3-0.5-0.7-0.5-1.1V25.4c0-0.5,0.2-1,0.7-1.3l3.4-2.5
		c0.3-0.2,0.6-0.3,0.9-0.3c0.3,0,0.4,0,0.6,0.1l7.9,2.6l7.9-2.6c0.1,0,0.3-0.1,0.6-0.1C74,21.3,74.4,21.4,74.8,21.6L74.8,21.6z
		 M70.2,31.4l-3.6,1.2c-0.3,0.1-0.4,0.1-0.6,0.1h-1.6c-0.1,0-0.3,0-0.6-0.1l-3.6-1.2v18h10v-9V31.4z"/>
	<path id="XMLID_22_" class="st0" d="M124,5c0.5,0,0.9,0.3,1.1,0.7c0.3,0.3,0.3,0.8,0.3,1.3l-9.2,60.2c-0.1,0.5-0.3,0.8-0.6,1.1
		c-0.3,0.3-0.7,0.4-1.1,0.4h-5.1c-0.5,0-0.8-0.1-1.1-0.4c-0.3-0.3-0.5-0.6-0.6-1L98.2,7c-0.1-0.5,0-0.9,0.3-1.3
		c0.3-0.4,0.6-0.7,1.1-0.7l5.1-0.8h0.3c0.4,0,0.8,0.1,1.1,0.4c0.3,0.3,0.5,0.6,0.6,1.1l5,36.1l5.1-36.1c0-0.4,0.2-0.8,0.6-1
		c0.3-0.3,0.7-0.4,1.1-0.4l2.8,0.4c1.4,0.3,2.2,0.4,2.5,0.4L124,5z"/>
	<path id="XMLID_24_" class="st0" d="M151.7,68.6h-5.2c-0.5,0-0.8-0.1-1.1-0.4c-0.3-0.3-0.5-0.7-0.5-1.2V8.4c0-0.5,0.2-1,0.7-1.3
		l3.4-2.5c0.3-0.2,0.6-0.3,0.9-0.4c0.1,0,0.3,0,0.6,0.1l7.9,6.1l7.9-6.1c0.1,0,0.3-0.1,0.6-0.1c0.3,0,0.7,0.1,1,0.3l3.4,2.5
		c0.5,0.3,0.7,0.8,0.7,1.3V67c0,0.5-0.2,0.9-0.5,1.3c-0.3,0.3-0.7,0.5-1.1,0.5h-5.1c-0.5,0-1-0.1-1.2-0.4c-0.3-0.3-0.5-0.7-0.6-1.2
		V14.5l-3.6,4.7c-0.1,0-0.3,0.1-0.6,0.1h-1.6c-0.3,0-0.4,0-0.6-0.1l-3.6-4.7v52.6c-0.1,0.5-0.3,1-0.6,1.3c-0.3,0.3-0.8,0.5-1.3,0.5
		L151.7,68.6z"/>
	<path id="XMLID_26_" class="st0" d="M196.5,68.5l-3.6-2.4c-0.5-0.3-0.8-0.8-0.8-1.4V8.4c0-0.5,0.2-1,0.7-1.3l3.4-2.5
		c0.3-0.2,0.7-0.3,1-0.3c0.3,0,0.4,0,0.6,0.1l7.9,2.6l7.9-2.6c0.1,0,0.3-0.1,0.6-0.1c0.3,0,0.7,0.1,1,0.3c0.3,0.2,0.5,0.5,0.6,0.9
		l1.6,4.9c0.1,0.4,0.1,0.9-0.1,1.3c-0.2,0.5-0.5,0.8-0.9,0.9l-9.3,3.1c-0.3,0.1-0.4,0.1-0.6,0.1h-1.6c-0.1,0-0.3,0-0.6-0.1l-3.7-1.2
		v17.8h9.3c0.4,0.1,0.8,0.3,1.1,0.6c0.3,0.3,0.5,0.8,0.5,1.3v5.2c0,0.4-0.2,0.8-0.5,1.1c-0.3,0.3-0.7,0.5-1.1,0.5h-9.3v17.2l3.3-1.4
		c0.2-0.1,0.4-0.2,0.7-0.2h2.1c0.3,0,0.5,0.1,0.7,0.2l9.3,4.1c0.4,0.2,0.7,0.5,0.9,0.9c0.2,0.5,0.2,0.9,0,1.3l-2.1,4.7
		c-0.2,0.5-0.5,0.8-0.9,0.9c-0.3,0.1-0.5,0.1-0.6,0.1c-0.2,0-0.4,0-0.8-0.1l-7.6-3.3l-7.6,3.3c-0.3,0.1-0.5,0.1-0.7,0.1
		c-0.3,0-0.7-0.1-0.9-0.3V68.5z"/>
	<path id="XMLID_28_" class="st0" d="M263.4,4.2c0.5,0,0.9,0.2,1.2,0.5c0.3,0.3,0.4,0.7,0.4,1.1v61.1c0,0.4-0.2,0.8-0.5,1.1
		c-0.3,0.3-0.8,0.5-1.3,0.5h-5.2c-0.5,0-0.9-0.2-1.3-0.5c-0.3-0.3-0.5-0.7-0.5-1.1v-49l-10.1-3.5v52.5c-0.1,0.5-0.3,0.8-0.6,1.1
		c-0.3,0.3-0.8,0.5-1.2,0.5h-5.1c-0.4,0-0.8-0.2-1.1-0.5c-0.3-0.3-0.5-0.7-0.5-1.1V8.3c0-0.5,0.3-1,0.8-1.3l3.4-2.5
		c0.3-0.2,0.7-0.3,1-0.3c0.1,0,0.3,0,0.6,0.1l12.9,4.5v-3c0-0.5,0.1-0.8,0.4-1.1c0.3-0.3,0.7-0.5,1.2-0.5h2.6L263.4,4.2z"/>
	<path id="XMLID_30_" class="st0" d="M295.5,68.7c-0.5,0-0.9-0.2-1.3-0.5c-0.3-0.3-0.5-0.7-0.5-1.1V14.7l-6.4-2.1
		c-0.5-0.2-0.8-0.5-0.9-0.8c-0.2-0.4-0.3-0.8-0.1-1.3l1.6-4.9c0.1-0.4,0.3-0.7,0.6-0.9c0.3-0.2,0.7-0.3,1-0.3c0.3,0,0.4,0,0.6,0.1
		L298,7l7.9-2.6c0.1,0,0.3-0.1,0.6-0.1c0.3,0,0.7,0.1,1,0.3c0.3,0.2,0.5,0.5,0.6,0.9l1.6,4.8c0.1,0.5,0.1,0.9-0.1,1.3
		s-0.5,0.7-0.9,0.9l-6.4,2.1v52.4c0,0.4-0.2,0.8-0.5,1.1s-0.8,0.5-1.3,0.5H298L295.5,68.7z"/>
</g>
<g id="XMLID_13_">
	<path id="XMLID_39_" class="st0" d="M77.2,10.2l-1.6-4.9c-0.1-0.4-0.3-0.7-0.6-0.9c-0.2-0.1-0.4-0.2-0.5-0.2c0,0,0,0,0,0
		c-0.2,0-0.3-0.1-0.5-0.1c0,0,0,0,0,0c0,0,0,0,0,0c-0.3,0-0.4,0-0.6,0.1l-8,2.8l-7.9-2.8c-0.1,0-0.3-0.1-0.6-0.1
		c-0.3,0-0.6,0.1-0.9,0.3c-0.3,0.2-0.5,0.4-0.6,0.8l-1.6,5c-0.1,0.4-0.1,0.9,0.1,1.3c0.2,0.3,0.5,0.6,0.9,0.8l9.3,3.2
		c0.3,0.1,0.4,0.1,0.6,0.1h1.6c0.1,0,0.3,0,0.6-0.1l3.1-1l6.2-2.1c0.4-0.2,0.7-0.5,0.9-0.9C77.3,11.1,77.3,10.6,77.2,10.2z"/>
</g>
<g id="XMLID_11_">
	<g id="XMLID_12_">
		<path id="XMLID_37_" class="st0" d="M308.6,85.6H99.5c-0.8,0-1.4-0.6-1.4-1.4v-5.7c0-0.8,0.6-1.4,1.4-1.4h209.1
			c0.8,0,1.4,0.6,1.4,1.4v5.7C310,85,309.4,85.6,308.6,85.6z"/>
	</g>
</g>
<g id="XMLID_6_">
	<g id="XMLID_10_">
		<path id="XMLID_34_" class="st0" d="M30.8,85.6H6.5c-0.8,0-1.4-0.6-1.4-1.4v-5.7c0-0.8,0.6-1.4,1.4-1.4h24.3
			c0.8,0,1.4,0.6,1.4,1.4v5.7C32.2,85,31.6,85.6,30.8,85.6z"/>
	</g>
</g>
</svg>
