<?xml version="1.0" encoding="utf-8"?>
<!-- Generator: Adobe Illustrator 19.0.0, SVG Export Plug-In . SVG Version: 6.00 Build 0)  -->
<svg version="1.1" id="Layer_1" xmlns="http://www.w3.org/2000/svg" xmlns:xlink="http://www.w3.org/1999/xlink" x="0px" y="0px"
	 width="32px" height="32px" viewBox="0 0 32 32" style="enable-background:new 0 0 32 32;" xml:space="preserve">
<style type="text/css">
	.st0{fill:#FFFFFF;}
	.st1{fill:#EC1944;}
</style>
<g id="XMLID_41_">
	<path id="XMLID_38_" class="st0" d="M16,28.1c-8.6,0-8.6-6.9-8.6-6.9l6.3-17.5l4.6,0l6.3,17.5C24.6,21.1,24.6,28.1,16,28.1z"/>
	<path id="XMLID_36_" class="st1" d="M16,20.1c3.8,0,6.9-1.3,7.1-3c-0.6-1.6-1.2-3.3-1.8-5c-0.4,1.2-2.7,2.1-5.3,2.1
		s-4.9-0.9-5.3-2.1c-0.6,1.7-1.2,3.4-1.8,5C9.1,18.8,12.2,20.1,16,20.1z M16,9.5c1.8,0,3.4-0.5,3.9-1.4c-0.7-1.9-1.2-3.5-1.6-4.5
		c-0.2-0.7-1.3-1-2.3-1s-2.1,0.3-2.3,1c-0.4,1-0.9,2.6-1.6,4.5C12.6,8.9,14.2,9.5,16,9.5z M29.9,21.6l-5.9-2.4l0.7,1.9
		c0,2-4,3.6-8.6,3.6c-4.7,0-8.6-1.6-8.6-3.6l0.7-1.9l-5.9,2.4c-1.7,0.7-1.7,1.9-0.2,2.8l11.2,6c1.6,0.8,4.2,0.8,5.7,0l11.2-6
		C31.6,23.5,31.5,22.3,29.9,21.6z"/>
</g>
</svg>
