<?xml version="1.0" encoding="utf-8"?>
<!-- Generator: Adobe Illustrator 19.0.0, SVG Export Plug-In . SVG Version: 6.00 Build 0)  -->
<svg version="1.1" id="Layer_1" xmlns="http://www.w3.org/2000/svg" xmlns:xlink="http://www.w3.org/1999/xlink" x="0px" y="0px"
	 width="100px" height="100px" viewBox="34 -30 100 100" style="enable-background:new 34 -30 100 100;" xml:space="preserve">
<style type="text/css">
	.st0{fill:#FFFFFF;}
</style>
<g>
	<path class="st0" d="M108.3,17.4c0.6,0.6,1.5,0.6,2.1,0l6.1-6.1c0.6-0.6,0.6-1.5,0-2.1l-3.1-3.1c4.2-6.4,5.1-12.7,2-16.4
		c-0.3-0.5-0.8-0.9-1.1-1.1c-3.8-3.1-10.1-2.2-16.5,2l-3.1-3.1c-0.6-0.6-1.5-0.6-2.1,0l-6.1,6.1c-0.6,0.6-0.6,1.5,0,2.1l2.7,2.7
		l-24.7,27c-0.1-0.1-0.1-0.2-0.2-0.2l-3.6-3.6c-0.6-0.6-1.5-0.6-2.1,0l-6.1,6.1c-0.6,0.6-0.6,1.5,0,2.1l3.6,3.6
		c0.2,0.2,0.5,0.3,0.7,0.4l-3.7,4.1c-3.3,3.6-3.2,9.2,0.3,12.7c3.5,3.5,9.1,3.6,12.7,0.3l4.1-3.7c0.1,0.3,0.2,0.5,0.4,0.7l3.6,3.6
		c0.6,0.6,1.5,0.6,2.1,0l6.1-6.1c0.6-0.6,0.6-1.5,0-2.1l-3.6-3.6c-0.1-0.1-0.1-0.1-0.2-0.2l27-24.7L108.3,17.4z M57.2,30.1l-1.5-1.5
		l3.9-3.9l1.5,1.5L57.2,30.1z M77.8,42.8l1.5,1.5l-3.9,3.9l-1.5-1.5L77.8,42.8z M111.8,8.8l1.5,1.5l-3.9,3.9l-1.5-1.5L111.8,8.8z
		 M91.3-3.9l-1.5-1.5l3.9-3.9l1.5,1.5L91.3-3.9z M64.2,48.6c-2.5,2.3-6.2,2.2-8.6-0.2s-2.4-6.1-0.2-8.6L94-2.4
		c0.1-0.1,0.2-0.2,0.4-0.4c6.7-6.5,14.4-9.2,18.1-6.2c0.1,0.1,0.2,0.1,0.3,0.2c0.1,0.1,0.2,0.2,0.3,0.3c2.9,3.6,0.2,11.3-6.3,18
		c-0.1,0.1-0.2,0.2-0.3,0.3l0,0L64.2,48.6z"/>
	<circle class="st0" cx="101.5" cy="-0.2" r="1"/>
	<circle class="st0" cx="104.2" cy="2.4" r="1"/>
	<circle class="st0" cx="98.9" cy="2.5" r="1"/>
	<circle class="st0" cx="101.5" cy="5.1" r="1"/>
	<circle class="st0" cx="67.5" cy="33.8" r="1"/>
	<circle class="st0" cx="70.2" cy="36.5" r="1"/>
	<circle class="st0" cx="64.9" cy="36.5" r="1"/>
	<circle class="st0" cx="67.5" cy="39.1" r="1"/>
</g>
</svg>
