<?xml version="1.0" encoding="utf-8"?>
<!-- Generator: Adobe Illustrator 19.0.0, SVG Export Plug-In . SVG Version: 6.00 Build 0)  -->
<svg version="1.1" id="Layer_1" xmlns="http://www.w3.org/2000/svg" xmlns:xlink="http://www.w3.org/1999/xlink" x="0px" y="0px"
	 width="100px" height="100px" viewBox="34 -30 100 100" style="enable-background:new 34 -30 100 100;" xml:space="preserve">
<style type="text/css">
	.st0{fill:#FFFFFF;}
</style>
<g>
	<path class="st0" d="M106,18c0.6,0.6,1.5,0.6,2.1,0l6.1-6.1c0.6-0.6,0.6-1.5,0-2.1l-2.6-2.6l2.4-2.3c4.8-4.8,5.1-12.9,0.7-17.3
		c-4.4-4.4-12.5-4.1-17.3,0.7l-2.3,2.4l-2.6-2.6c-0.6-0.6-1.5-0.6-2.1,0l-6.1,6.1c-0.6,0.6-0.6,1.5,0,2.1l2.7,2.7L65.2,21.8L62,18.6
		c-0.6-0.6-1.5-0.6-2.1,0l-6.1,6.1c-0.6,0.6-0.6,1.5,0,2.1l2.8,2.8l-8.3,6.5c0,0-0.1,0.1-0.1,0.1c-1.7,1.7-1.7,4.6,0,6.3l11.7,11.7
		c1.7,1.7,4.6,1.7,6.3,0c0,0,0.1-0.1,0.1-0.1l6.4-8.4l2.8,2.8c0.6,0.6,1.5,0.6,2.1,0l6.1-6.1c0.6-0.6,0.6-1.5,0-2.1l-3.1-3.1
		l22.7-21.9L106,18z M109.5,9.4l1.5,1.5l-3.9,3.9l-1.5-1.5L109.5,9.4z M89-3.2l-1.5-1.5l3.9-3.9l1.5,1.5L89-3.2z M58.5,27.2L57,25.7
		l3.9-3.9l1.5,1.5L58.5,27.2z M62,52.1L50.3,40.3c-0.5-0.5-0.6-1.4-0.1-2l11.1-8.6c1.7-1.5,3.4-3.1,4.9-4.8L99.6-9.6
		c3.6-3.6,9.8-3.9,13.1-0.7c3.2,3.2,2.9,9.5-0.7,13l-35,33.8c-1.7,1.6-3.4,3.3-4.9,5.1l-8,10.4C63.4,52.6,62.6,52.6,62,52.1z
		 M79.1,39.9l1.5,1.5l-3.9,3.9l-1.5-1.5L79.1,39.9z"/>
	<circle class="st0" cx="99.3" cy="0.5" r="1"/>
	<circle class="st0" cx="101.9" cy="3.1" r="1"/>
	<circle class="st0" cx="96.6" cy="3.1" r="1"/>
	<circle class="st0" cx="99.2" cy="5.7" r="1"/>
	<circle class="st0" cx="68.8" cy="30.9" r="1"/>
	<circle class="st0" cx="71.4" cy="33.6" r="1"/>
	<circle class="st0" cx="66.2" cy="33.6" r="1"/>
	<circle class="st0" cx="68.8" cy="36.2" r="1"/>
</g>
</svg>
