<svg xmlns="http://www.w3.org/2000/svg" xmlns:xlink="http://www.w3.org/1999/xlink" viewBox="0 0 100 125" version="1.1" xml:space="preserve" style="" x="0px" y="0px" fill-rule="evenodd" clip-rule="evenodd" stroke-linejoin="round" stroke-miterlimit="1.41421"><g transform="matrix(1,0,0,1,0,-6.54526)"><g><path d="M50.369,54.858C50.346,54.837 50.322,54.816 50.3,54.794C50.165,54.661 50.056,54.502 49.98,54.328C49.891,54.126 49.855,53.915 49.854,53.696C49.914,52.424 50.041,51.157 50.135,49.888C50.155,49.701 50.197,49.521 50.279,49.35C50.526,48.836 51.059,48.501 51.629,48.5C51.846,48.5 52.052,48.55 52.251,48.634L53.933,49.397L54.671,46.905L54.697,46.827C54.766,46.648 54.857,46.483 54.985,46.338C55.275,46.01 55.705,45.822 56.143,45.831C56.308,45.835 56.466,45.869 56.622,45.921L58.71,46.68L58.583,42.789L58.583,42.709C58.591,42.548 58.615,42.391 58.669,42.238C58.814,41.832 59.133,41.502 59.534,41.344C59.686,41.285 59.841,41.256 60.003,41.243C60.869,41.22 61.736,41.219 62.602,41.243C62.82,41.261 63.029,41.312 63.223,41.415C63.391,41.504 63.541,41.625 63.664,41.769C63.734,41.852 63.795,41.941 63.845,42.036L83.569,58.932L88.537,53.964C89.123,53.378 90.072,53.378 90.658,53.964L96.712,60.018C97.298,60.604 97.298,61.553 96.712,62.139L91.679,67.172C96.552,73.929 97.771,80.772 94.457,84.813C94.232,85.137 93.827,85.56 93.347,85.905C89.372,89.167 82.552,87.947 75.785,83.066L70.749,88.102C70.164,88.688 69.214,88.688 68.628,88.102L62.574,82.048C61.988,81.462 61.988,80.513 62.574,79.927L67.543,74.958L50.346,54.881L50.369,54.858ZM40.673,48.5L40.756,48.502C40.924,48.516 41.086,48.548 41.242,48.612C41.684,48.794 42.02,49.185 42.131,49.65C42.171,49.814 42.177,49.979 42.166,50.147L42.1,50.815L47.002,49.79L47.085,49.775C47.282,49.75 47.476,49.754 47.67,49.802C47.806,49.836 47.938,49.889 48.059,49.959C48.427,50.172 48.692,50.538 48.778,50.954C48.818,51.149 48.814,51.344 48.782,51.54C48.502,52.807 48.154,54.058 47.839,55.317C47.819,55.389 47.815,55.407 47.789,55.477C47.73,55.635 47.644,55.783 47.537,55.912C47.42,56.052 47.277,56.171 47.118,56.26L29.952,70.965L30.802,71.815L31.437,71.18C32.022,70.594 32.972,70.594 33.558,71.18L39.3,76.922C39.886,77.507 39.886,78.457 39.3,79.043L33.246,85.097C32.661,85.683 31.711,85.683 31.125,85.097L25.383,79.355C24.797,78.77 24.797,77.82 25.383,77.234L26.018,76.599L24.799,75.38L12.22,86.155C10.483,87.844 7.695,87.829 5.977,86.111L4.149,84.283C2.43,82.564 2.416,79.776 4.105,78.039L14.881,65.461L13.661,64.241L13.026,64.876C12.441,65.462 11.491,65.462 10.905,64.876L5.164,59.135C4.578,58.549 4.578,57.6 5.164,57.014L11.218,50.96C11.803,50.374 12.753,50.374 13.339,50.96L19.08,56.701C19.666,57.287 19.666,58.236 19.08,58.822L18.445,59.457L19.295,60.307L33.906,43.25C33.978,43.107 34.072,42.977 34.185,42.864C34.304,42.745 34.444,42.647 34.596,42.574C34.663,42.541 34.681,42.536 34.751,42.51C36.146,42.067 37.564,41.702 38.97,41.299C39.08,41.27 39.187,41.252 39.3,41.243C39.384,41.241 39.384,41.241 39.467,41.243C39.636,41.257 39.798,41.289 39.955,41.354C40.425,41.548 40.772,41.979 40.861,42.48C40.895,42.675 40.885,42.868 40.849,43.062L39.655,48.5L40.673,48.5ZM73.309,81.299L69.689,84.919L65.757,80.987L69.377,77.367L73.309,81.299ZM61.81,44.241L61.632,44.241L61.781,48.798L61.781,48.879C61.772,49.07 61.738,49.255 61.663,49.432C61.448,49.939 60.958,50.294 60.41,50.341C60.19,50.36 59.978,50.326 59.77,50.256L57.095,49.285L56.32,51.9L56.295,51.976C56.237,52.127 56.165,52.268 56.065,52.395C55.767,52.779 55.289,52.997 54.804,52.972C54.615,52.962 54.437,52.913 54.263,52.84L52.967,52.253L52.894,53.243L73.179,76.923C73.28,77.023 73.387,77.125 73.501,77.228C80.221,83.76 87.952,86.452 91.522,83.525C91.86,83.275 91.946,83.171 92.079,82.986C95.065,79.34 92.373,71.609 85.877,64.926C85.744,64.78 85.638,64.668 85.537,64.565L61.81,44.241ZM36.162,45.224L6.348,80.03C6.324,80.059 6.297,80.088 6.27,80.115C5.706,80.679 5.706,81.597 6.27,82.161L8.098,83.989C8.662,84.553 9.58,84.552 10.144,83.988C10.171,83.962 10.2,83.935 10.229,83.91L45.057,54.074L45.272,53.216L40.714,54.169L40.631,54.185C40.431,54.209 40.234,54.205 40.039,54.155C39.537,54.028 39.127,53.639 38.974,53.144C38.915,52.951 38.901,52.755 38.915,52.555L39.018,51.5L37.791,51.5L37.707,51.498C37.51,51.481 37.322,51.439 37.143,51.353C36.684,51.133 36.362,50.683 36.301,50.178C36.281,50.01 36.294,49.845 36.326,49.679L37.379,44.875L36.162,45.224ZM32.498,74.362L36.118,77.982L32.185,81.915L28.565,78.295L29.2,77.66L31.863,74.997L32.498,74.362ZM80.618,73.673C80.618,74.198 80.191,74.625 79.666,74.625C79.141,74.625 78.714,74.198 78.714,73.673C78.714,73.147 79.141,72.721 79.666,72.721C80.191,72.721 80.618,73.147 80.618,73.673ZM28.14,74.478L27.189,73.527L27.773,73.028L28.681,73.936L28.14,74.478ZM83.236,71.054C83.236,71.579 82.809,72.006 82.284,72.006C81.759,72.006 81.332,71.579 81.332,71.054C81.332,70.528 81.759,70.102 82.284,70.102C82.809,70.102 83.236,70.528 83.236,71.054ZM77.955,71.01C77.955,71.535 77.528,71.962 77.003,71.962C76.478,71.962 76.051,71.535 76.051,71.01C76.051,70.484 76.478,70.058 77.003,70.058C77.528,70.058 77.955,70.484 77.955,71.01ZM22.216,69.717C22.738,69.72 23.162,70.145 23.162,70.669C23.162,71.192 22.738,71.617 22.216,71.621L22.21,71.621C21.684,71.621 21.258,71.194 21.258,70.669C21.258,70.143 21.684,69.717 22.21,69.717L22.216,69.717ZM80.573,68.391C80.573,68.916 80.146,69.343 79.621,69.343C79.096,69.343 78.669,68.916 78.669,68.391C78.669,67.865 79.096,67.439 79.621,67.439C80.146,67.439 80.573,67.865 80.573,68.391ZM19.597,67.098C20.119,67.101 20.543,67.526 20.543,68.05C20.543,68.573 20.119,68.998 19.597,69.002L19.591,69.002C19.065,69.002 18.639,68.575 18.639,68.05C18.639,67.524 19.065,67.098 19.591,67.098L19.597,67.098ZM24.879,67.054C25.401,67.057 25.825,67.482 25.825,68.006C25.825,68.529 25.401,68.954 24.879,68.958L24.873,68.958C24.347,68.958 23.921,68.531 23.921,68.006C23.921,67.48 24.347,67.054 24.873,67.054L24.879,67.054ZM22.26,64.435C22.782,64.438 23.206,64.863 23.206,65.387C23.206,65.91 22.782,66.335 22.26,66.339L22.254,66.339C21.728,66.339 21.302,65.912 21.302,65.387C21.302,64.861 21.728,64.435 22.254,64.435L22.26,64.435ZM85.978,60.766L89.598,57.146L93.53,61.078L89.91,64.698L85.978,60.766ZM15.782,62.119L16.323,61.578L17.222,62.477L16.723,63.061L15.782,62.119ZM11.965,61.694L8.345,58.074L12.278,54.141L15.898,57.761L15.263,58.396L12.6,61.059L11.965,61.694ZM42.451,32.526C42.592,32.538 42.728,32.561 42.862,32.609C43.208,32.731 43.501,32.98 43.677,33.302C43.746,33.426 43.791,33.557 43.826,33.694C44.624,37.775 45.194,41.896 45.878,45.998C45.889,46.082 45.898,46.164 45.898,46.249C45.897,46.474 45.845,46.698 45.747,46.9C45.674,47.051 45.575,47.19 45.455,47.309C45.356,47.407 45.242,47.492 45.119,47.56C44.671,47.805 44.115,47.804 43.668,47.555C43.496,47.459 43.344,47.33 43.222,47.176C43.118,47.044 43.036,46.894 42.981,46.735C42.956,46.665 42.953,46.646 42.934,46.573C42.137,42.493 41.566,38.371 40.883,34.269C40.855,34.073 40.856,33.879 40.901,33.684C41.01,33.215 41.347,32.818 41.793,32.635C41.95,32.57 42.114,32.539 42.283,32.525C42.367,32.523 42.367,32.523 42.451,32.526ZM50.111,24.552C50.286,24.572 50.454,24.608 50.616,24.68C51.033,24.868 51.348,25.247 51.457,25.691C51.491,25.829 51.499,25.966 51.499,26.107L50.77,44.734C50.763,44.827 50.764,44.85 50.747,44.942C50.716,45.114 50.655,45.28 50.567,45.431C50.462,45.612 50.318,45.77 50.148,45.892C50.006,45.995 49.847,46.071 49.679,46.119C49.203,46.253 48.68,46.14 48.302,45.82C48.196,45.73 48.102,45.625 48.024,45.509C47.888,45.305 47.803,45.069 47.779,44.826C47.769,44.733 47.772,44.71 47.772,44.617L48.501,25.99C48.512,25.849 48.531,25.713 48.575,25.579C48.707,25.178 49.009,24.845 49.396,24.675C49.558,24.604 49.726,24.569 49.902,24.551C50.006,24.548 50.006,24.548 50.111,24.552ZM57.398,32.525C57.595,32.541 57.785,32.586 57.964,32.672C58.422,32.893 58.742,33.343 58.802,33.847C58.825,34.044 58.806,34.239 58.756,34.43C58.009,36.872 57.157,39.28 56.357,41.705C56.283,41.912 56.176,42.102 56.025,42.263C55.89,42.406 55.727,42.522 55.548,42.602C55.389,42.674 55.217,42.718 55.043,42.73C54.891,42.742 54.737,42.73 54.588,42.695C54.16,42.594 53.791,42.302 53.593,41.909C53.534,41.793 53.49,41.668 53.464,41.54C53.414,41.301 53.428,41.062 53.489,40.827C54.236,38.386 55.088,35.977 55.888,33.553C55.932,33.429 55.986,33.311 56.058,33.2C56.238,32.926 56.508,32.715 56.818,32.607C56.964,32.556 57.113,32.532 57.267,32.524C57.332,32.523 57.332,32.523 57.398,32.525Z" style="" fill="black"/></g></g><text x="0" y="115" fill="#000000" font-size="5px" font-weight="bold" font-family="'Helvetica Neue', Helvetica, Arial-Unicode, Arial, Sans-serif">Created by Cezary Lopacinski</text><text x="0" y="120" fill="#000000" font-size="5px" font-weight="bold" font-family="'Helvetica Neue', Helvetica, Arial-Unicode, Arial, Sans-serif">from the Noun Project</text></svg>