<svg xmlns="http://www.w3.org/2000/svg" xmlns:xlink="http://www.w3.org/1999/xlink" version="1.1" x="0px" y="0px" viewBox="0 0 100 125" enable-background="new 0 0 100 100" xml:space="preserve"><g><path d="M44.381,46.12l8.568-6.965c0.427-0.347,0.63-0.9,0.528-1.441c-0.103-0.541-0.492-0.982-1.016-1.151   c-0.892-0.286-11.081-1.247-17.458-1.828l-17.54-17.148c-1.51-1.476-3.504-2.289-5.616-2.289c-2.181,0-4.221,0.859-5.745,2.417   c-1.5,1.535-2.313,3.562-2.289,5.707c0.024,2.146,0.883,4.154,2.417,5.654l17.379,16.99c0.001,0.001,0.001,0.001,0.001,0.002   s0.001,0.001,0.002,0.001l0.157,0.154c0.725,6.362,1.916,16.528,2.222,17.414c0.18,0.521,0.63,0.9,1.173,0.99   c0.082,0.013,0.163,0.02,0.244,0.02c0.459,0,0.898-0.211,1.185-0.58l6.77-8.725L44.381,46.12z M33.819,37.773l7.427,7.262   l-7.037,7.198l-7.427-7.261L33.819,37.773z M48.341,39.035l-4.881,3.968l-5.052-4.94C41.916,38.391,45.721,38.759,48.341,39.035z    M15.366,19.732l16.307,15.943l-2.47,2.527L17.972,27.221c0.21-0.503,0.321-1.045,0.315-1.606c-0.012-1.084-0.445-2.098-1.22-2.856   c-0.763-0.746-1.771-1.156-2.837-1.156c-0.577,0-1.132,0.126-1.644,0.353l-3.109-3.039c0.723-0.389,1.525-0.618,2.371-0.618   C13.171,18.298,14.42,18.808,15.366,19.732z M14.985,26.399C14.985,26.4,14.985,26.4,14.985,26.399   c-0.201,0.206-0.469,0.318-0.756,0.318c-0.278,0-0.541-0.107-0.739-0.301c-0.417-0.408-0.425-1.078-0.018-1.495   c0,0,0.001,0,0.001-0.001c0,0,0,0,0-0.001c0.201-0.205,0.469-0.318,0.756-0.318c0.278,0,0.541,0.107,0.739,0.302   c0.202,0.197,0.315,0.461,0.318,0.744C15.29,25.93,15.183,26.197,14.985,26.399C14.986,26.399,14.986,26.399,14.985,26.399z    M6.814,23.389c-0.009-0.825,0.201-1.612,0.565-2.327l3.111,3.041c-0.617,1.488-0.318,3.266,0.902,4.459   c0.763,0.745,1.77,1.156,2.836,1.156c0,0,0,0,0,0c0.577,0,1.132-0.126,1.643-0.352l11.233,10.982l-2.47,2.526L8.329,26.931   C7.367,25.991,6.83,24.733,6.814,23.389z M28.375,59.457c-0.339-2.626-0.792-6.414-1.2-9.906l5.053,4.94L28.375,59.457z"/><path d="M50.035,82.785c-3.185,0.157-5.921-2.304-6.083-5.496c-0.052-1.018,0.171-2.038,0.645-2.951   c0.187-0.359,0.22-0.779,0.092-1.164s-0.406-0.701-0.771-0.877c-2.537-1.226-4.202-3.732-4.344-6.542   c-0.127-2.511,0.989-4.932,2.987-6.477c0.394-0.305,0.611-0.784,0.58-1.281c-0.032-0.497-0.308-0.946-0.737-1.198   c-0.668-0.394-1.091-1.087-1.13-1.855c-0.042-0.828-0.756-1.455-1.574-1.422c-0.828,0.042-1.464,0.747-1.422,1.574   c0.057,1.116,0.461,2.163,1.135,3.012c-1.941,2.098-2.981,4.905-2.834,7.8c0.173,3.427,1.975,6.528,4.796,8.388   c-0.329,1.013-0.472,2.08-0.418,3.146c0.238,4.693,4.132,8.352,8.781,8.352c0.149,0,0.3-0.004,0.451-0.012   c0.828-0.042,1.463-0.747,1.422-1.574C51.566,83.379,50.86,82.752,50.035,82.785z"/><path d="M56.583,73.851c-0.972,0.108-1.914-0.167-2.671-0.772c-0.759-0.605-1.235-1.47-1.342-2.436   c-0.028-0.25-0.03-0.502-0.007-0.748c0.048-0.501-0.158-0.992-0.548-1.309c-0.888-0.72-1.445-1.739-1.572-2.871   c-0.053-0.474-0.023-0.959,0.087-1.441c0.186-0.808-0.319-1.612-1.126-1.798c-0.806-0.189-1.612,0.318-1.797,1.126   c-0.187,0.813-0.235,1.636-0.145,2.445c0.185,1.662,0.918,3.181,2.087,4.35c0.004,0.193,0.018,0.387,0.039,0.579   c0.196,1.761,1.066,3.34,2.45,4.446c1.188,0.949,2.631,1.452,4.129,1.452c0.248,0,0.498-0.014,0.748-0.041   c0.823-0.093,1.417-0.834,1.325-1.657C58.147,74.352,57.391,73.767,56.583,73.851z"/><path d="M66.074,68.014c-0.188-0.041-0.378-0.073-0.57-0.098c-1.043-1.282-2.479-2.166-4.113-2.521   c-0.794-0.172-1.616-0.208-2.446-0.105c-0.822,0.102-1.406,0.85-1.305,1.672s0.854,1.409,1.672,1.305   c0.493-0.06,0.978-0.04,1.444,0.061c1.112,0.241,2.069,0.9,2.694,1.856c0.274,0.421,0.741,0.676,1.243,0.68   c0.253,0.002,0.504,0.03,0.747,0.082c0.948,0.206,1.76,0.769,2.285,1.585c0.525,0.815,0.701,1.787,0.496,2.736   c-0.176,0.81,0.339,1.607,1.148,1.783c0.106,0.023,0.214,0.034,0.318,0.034c0.691,0,1.312-0.479,1.465-1.183   c0.376-1.731,0.054-3.505-0.905-4.995S67.808,68.389,66.074,68.014z"/><path d="M62.653,62.28c0.254,0.165,0.538,0.244,0.82,0.244c0.489,0,0.969-0.239,1.257-0.679c0.453-0.693,0.259-1.623-0.435-2.077   c-0.698-0.456-1.454-0.786-2.245-0.981c-0.806-0.2-1.617,0.293-1.815,1.097c-0.198,0.805,0.293,1.617,1.097,1.815   C61.795,61.813,62.239,62.009,62.653,62.28z"/><path d="M48.895,58.128c0.818-0.522,1.79-0.695,2.738-0.485c0.948,0.209,1.758,0.774,2.279,1.592   c0.134,0.21,0.247,0.437,0.337,0.672c0.228,0.6,0.798,0.968,1.402,0.968c0.177,0,0.357-0.031,0.532-0.098   c0.774-0.294,1.164-1.16,0.87-1.935c-0.162-0.427-0.368-0.838-0.612-1.221c-0.954-1.494-2.432-2.526-4.162-2.908   c-1.73-0.385-3.505-0.066-4.999,0.886c-0.698,0.446-0.903,1.373-0.457,2.071S48.198,58.571,48.895,58.128z"/><path d="M81.486,71.257c-0.63-0.536-1.577-0.462-2.115,0.168c-0.537,0.631-0.462,1.577,0.168,2.115   c0.926,0.79,1.489,1.894,1.586,3.106c0.096,1.214-0.286,2.393-1.076,3.319c-0.203,0.237-0.433,0.456-0.682,0.65   c-0.654,0.508-0.772,1.45-0.265,2.104c0.296,0.381,0.738,0.58,1.186,0.58c0.321,0,0.646-0.103,0.919-0.315   c0.411-0.319,0.789-0.681,1.125-1.073C85.036,78.741,84.657,73.962,81.486,71.257z"/><path d="M35.139,22.401c0.293,0.293,0.677,0.439,1.061,0.439s0.768-0.146,1.061-0.439l0.475-0.475l0.475,0.475   c0.293,0.293,0.677,0.439,1.061,0.439s0.768-0.146,1.061-0.439c0.586-0.585,0.586-1.536,0-2.121l-0.475-0.475l0.475-0.475   c0.586-0.585,0.586-1.536,0-2.121c-0.586-0.586-1.535-0.586-2.121,0l-0.475,0.475l-0.475-0.475c-0.586-0.586-1.535-0.586-2.121,0   c-0.586,0.585-0.586,1.536,0,2.121l0.475,0.475l-0.475,0.475C34.553,20.866,34.553,21.816,35.139,22.401z"/><path d="M15.109,52.98c-0.586-0.586-1.536-0.586-2.121,0l-0.475,0.475l-0.475-0.475c-0.585-0.586-1.535-0.586-2.121,0   s-0.586,1.535,0,2.121l0.475,0.475l-0.475,0.475c-0.586,0.586-0.586,1.535,0,2.121c0.293,0.293,0.677,0.439,1.061,0.439   s0.768-0.146,1.061-0.439l0.475-0.475l0.475,0.475c0.292,0.293,0.677,0.439,1.061,0.439s0.768-0.146,1.061-0.439   c0.586-0.586,0.586-1.535,0-2.121l-0.475-0.475l0.475-0.475C15.695,54.516,15.695,53.566,15.109,52.98z"/><path d="M22.664,74.523c-0.586-0.586-1.535-0.586-2.121,0l-0.475,0.475l-0.475-0.475c-0.586-0.586-1.535-0.586-2.121,0   s-0.586,1.535,0,2.121l0.475,0.475l-0.475,0.475c-0.586,0.586-0.586,1.535,0,2.121c0.293,0.293,0.677,0.439,1.061,0.439   s0.768-0.146,1.061-0.439l0.475-0.475l0.475,0.475c0.293,0.293,0.677,0.439,1.061,0.439s0.768-0.146,1.061-0.439   c0.586-0.586,0.586-1.535,0-2.121l-0.475-0.475l0.475-0.475C23.25,76.059,23.25,75.109,22.664,74.523z"/><path d="M63.406,28.256c0.293,0.293,0.677,0.439,1.061,0.439s0.768-0.146,1.061-0.439l0.475-0.475l0.475,0.475   c0.293,0.293,0.677,0.439,1.061,0.439s0.768-0.146,1.061-0.439c0.586-0.585,0.586-1.535,0-2.121l-0.475-0.475l0.475-0.475   c0.586-0.586,0.586-1.536,0-2.121c-0.586-0.586-1.535-0.586-2.121,0l-0.475,0.475l-0.475-0.475c-0.586-0.586-1.535-0.586-2.121,0   c-0.586,0.585-0.586,1.535,0,2.121l0.475,0.475l-0.475,0.475C62.82,26.721,62.82,27.671,63.406,28.256z"/><path d="M93.251,72.546c0.51-1.355,0.775-2.799,0.775-4.252c0-6.66-5.419-12.079-12.079-12.079c-2.266,0-4.477,0.649-6.378,1.835   c-0.542-2.452-2.123-4.615-4.428-5.852c-1.793-0.96-3.855-1.261-5.829-0.877c-0.98-1.986-2.547-3.616-4.517-4.672   c-4.487-2.408-10.047-1.235-13.242,2.595l-0.3-0.145c-0.734-0.354-1.618-0.057-1.989,0.669c-0.371,0.727-0.092,1.617,0.627,2.003   c0.277,0.148,0.52,0.355,0.722,0.615c0.285,0.368,0.723,0.581,1.185,0.581c0.034,0,0.068-0.001,0.103-0.004   c0.499-0.034,0.948-0.314,1.197-0.748l0.182-0.277c2.15-3.368,6.585-4.53,10.098-2.646c1.717,0.921,3.009,2.451,3.639,4.309   c0.131,0.384,0.41,0.699,0.777,0.873c0.366,0.175,0.787,0.194,1.167,0.051c1.564-0.583,3.302-0.468,4.763,0.317   c2.181,1.169,3.376,3.599,2.975,6.044c-0.107,0.654,0.228,1.301,0.822,1.591c0.598,0.293,1.312,0.156,1.761-0.33   c1.745-1.892,4.112-2.933,6.666-2.933c5.006,0,9.079,4.073,9.079,9.079c0,1.538-0.396,3.062-1.144,4.405   c-0.234,0.421-0.252,0.929-0.048,1.365s0.605,0.748,1.079,0.838c1.904,0.361,3.286,2.031,3.286,3.971   c0,2.23-1.814,4.045-4.045,4.045c-0.828,0-1.5,0.672-1.5,1.5s0.672,1.5,1.5,1.5c3.885,0,7.045-3.16,7.045-7.045   C97.2,76.134,95.618,73.704,93.251,72.546z"/></g><text x="0" y="115" fill="#000000" font-size="5px" font-weight="bold" font-family="'Helvetica Neue', Helvetica, Arial-Unicode, Arial, Sans-serif">Created by Cezary Lopacinski</text><text x="0" y="120" fill="#000000" font-size="5px" font-weight="bold" font-family="'Helvetica Neue', Helvetica, Arial-Unicode, Arial, Sans-serif">from the Noun Project</text></svg>