<svg xmlns="http://www.w3.org/2000/svg" xmlns:xlink="http://www.w3.org/1999/xlink" viewBox="0 0 100 125" version="1.1" xml:space="preserve" style="" x="0px" y="0px" fill-rule="evenodd" clip-rule="evenodd" stroke-linejoin="round" stroke-miterlimit="1.41421"><g transform="matrix(1,0,0,1,-1.63169,-7.24807)"><g><path d="M34.94,44.101C34.994,43.961 35.069,43.83 35.161,43.713C35.285,43.556 35.441,43.424 35.616,43.328C35.692,43.286 35.77,43.254 35.851,43.224C37.315,42.768 38.803,42.393 40.28,41.978C40.353,41.96 40.371,41.953 40.446,41.941C40.615,41.914 40.787,41.916 40.955,41.947C41.095,41.972 41.231,42.018 41.358,42.082C41.768,42.287 42.067,42.679 42.156,43.129C42.19,43.297 42.194,43.469 42.17,43.638C42.159,43.713 42.153,43.731 42.136,43.805L41.061,47.877L42.267,47.552L42.351,47.532C42.521,47.501 42.69,47.49 42.862,47.514C43.349,47.581 43.781,47.891 44,48.331C44.091,48.512 44.137,48.705 44.155,48.906L44.274,50.801L47.69,50.08L47.773,50.066C47.856,50.055 47.937,50.049 48.022,50.048C48.105,50.052 48.105,50.052 48.188,50.06C48.326,50.081 48.46,50.113 48.589,50.169C48.949,50.322 49.239,50.617 49.388,50.979C49.452,51.136 49.484,51.297 49.498,51.465C49.537,52.867 49.5,54.27 49.5,55.673C49.498,55.759 49.493,55.844 49.478,55.929C49.439,56.154 49.348,56.37 49.214,56.555C49.113,56.694 48.988,56.815 48.847,56.911C48.783,56.955 48.715,56.994 48.645,57.027L33.395,69.581L34.245,70.431L34.88,69.796C35.465,69.21 36.415,69.21 37.001,69.796L42.743,75.538C43.329,76.123 43.329,77.073 42.743,77.659L36.689,83.713C36.104,84.299 35.154,84.299 34.568,83.713L28.826,77.971C28.24,77.386 28.24,76.436 28.826,75.85L29.461,75.215L28.242,73.996L15.663,84.771C13.926,86.46 11.138,86.445 9.42,84.727L7.592,82.899C5.873,81.18 5.859,78.392 7.548,76.655L18.324,64.077L17.104,62.857L16.469,63.492C15.884,64.078 14.934,64.078 14.348,63.492L8.607,57.751C8.021,57.165 8.021,56.216 8.607,55.63L14.661,49.576C15.246,48.99 16.196,48.99 16.782,49.576L22.523,55.317C23.109,55.903 23.109,56.852 22.523,57.438L21.888,58.073L22.738,58.923L34.94,44.101ZM37.139,45.976L9.791,78.646C9.767,78.675 9.74,78.704 9.713,78.731C9.149,79.295 9.149,80.213 9.713,80.777L11.541,82.605C12.105,83.169 13.023,83.168 13.587,82.604C13.614,82.578 13.643,82.551 13.672,82.526L46.5,55.044L46.5,53.397L43.195,54.094L43.113,54.109C42.947,54.13 42.783,54.133 42.617,54.103C42.15,54.018 41.742,53.707 41.535,53.279C41.449,53.102 41.406,52.916 41.388,52.721L41.276,50.926L39.34,51.448L39.257,51.468C39.183,51.481 39.165,51.486 39.09,51.493C38.921,51.509 38.749,51.496 38.585,51.455C38.142,51.344 37.766,51.029 37.58,50.612C37.522,50.483 37.483,50.346 37.463,50.206C37.436,50.007 37.453,49.812 37.499,49.617L38.566,45.575L37.139,45.976ZM55.561,53.748L55.556,53.745C55.416,53.646 55.293,53.522 55.195,53.382C55.08,53.218 54.998,53.032 54.956,52.836C54.938,52.752 54.93,52.668 54.924,52.582C54.905,51.073 54.97,49.565 54.995,48.057C55.003,47.884 55.029,47.718 55.09,47.556C55.261,47.098 55.656,46.745 56.13,46.626C56.327,46.577 56.524,46.574 56.724,46.599L58.85,46.927L59.239,45.203L59.259,45.121C59.302,44.986 59.355,44.858 59.43,44.737C59.625,44.426 59.933,44.194 60.286,44.092C60.422,44.052 60.56,44.037 60.702,44.033L64.256,44.033L63.847,39.977L63.84,39.89C63.838,39.715 63.855,39.545 63.908,39.378C64.038,38.961 64.351,38.616 64.753,38.445C64.915,38.377 65.082,38.343 65.257,38.328C65.344,38.326 65.343,38.326 65.43,38.329C65.517,38.337 65.601,38.347 65.686,38.367C65.771,38.387 65.852,38.417 65.933,38.449C66.677,38.795 67.401,39.182 68.134,39.55C68.21,39.591 68.284,39.633 68.353,39.684C68.414,39.729 68.471,39.778 68.524,39.831L68.528,39.826L83.389,52.06L88.357,47.092C88.943,46.506 89.892,46.506 90.478,47.092L96.532,53.146C97.118,53.732 97.118,54.681 96.532,55.267L91.499,60.3C96.372,67.057 97.591,73.9 94.277,77.941C94.052,78.265 93.647,78.688 93.167,79.033C89.192,82.295 82.372,81.075 75.605,76.194L70.569,81.23C69.984,81.816 69.034,81.816 68.448,81.23L62.394,75.176C61.808,74.59 61.808,73.641 62.394,73.055L67.363,68.086L55.561,53.748ZM35.941,72.978L39.561,76.598L35.628,80.531L32.008,76.911L32.643,76.276L35.306,73.613L35.941,72.978ZM73.129,74.427L69.509,78.047L65.577,74.115L69.197,70.495L73.129,74.427ZM67.108,42.416L67.407,45.382L67.413,45.469C67.416,45.643 67.399,45.813 67.346,45.98C67.207,46.425 66.861,46.786 66.423,46.944C66.258,47.004 66.089,47.028 65.914,47.033L61.901,47.033L61.468,48.953L61.447,49.037C61.403,49.175 61.348,49.307 61.269,49.43C61.05,49.773 60.693,50.017 60.294,50.095C60.121,50.129 59.95,50.127 59.776,50.105L57.967,49.826L57.93,52.051L72.999,70.051C73.1,70.151 73.207,70.253 73.321,70.356C80.041,76.888 87.772,79.58 91.342,76.653C91.68,76.403 91.766,76.299 91.899,76.114C94.885,72.468 92.193,64.737 85.697,58.054C85.564,57.908 85.458,57.796 85.357,57.693L67.108,42.416ZM31.583,73.094L30.632,72.143L31.216,71.644L32.124,72.552L31.583,73.094ZM25.653,68.333C26.178,68.333 26.605,68.76 26.605,69.285C26.605,69.81 26.178,70.237 25.653,70.237C25.127,70.237 24.701,69.81 24.701,69.285C24.701,68.76 25.127,68.333 25.653,68.333L25.653,68.333ZM80.438,66.801C80.438,67.326 80.012,67.753 79.486,67.753C78.961,67.753 78.534,67.326 78.534,66.801C78.534,66.276 78.961,65.849 79.486,65.849C80.012,65.849 80.438,66.276 80.438,66.801ZM23.034,65.714C23.559,65.714 23.986,66.141 23.986,66.666C23.986,67.191 23.559,67.618 23.034,67.618C22.508,67.618 22.082,67.191 22.082,66.666C22.082,66.141 22.508,65.714 23.034,65.714ZM28.316,65.67C28.841,65.67 29.268,66.097 29.268,66.622C29.268,67.147 28.841,67.574 28.316,67.574C27.79,67.574 27.364,67.147 27.364,66.622C27.364,66.097 27.79,65.67 28.316,65.67ZM83.056,64.182C83.056,64.707 82.63,65.134 82.104,65.134C81.579,65.134 81.152,64.707 81.152,64.182C81.152,63.657 81.579,63.23 82.104,63.23C82.63,63.23 83.056,63.657 83.056,64.182ZM77.775,64.138C77.775,64.663 77.349,65.09 76.823,65.09C76.298,65.09 75.871,64.663 75.871,64.138C75.871,63.613 76.298,63.186 76.823,63.186C77.349,63.186 77.775,63.613 77.775,64.138ZM25.697,63.051C26.222,63.051 26.649,63.478 26.649,64.003C26.649,64.528 26.222,64.955 25.697,64.955C25.171,64.955 24.745,64.528 24.745,64.003C24.745,63.478 25.171,63.051 25.697,63.051L25.697,63.051ZM80.393,61.519C80.393,62.044 79.967,62.471 79.441,62.471C78.916,62.471 78.489,62.044 78.489,61.519C78.489,60.994 78.916,60.567 79.441,60.567C79.967,60.567 80.393,60.994 80.393,61.519ZM19.225,60.735L19.766,60.194L20.665,61.093L20.166,61.677L19.225,60.735ZM15.408,60.31L11.788,56.69L15.721,52.757L19.341,56.377L18.706,57.012L16.043,59.675L15.408,60.31ZM85.798,53.894L89.418,50.274L93.35,54.206L89.73,57.826L85.798,53.894ZM42.936,34.104C43.061,34.113 43.183,34.131 43.303,34.168C43.59,34.255 43.848,34.43 44.035,34.664C44.114,34.762 44.176,34.868 44.231,34.981C45.57,38.128 46.753,41.339 48.013,44.518C48.039,44.589 48.063,44.659 48.08,44.732C48.119,44.903 48.129,45.079 48.107,45.253C48.089,45.401 48.049,45.547 47.988,45.683C47.76,46.192 47.255,46.539 46.698,46.569C46.524,46.578 46.348,46.557 46.181,46.506C45.99,46.448 45.811,46.351 45.658,46.223C45.483,46.078 45.352,45.897 45.253,45.693C43.914,42.546 42.731,39.335 41.471,36.156C41.402,35.967 41.362,35.773 41.366,35.57C41.378,35.013 41.709,34.497 42.211,34.254C42.392,34.165 42.585,34.121 42.786,34.105C42.861,34.103 42.86,34.103 42.936,34.104ZM51.148,28.471C51.327,28.487 51.499,28.522 51.664,28.595C52.019,28.75 52.305,29.044 52.451,29.402C52.508,29.541 52.538,29.684 52.556,29.833L53.781,43.286C53.786,43.376 53.789,43.463 53.781,43.553C53.763,43.759 53.702,43.962 53.602,44.144C53.516,44.3 53.403,44.44 53.268,44.557C53.156,44.654 53.03,44.734 52.894,44.794C52.428,45 51.875,44.952 51.451,44.668C51.279,44.552 51.131,44.401 51.02,44.225C50.925,44.075 50.857,43.908 50.82,43.734C50.803,43.657 50.803,43.637 50.793,43.558L49.568,30.105C49.557,29.925 49.567,29.75 49.614,29.576C49.732,29.143 50.045,28.779 50.455,28.597C50.62,28.524 50.791,28.488 50.97,28.472C51.059,28.469 51.059,28.469 51.148,28.471ZM60.276,31.192C60.462,31.201 60.642,31.235 60.815,31.307C61.29,31.506 61.637,31.947 61.718,32.455C61.747,32.639 61.738,32.823 61.703,33.006C61.053,35.733 60.278,38.428 59.564,41.139C59.493,41.386 59.374,41.611 59.195,41.797C58.822,42.185 58.253,42.345 57.732,42.208C57.576,42.167 57.426,42.1 57.291,42.011C57.136,41.91 57.001,41.78 56.893,41.629C56.786,41.479 56.707,41.309 56.661,41.13C56.602,40.903 56.603,40.672 56.647,40.443C57.298,37.716 58.072,35.021 58.786,32.31C58.818,32.198 58.857,32.09 58.912,31.988C59.075,31.68 59.345,31.436 59.667,31.304C59.796,31.251 59.93,31.22 60.069,31.201C60.138,31.195 60.206,31.192 60.276,31.192Z" style="" fill="black"/></g></g><text x="0" y="115" fill="#000000" font-size="5px" font-weight="bold" font-family="'Helvetica Neue', Helvetica, Arial-Unicode, Arial, Sans-serif">Created by Cezary Lopacinski</text><text x="0" y="120" fill="#000000" font-size="5px" font-weight="bold" font-family="'Helvetica Neue', Helvetica, Arial-Unicode, Arial, Sans-serif">from the Noun Project</text></svg>