<svg xmlns="http://www.w3.org/2000/svg" xmlns:xlink="http://www.w3.org/1999/xlink" viewBox="0 0 100 125" version="1.1" xml:space="preserve" style="" x="0px" y="0px" fill-rule="evenodd" clip-rule="evenodd" stroke-linejoin="round" stroke-miterlimit="1.41421"><path d="M50.739,48.466C50.758,47.886 50.763,47.306 50.752,46.726C50.71,44.456 50.443,42.191 49.975,39.97C49.773,39.01 49.534,38.058 49.252,37.118C49.062,36.484 48.857,35.852 48.609,35.238L48.577,35.15C48.522,34.967 48.492,34.784 48.502,34.592C48.533,34.051 48.864,33.558 49.352,33.324C49.525,33.241 49.706,33.199 49.896,33.18C49.99,33.177 49.99,33.177 50.084,33.179C50.242,33.193 50.394,33.221 50.543,33.278C50.837,33.392 51.091,33.6 51.261,33.864C51.351,34.003 51.409,34.157 51.469,34.311C51.538,34.492 51.605,34.674 51.67,34.857C51.955,35.663 52.202,36.481 52.423,37.306C52.818,38.783 53.126,40.284 53.347,41.796C53.641,43.802 53.783,45.831 53.755,47.858C53.752,48.061 53.748,48.264 53.741,48.467C54.483,48.474 55.225,48.485 55.967,48.501C56.121,48.511 56.27,48.538 56.415,48.59C56.807,48.733 57.128,49.04 57.288,49.426C57.355,49.589 57.389,49.759 57.4,49.935C57.439,51.733 57.407,53.531 57.402,55.33C57.509,55.376 57.614,55.424 57.719,55.473C59.06,56.099 60.293,56.954 61.352,57.988C62.41,59.021 63.293,60.231 63.951,61.556C64.504,62.667 64.897,63.856 65.115,65.078C65.361,66.451 65.387,67.863 65.193,69.244C65.006,70.584 64.609,71.893 64.021,73.112C63.333,74.54 62.385,75.839 61.238,76.933C60.05,78.065 58.651,78.974 57.132,79.595C55.556,80.24 53.859,80.57 52.157,80.57C50.455,80.57 48.758,80.24 47.182,79.595C45.663,78.974 44.264,78.065 43.076,76.933C41.929,75.839 40.981,74.54 40.293,73.112C39.705,71.893 39.309,70.584 39.121,69.244C38.927,67.863 38.953,66.451 39.199,65.078C39.417,63.856 39.811,62.667 40.363,61.556C41.022,60.231 41.905,59.021 42.963,57.988C44.022,56.954 45.254,56.099 46.595,55.473C46.698,55.425 46.801,55.378 46.905,55.333C46.878,53.555 46.913,51.778 46.913,50C46.916,49.846 46.936,49.696 46.982,49.549C47.114,49.129 47.432,48.783 47.839,48.614C48.002,48.547 48.172,48.513 48.347,48.501C49.144,48.484 49.942,48.472 50.739,48.466ZM51.6,57.258C51.268,57.276 50.938,57.308 50.609,57.359C49.66,57.504 48.734,57.785 47.865,58.191C45.863,59.126 44.193,60.719 43.162,62.672C42.696,63.553 42.363,64.503 42.175,65.481C41.964,66.582 41.936,67.718 42.092,68.828C42.237,69.86 42.542,70.87 42.995,71.809C43.527,72.912 44.26,73.916 45.146,74.762C46.064,75.636 47.144,76.339 48.318,76.818C49.534,77.316 50.844,77.57 52.157,77.57C53.471,77.57 54.781,77.316 55.997,76.818C57.17,76.339 58.25,75.636 59.168,74.762C60.054,73.916 60.787,72.912 61.319,71.809C61.772,70.87 62.078,69.861 62.222,68.828C62.378,67.718 62.35,66.582 62.139,65.481C61.959,64.543 61.645,63.632 61.209,62.781C60.183,60.778 58.489,59.143 56.449,58.191C55.58,57.785 54.654,57.504 53.706,57.359C53.411,57.314 53.114,57.283 52.817,57.264C52.411,57.263 52.006,57.26 51.6,57.258ZM54.402,51.5L49.913,51.5L49.913,54.241L54.402,54.241L54.402,51.5ZM46.332,40.515C46.562,40.528 46.785,40.585 46.988,40.696C47.118,40.766 47.237,40.856 47.34,40.96C47.641,41.266 47.799,41.695 47.768,42.122C47.757,42.269 47.725,42.414 47.672,42.552C47.595,42.752 47.475,42.929 47.325,43.082C45.959,44.385 44.572,45.665 43.165,46.923C43.001,47.06 42.815,47.166 42.609,47.227C42.421,47.282 42.222,47.301 42.026,47.28C41.847,47.261 41.672,47.21 41.511,47.129C41.379,47.063 41.258,46.977 41.151,46.876C40.84,46.581 40.668,46.157 40.685,45.729C40.691,45.581 40.719,45.435 40.767,45.296C40.843,45.077 40.969,44.885 41.131,44.72C42.496,43.417 43.883,42.136 45.291,40.879C45.366,40.816 45.445,40.758 45.531,40.709C45.747,40.587 45.986,40.524 46.233,40.514C46.282,40.514 46.282,40.514 46.332,40.515ZM57.163,38.038C57.323,38.047 57.479,38.074 57.629,38.129C57.712,38.16 57.791,38.199 57.868,38.242C59.484,39.223 61.082,40.233 62.662,41.27C62.836,41.393 62.985,41.544 63.096,41.727C63.198,41.893 63.266,42.078 63.297,42.27C63.325,42.444 63.322,42.623 63.289,42.796C63.258,42.952 63.203,43.103 63.125,43.242C62.854,43.727 62.321,44.027 61.765,44.008C61.515,44 61.278,43.926 61.06,43.805C59.445,42.824 57.847,41.814 56.267,40.777C56.064,40.633 55.895,40.449 55.78,40.227C55.707,40.086 55.657,39.934 55.631,39.777C55.609,39.637 55.606,39.495 55.623,39.355C55.68,38.895 55.953,38.478 56.353,38.244C56.537,38.136 56.74,38.073 56.952,38.046C57.022,38.04 57.092,38.037 57.163,38.038ZM43.716,35.236C43.964,35.252 44.202,35.318 44.416,35.445C44.547,35.522 44.665,35.619 44.766,35.731C44.868,35.844 44.952,35.972 45.015,36.11C45.206,36.526 45.194,37.018 44.983,37.425C44.896,37.593 44.777,37.745 44.634,37.869C44.46,38.019 44.257,38.122 44.037,38.185C42.199,38.636 40.352,39.053 38.499,39.435C38.273,39.472 38.045,39.467 37.824,39.406C37.641,39.355 37.469,39.27 37.318,39.156C37.167,39.041 37.038,38.898 36.94,38.736C36.862,38.607 36.804,38.465 36.767,38.318C36.639,37.796 36.807,37.232 37.2,36.865C37.382,36.694 37.6,36.579 37.839,36.51C39.677,36.059 41.523,35.642 43.377,35.26C43.452,35.248 43.526,35.24 43.602,35.236C43.66,35.235 43.659,35.235 43.716,35.236ZM61.114,31.309C61.362,31.325 61.6,31.391 61.815,31.518C61.945,31.595 62.063,31.692 62.165,31.804C62.471,32.145 62.607,32.618 62.527,33.07C62.5,33.219 62.451,33.364 62.382,33.498C62.294,33.666 62.175,33.818 62.032,33.942C61.858,34.092 61.655,34.195 61.435,34.258C59.597,34.709 57.751,35.126 55.897,35.508C55.671,35.545 55.444,35.54 55.222,35.479C55.04,35.428 54.867,35.343 54.716,35.228C54.565,35.114 54.437,34.971 54.339,34.809C54.061,34.349 54.052,33.76 54.318,33.293C54.392,33.161 54.487,33.041 54.598,32.937C54.78,32.767 54.998,32.652 55.237,32.583C57.075,32.132 58.922,31.715 60.775,31.333C60.85,31.321 60.925,31.313 61.001,31.309C61.057,31.308 61.057,31.308 61.114,31.309ZM38.235,26.566C38.394,26.574 38.55,26.602 38.7,26.657C38.784,26.688 38.862,26.726 38.94,26.77C40.555,27.751 42.153,28.76 43.733,29.798C43.936,29.942 44.105,30.125 44.22,30.347C44.293,30.488 44.343,30.641 44.369,30.798C44.457,31.346 44.226,31.912 43.78,32.243C43.638,32.348 43.477,32.427 43.308,32.477C43.121,32.531 42.924,32.549 42.731,32.529C42.518,32.506 42.318,32.437 42.132,32.332C40.516,31.351 38.918,30.342 37.338,29.304C37.135,29.16 36.967,28.977 36.852,28.755C36.779,28.614 36.728,28.461 36.703,28.305C36.629,27.847 36.776,27.371 37.094,27.035C37.191,26.932 37.302,26.843 37.424,26.772C37.609,26.663 37.811,26.6 38.023,26.574C38.094,26.568 38.164,26.565 38.235,26.566ZM57.876,23.287C58.089,23.299 58.297,23.349 58.489,23.445C58.621,23.512 58.742,23.597 58.849,23.699C59.16,23.994 59.332,24.417 59.315,24.846C59.309,24.993 59.281,25.139 59.233,25.278C59.157,25.497 59.031,25.689 58.869,25.854C57.504,27.157 56.117,28.438 54.709,29.695C54.532,29.844 54.33,29.954 54.106,30.012C53.964,30.049 53.816,30.065 53.668,30.06C53.24,30.042 52.832,29.837 52.562,29.504C52.469,29.39 52.394,29.261 52.338,29.125C52.271,28.958 52.233,28.779 52.229,28.599C52.224,28.403 52.258,28.206 52.328,28.022C52.405,27.822 52.525,27.645 52.675,27.493C54.041,26.19 55.428,24.909 56.835,23.651C57.025,23.493 57.244,23.378 57.486,23.323C57.582,23.301 57.679,23.291 57.777,23.287C57.827,23.286 57.826,23.286 57.876,23.287ZM46.646,21.125C46.798,21.131 46.947,21.155 47.091,21.204C47.433,21.32 47.727,21.56 47.908,21.873C47.975,21.988 48.023,22.111 48.059,22.239C48.511,24.077 48.928,25.923 49.309,27.777C49.347,28.003 49.342,28.23 49.28,28.452C49.23,28.634 49.145,28.807 49.03,28.958C48.916,29.109 48.773,29.237 48.611,29.335C48.151,29.613 47.562,29.622 47.095,29.356C46.963,29.282 46.843,29.187 46.739,29.076C46.569,28.894 46.453,28.676 46.385,28.437C45.934,26.599 45.517,24.753 45.135,22.899C45.107,22.73 45.101,22.56 45.128,22.39C45.202,21.918 45.506,21.501 45.933,21.286C46.104,21.199 46.286,21.151 46.476,21.13C46.532,21.126 46.589,21.124 46.646,21.125Z" style="" fill="black"/><text x="0" y="115" fill="#000000" font-size="5px" font-weight="bold" font-family="'Helvetica Neue', Helvetica, Arial-Unicode, Arial, Sans-serif">Created by Cezary Lopacinski</text><text x="0" y="120" fill="#000000" font-size="5px" font-weight="bold" font-family="'Helvetica Neue', Helvetica, Arial-Unicode, Arial, Sans-serif">from the Noun Project</text></svg>