<svg xmlns="http://www.w3.org/2000/svg" xmlns:xlink="http://www.w3.org/1999/xlink" viewBox="0 0 100 125" version="1.1" xml:space="preserve" style="" x="0px" y="0px" fill-rule="evenodd" clip-rule="evenodd" stroke-linejoin="round" stroke-miterlimit="1.41421"><g transform="matrix(1,0,0,1,0,-4.52196)"><g><path d="M31.511,43.581C31.565,43.472 31.634,43.37 31.713,43.278C31.851,43.118 32.023,42.987 32.215,42.898C32.298,42.859 32.383,42.831 32.47,42.806L36.464,41.761C36.553,41.741 36.639,41.726 36.729,41.717C36.819,41.713 36.819,41.712 36.909,41.714C37.09,41.727 37.264,41.761 37.431,41.832C37.848,42.01 38.168,42.375 38.289,42.811C38.338,42.987 38.348,43.164 38.338,43.345L38,47.159L39.674,47.39L39.763,47.405C39.91,47.438 40.05,47.484 40.183,47.556C40.554,47.757 40.828,48.113 40.927,48.522C40.963,48.67 40.972,48.817 40.967,48.968L40.854,50.803L45.18,49.934L45.268,49.919C45.449,49.899 45.626,49.901 45.804,49.941C46.247,50.04 46.628,50.343 46.826,50.751C46.905,50.915 46.947,51.088 46.969,51.268L47.501,57.09C47.506,57.17 47.509,57.19 47.506,57.271C47.501,57.452 47.462,57.632 47.393,57.8C47.324,57.967 47.224,58.122 47.1,58.254C47.006,58.354 46.898,58.441 46.78,58.512L34.575,69.685C34.653,69.738 34.728,69.797 34.798,69.867L38.418,73.487C39.004,74.072 39.004,75.022 38.418,75.608L32.364,81.662C31.779,82.248 30.829,82.248 30.243,81.662L26.623,78.042C26.418,77.837 26.29,77.587 26.228,77.325L22.17,81.04C18.522,84.379 12.924,84.256 9.426,80.758C5.928,77.26 5.805,71.662 9.145,68.014L12.86,63.956C12.598,63.894 12.348,63.766 12.143,63.561L8.523,59.941C7.937,59.355 7.937,58.406 8.523,57.82L14.577,51.766C15.162,51.18 16.112,51.18 16.698,51.766L20.318,55.386C20.387,55.455 20.447,55.53 20.5,55.609L31.511,43.581ZM33.755,45.57L11.357,70.039C9.103,72.5 9.186,76.276 11.546,78.636C13.906,80.996 17.682,81.079 20.144,78.826L44.442,56.582L44.133,53.204L39.533,54.128L39.443,54.143C39.259,54.163 39.078,54.16 38.897,54.118C38.385,53.999 37.964,53.609 37.807,53.107C37.751,52.93 37.735,52.75 37.74,52.565L37.887,50.172L36.175,49.936L36.085,49.921C35.935,49.886 35.793,49.839 35.657,49.765C35.281,49.558 35.006,49.191 34.914,48.772C34.881,48.621 34.876,48.471 34.885,48.318L35.161,45.203L33.755,45.57ZM51.467,54.051C51.434,54.032 51.401,54.012 51.369,53.99C51.219,53.889 51.087,53.761 50.981,53.613C50.876,53.466 50.798,53.299 50.752,53.124C50.732,53.046 50.73,53.025 50.717,52.946L50.374,50.421C50.355,50.244 50.357,50.07 50.396,49.895C50.505,49.401 50.867,48.987 51.342,48.812C51.51,48.75 51.682,48.725 51.86,48.719L55.409,48.719L55.833,46.017L55.85,45.928C55.887,45.78 55.937,45.639 56.013,45.506C56.21,45.162 56.542,44.905 56.924,44.802C57.043,44.77 57.162,44.757 57.284,44.751C57.375,44.751 57.374,44.751 57.465,44.758L57.555,44.77L60.82,45.299L59.99,41.597L59.973,41.508C59.957,41.386 59.949,41.267 59.959,41.144C59.985,40.84 60.104,40.547 60.299,40.312C60.358,40.241 60.423,40.18 60.492,40.119L63.383,37.701C63.455,37.645 63.527,37.591 63.607,37.546C63.791,37.442 63.997,37.378 64.207,37.358C64.649,37.317 65.089,37.481 65.401,37.787L65.403,37.785L80.676,50.38L83.215,47.564C83.77,46.949 84.718,46.9 85.333,47.455L91.692,53.188C92.307,53.743 92.356,54.691 91.801,55.306L88.869,58.558C93.387,64.702 94.622,70.946 91.7,74.911C91.49,75.248 91.109,75.69 90.647,76.06C87.065,79.324 80.749,78.733 74.164,74.866L71.231,78.119C70.677,78.734 69.729,78.783 69.113,78.228L62.755,72.495C62.139,71.94 62.09,70.992 62.645,70.377L65.183,67.561L51.467,54.051ZM33.737,73.048L35.235,74.546L31.302,78.479L29.804,76.981L33.737,73.048ZM64.35,40.803L63.118,41.833L64.233,46.807L64.25,46.894C64.26,46.972 64.264,46.991 64.268,47.07C64.274,47.218 64.258,47.367 64.221,47.51C64.086,48.033 63.668,48.452 63.145,48.587C63.002,48.624 62.853,48.64 62.705,48.633C62.627,48.63 62.607,48.626 62.529,48.615L58.563,47.972L58.173,50.452L58.157,50.539C58.121,50.683 58.074,50.821 58.001,50.951C57.813,51.287 57.496,51.543 57.127,51.655C56.984,51.698 56.84,51.715 56.691,51.719L53.578,51.719L53.609,51.946L70.032,68.123L70.083,68.17C70.155,68.233 70.261,68.323 70.378,68.419C77.428,74.594 85.287,76.883 88.7,73.777C88.863,73.644 88.948,73.568 89.025,73.483C89.101,73.399 89.168,73.306 89.229,73.21C92.023,69.415 88.935,61.833 82.103,55.494C81.945,55.338 81.822,55.221 81.704,55.114L64.35,40.803ZM71.427,73.421L70.008,74.995L65.879,71.271L67.297,69.698L71.427,73.421ZM23.454,68.402C23.977,68.405 24.4,68.831 24.4,69.354C24.4,69.877 23.977,70.303 23.454,70.306L23.448,70.306C22.923,70.306 22.496,69.879 22.496,69.354C22.496,68.829 22.923,68.402 23.448,68.402L23.454,68.402ZM20.835,65.783C21.358,65.786 21.781,66.212 21.781,66.735C21.781,67.258 21.358,67.684 20.835,67.687L20.829,67.687C20.304,67.687 19.877,67.26 19.877,66.735C19.877,66.21 20.304,65.783 20.829,65.783L20.835,65.783ZM26.117,65.739C26.64,65.742 27.063,66.168 27.063,66.691C27.063,67.214 26.64,67.64 26.117,67.643L26.111,67.643C25.586,67.643 25.159,67.216 25.159,66.691C25.159,66.166 25.586,65.739 26.111,65.739L26.117,65.739ZM78.332,65.428C78.359,65.953 77.955,66.401 77.43,66.428C76.905,66.455 76.457,66.051 76.43,65.527C76.403,65.002 76.807,64.554 77.332,64.527C77.856,64.5 78.304,64.904 78.332,65.428ZM23.498,63.12C24.021,63.123 24.444,63.549 24.444,64.072C24.444,64.595 24.021,65.021 23.498,65.024L23.492,65.024C22.967,65.024 22.54,64.597 22.54,64.072C22.54,63.547 22.967,63.12 23.492,63.12L23.498,63.12ZM75.535,62.906C75.562,63.431 75.158,63.879 74.633,63.906C74.108,63.933 73.66,63.529 73.633,63.005C73.606,62.48 74.01,62.032 74.535,62.005C75.059,61.978 75.508,62.382 75.535,62.906ZM80.812,62.678C80.839,63.202 80.435,63.65 79.91,63.677C79.386,63.705 78.938,63.301 78.91,62.776C78.883,62.251 79.287,61.803 79.812,61.776C80.337,61.749 80.785,62.153 80.812,62.678ZM78.015,60.156C78.042,60.68 77.638,61.128 77.113,61.155C76.589,61.183 76.141,60.779 76.113,60.254C76.086,59.729 76.49,59.281 77.015,59.254C77.54,59.227 77.988,59.631 78.015,60.156ZM13.203,60.379L11.704,58.88L15.637,54.947L17.136,56.446L13.203,60.379ZM83.019,52.261L84.439,50.686L88.568,54.41L87.149,55.984L83.019,52.261ZM39.823,34.655C39.947,34.662 40.067,34.678 40.186,34.712C40.494,34.799 40.77,34.986 40.965,35.24C41.04,35.338 41.1,35.444 41.152,35.556C42.378,38.576 43.456,41.653 44.608,44.701C44.632,44.771 44.655,44.84 44.67,44.913C44.707,45.081 44.714,45.255 44.692,45.425C44.673,45.571 44.632,45.714 44.571,45.849C44.511,45.983 44.43,46.108 44.333,46.219C44.057,46.535 43.651,46.724 43.231,46.731C43.059,46.734 42.887,46.707 42.724,46.652C42.538,46.589 42.365,46.489 42.217,46.36C42.048,46.212 41.923,46.032 41.829,45.829C40.603,42.81 39.524,39.733 38.373,36.685C38.307,36.497 38.271,36.306 38.277,36.107C38.294,35.559 38.62,35.053 39.111,34.81C39.289,34.722 39.479,34.676 39.676,34.658C39.75,34.655 39.749,34.655 39.823,34.655ZM47.646,25.583C47.817,25.602 47.981,25.638 48.14,25.709C48.516,25.877 48.812,26.201 48.946,26.591C48.991,26.722 49.012,26.854 49.025,26.992L50.07,45.145C50.072,45.236 50.075,45.259 50.067,45.35C50.054,45.52 50.011,45.688 49.941,45.844C49.858,46.031 49.735,46.2 49.584,46.338C49.458,46.454 49.312,46.547 49.155,46.613C48.677,46.815 48.114,46.751 47.694,46.447C47.583,46.367 47.483,46.272 47.398,46.165C47.249,45.978 47.146,45.755 47.1,45.52C47.083,45.431 47.083,45.408 47.075,45.317L46.03,27.164C46.026,26.991 46.039,26.824 46.087,26.658C46.213,26.228 46.532,25.87 46.945,25.696C47.105,25.628 47.269,25.596 47.441,25.58C47.544,25.578 47.543,25.578 47.646,25.583ZM56.725,30.026C56.903,30.044 57.074,30.083 57.238,30.158C57.68,30.36 58.003,30.776 58.09,31.255C58.122,31.432 58.117,31.607 58.091,31.784C57.42,35.073 56.585,38.327 55.832,41.598C55.775,41.821 55.68,42.027 55.534,42.207C55.406,42.364 55.246,42.495 55.067,42.589C54.91,42.672 54.738,42.726 54.562,42.749C54.411,42.768 54.258,42.765 54.108,42.738C53.577,42.644 53.127,42.259 52.952,41.748C52.894,41.581 52.866,41.403 52.871,41.225C52.872,41.149 52.882,41.074 52.893,40.999C53.564,37.71 54.398,34.456 55.152,31.185C55.184,31.062 55.224,30.943 55.283,30.83C55.459,30.491 55.765,30.227 56.126,30.103C56.272,30.053 56.42,30.03 56.573,30.022C56.649,30.022 56.649,30.022 56.725,30.026Z" style="" fill="black"/></g></g><text x="0" y="115" fill="#000000" font-size="5px" font-weight="bold" font-family="'Helvetica Neue', Helvetica, Arial-Unicode, Arial, Sans-serif">Created by Cezary Lopacinski</text><text x="0" y="120" fill="#000000" font-size="5px" font-weight="bold" font-family="'Helvetica Neue', Helvetica, Arial-Unicode, Arial, Sans-serif">from the Noun Project</text></svg>