<svg xmlns="http://www.w3.org/2000/svg" xmlns:xlink="http://www.w3.org/1999/xlink" viewBox="0 0 100 125" version="1.1" xml:space="preserve" style="" x="0px" y="0px" fill-rule="evenodd" clip-rule="evenodd" stroke-linejoin="round" stroke-miterlimit="1.41421"><g transform="matrix(1,0,0,1,-1.16554,-0.566334)"><path d="M35.738,19.879C35.746,18.826 35.755,17.773 35.755,16.72C35.758,16.557 35.781,16.398 35.832,16.243C35.973,15.823 36.3,15.481 36.713,15.321C36.865,15.262 37.023,15.233 37.185,15.221C38.958,15.18 40.732,15.18 42.504,15.221C42.667,15.233 42.824,15.262 42.977,15.321C43.367,15.472 43.682,15.787 43.834,16.178C43.893,16.33 43.922,16.488 43.933,16.651C43.958,17.727 43.964,18.803 43.962,19.879L67.394,19.879L67.545,19.887C67.595,19.895 67.645,19.902 67.695,19.91C67.825,19.943 67.86,19.947 67.984,20C68.31,20.139 68.581,20.395 68.738,20.713C68.783,20.804 68.819,20.899 68.844,20.997C68.857,21.045 68.865,21.095 68.876,21.145L70.384,30.675C70.39,30.725 70.398,30.776 70.4,30.826C70.406,30.928 70.401,31.03 70.386,31.13C70.31,31.639 69.969,32.083 69.496,32.287C69.356,32.347 69.207,32.386 69.055,32.402C69.004,32.407 68.953,32.407 68.903,32.409L68.209,32.409L68.209,45.732C68.248,45.725 68.287,45.719 68.326,45.713C68.759,45.647 69.194,45.614 69.632,45.606C69.753,45.605 69.752,45.605 69.874,45.606C70.311,45.614 70.747,45.647 71.179,45.713C71.855,45.817 72.519,45.995 73.156,46.243C73.26,45.884 73.384,45.531 73.526,45.185C74.106,43.78 74.997,42.508 76.117,41.481C77.152,40.532 78.379,39.796 79.704,39.332C80.404,39.086 81.131,38.917 81.868,38.827C82.246,38.781 82.625,38.758 83.006,38.751C83.137,38.751 83.137,38.751 83.268,38.752C83.665,38.759 84.061,38.784 84.455,38.834C85.348,38.948 86.226,39.179 87.06,39.52C88.067,39.931 89.007,40.502 89.837,41.204C90.758,41.983 91.542,42.922 92.144,43.968C92.629,44.812 92.995,45.724 93.226,46.669C93.497,47.778 93.582,48.931 93.481,50.068C93.375,51.264 93.059,52.44 92.55,53.528C92.003,54.699 91.236,55.765 90.3,56.657C89.301,57.609 88.114,58.36 86.824,58.851C86.117,59.12 85.381,59.309 84.634,59.418L84.634,79.333C84.633,79.368 84.632,79.393 84.631,79.416L92.646,83.078C92.708,83.112 92.773,83.142 92.833,83.18C93.074,83.335 93.268,83.559 93.387,83.819C93.446,83.949 93.487,84.087 93.507,84.229C93.579,84.73 93.387,85.245 93.004,85.576C92.896,85.67 92.775,85.747 92.645,85.807C92.515,85.866 92.377,85.907 92.235,85.927C92.023,85.957 91.805,85.942 91.599,85.881C91.531,85.861 91.466,85.831 91.399,85.806L9.684,48.469C9.621,48.435 9.556,48.405 9.496,48.367C9.316,48.251 9.161,48.096 9.045,47.916C8.772,47.49 8.733,46.942 8.943,46.482C9.002,46.352 9.08,46.231 9.174,46.123C9.268,46.015 9.376,45.92 9.497,45.843C9.677,45.727 9.882,45.651 10.094,45.62C10.165,45.61 10.236,45.61 10.308,45.605C10.379,45.61 10.45,45.615 10.521,45.62C10.73,45.666 10.73,45.666 10.931,45.741L16.077,48.092C20.627,48.092 25.179,47.967 29.727,48.055L29.727,32.409L29.033,32.409C28.983,32.407 28.932,32.407 28.881,32.402C28.78,32.391 28.68,32.371 28.583,32.34C28.092,32.186 27.707,31.778 27.58,31.28C27.542,31.132 27.527,30.978 27.536,30.826C27.538,30.776 27.546,30.725 27.552,30.675L29.06,21.145C29.071,21.095 29.079,21.045 29.092,20.997C29.117,20.899 29.153,20.804 29.198,20.713C29.378,20.349 29.706,20.069 30.094,19.948C30.191,19.917 30.29,19.897 30.391,19.887C30.441,19.882 30.492,19.882 30.542,19.879L35.738,19.879ZM78.482,58.428C78.398,58.64 78.307,58.849 78.208,59.054C77.718,60.071 77.042,60.998 76.225,61.777C75.378,62.584 74.381,63.232 73.298,63.674C72.65,63.94 71.972,64.13 71.281,64.244C71.325,67.263 71.266,70.284 71.255,73.304L81.634,78.046L81.634,59.419C81.495,59.399 81.357,59.376 81.219,59.35C80.269,59.173 79.345,58.861 78.482,58.428ZM65.047,63.103C65.049,65.537 65.007,67.973 65.007,70.407C65.007,70.421 65.006,70.435 65.006,70.449L68.214,71.915C68.193,69.359 68.236,66.803 68.249,64.248C67.55,64.135 66.863,63.943 66.207,63.674C65.807,63.511 65.42,63.32 65.047,63.103ZM60.678,52.601L58.424,52.601L58.424,67.441L61.981,69.067C61.941,66.138 62,63.208 62.006,60.278C61.74,59.889 61.503,59.479 61.297,59.054C60.879,58.185 60.596,57.252 60.462,56.297C60.324,55.313 60.343,54.307 60.518,53.328C60.561,53.084 60.615,52.841 60.678,52.601ZM35.284,56.868L55.424,66.07L55.424,52.601L35.307,52.601C35.32,54.023 35.312,55.444 35.285,56.866L35.284,56.868ZM73.482,49.81C73.199,49.605 72.9,49.424 72.587,49.268C72.049,49.001 71.474,48.811 70.883,48.705C70.591,48.653 70.296,48.623 70,48.61C69.89,48.606 69.78,48.605 69.67,48.606C69.372,48.611 69.075,48.634 68.78,48.679C68.252,48.759 67.736,48.907 67.245,49.117C67.14,49.165 67.034,49.212 66.93,49.263L66.925,49.265C66.455,49.501 66.016,49.791 65.617,50.13C65.236,50.456 64.893,50.825 64.596,51.229C64.455,51.424 64.324,51.626 64.203,51.835C64.169,51.895 64.136,51.955 64.104,52.016C63.825,52.545 63.621,53.114 63.501,53.7C63.354,54.416 63.332,55.157 63.433,55.88C63.52,56.503 63.701,57.112 63.967,57.681C64.149,58.072 64.372,58.444 64.629,58.789C64.676,58.842 64.719,58.899 64.758,58.958C64.925,59.167 65.104,59.365 65.296,59.552C65.865,60.108 66.538,60.557 67.271,60.868C68.029,61.188 68.847,61.358 69.67,61.368C70.496,61.379 71.322,61.23 72.091,60.926C72.832,60.634 73.516,60.201 74.099,59.658C74.661,59.134 75.129,58.509 75.472,57.821C75.763,57.236 75.962,56.606 76.061,55.96C76.067,55.919 76.073,55.878 76.079,55.836C76.09,55.736 76.102,55.636 76.111,55.536C76.156,54.955 76.132,54.372 76.024,53.799C75.859,52.923 75.507,52.09 75.001,51.359C74.722,50.957 74.398,50.588 74.036,50.259C73.859,50.1 73.674,49.951 73.482,49.81ZM83.136,56.527C83.635,56.527 84.134,56.477 84.623,56.377C85.273,56.243 85.904,56.021 86.495,55.719C87.155,55.381 87.763,54.942 88.294,54.424C88.867,53.864 89.349,53.212 89.714,52.499C90.101,51.744 90.355,50.923 90.463,50.081C90.581,49.152 90.523,48.2 90.289,47.293C90.043,46.336 89.601,45.433 89.001,44.65C88.369,43.826 87.565,43.138 86.653,42.642C85.991,42.282 85.273,42.025 84.533,41.883C84.166,41.813 83.794,41.773 83.42,41.756C83.294,41.752 83.169,41.751 83.042,41.751C82.243,41.766 81.451,41.899 80.695,42.163C79.833,42.465 79.03,42.929 78.336,43.523C77.602,44.151 76.992,44.922 76.552,45.783C76.221,46.428 75.993,47.119 75.862,47.831L75.856,47.864C75.938,47.933 76.017,48.005 76.097,48.077C76.198,48.172 76.198,48.171 76.298,48.267C76.692,48.657 77.055,49.073 77.378,49.523C77.547,49.758 77.704,50 77.85,50.25C77.959,50.435 78.062,50.624 78.158,50.817C78.439,51.383 78.663,51.978 78.824,52.589L78.83,52.611C78.873,52.773 78.911,52.937 78.945,53.102C78.969,53.223 78.992,53.344 79.011,53.466L79.023,53.538L79.034,53.608L79.044,53.684L79.054,53.752L79.062,53.819L79.07,53.887L79.078,53.955L79.083,54.002C79.13,54.448 79.145,54.898 79.128,55.346C79.755,55.748 80.437,56.059 81.156,56.259C81.799,56.437 82.465,56.527 83.132,56.527L83.134,56.527L83.136,56.527ZM29.727,51.092L22.643,51.092L32.267,55.49C32.257,54.527 32.256,53.564 32.265,52.601L31.227,52.601C31.181,52.599 31.135,52.599 31.089,52.595C30.997,52.586 30.906,52.569 30.817,52.544C30.368,52.416 29.997,52.078 29.829,51.643C29.779,51.514 29.747,51.377 29.734,51.239C29.729,51.193 29.729,51.147 29.727,51.101L29.727,51.092ZM65.209,32.409L32.727,32.409L32.727,49.601L62.072,49.601C62.141,49.504 62.211,49.408 62.282,49.313C62.693,48.779 63.154,48.287 63.667,47.849C63.925,47.628 64.195,47.423 64.475,47.233C64.674,47.096 64.879,46.968 65.088,46.847C65.115,46.832 65.141,46.817 65.167,46.802L65.209,46.779L65.209,32.409ZM61.94,34.664C62.103,34.676 62.26,34.705 62.413,34.764C62.803,34.915 63.118,35.23 63.27,35.621C63.329,35.773 63.358,35.931 63.369,36.094C63.433,38.841 63.371,41.59 63.371,44.339C63.367,44.502 63.345,44.66 63.293,44.815C63.153,45.235 62.825,45.578 62.413,45.737C62.26,45.796 62.103,45.826 61.94,45.837C59.158,45.901 56.374,45.839 53.591,45.839C53.428,45.835 53.269,45.813 53.114,45.761C52.695,45.62 52.352,45.293 52.192,44.881C52.133,44.728 52.104,44.57 52.092,44.408C52.029,41.66 52.091,38.911 52.091,36.163C52.095,36 52.117,35.841 52.169,35.686C52.309,35.267 52.636,34.924 53.049,34.764C53.201,34.705 53.359,34.676 53.522,34.664C56.327,34.6 59.135,34.6 61.94,34.664ZM44.414,34.664C44.577,34.676 44.735,34.705 44.887,34.764C45.278,34.915 45.593,35.23 45.744,35.621C45.803,35.773 45.832,35.931 45.844,36.094C45.907,38.841 45.845,41.59 45.845,44.339C45.841,44.502 45.819,44.66 45.767,44.815C45.627,45.235 45.3,45.578 44.887,45.737C44.735,45.796 44.577,45.826 44.414,45.837C41.632,45.901 38.848,45.839 36.065,45.839C35.902,45.835 35.743,45.813 35.588,45.761C35.169,45.62 34.826,45.293 34.666,44.881C34.607,44.728 34.578,44.57 34.567,44.408C34.503,41.66 34.565,38.911 34.565,36.163C34.569,36 34.591,35.841 34.643,35.686C34.783,35.267 35.111,34.924 35.523,34.764C35.676,34.705 35.833,34.676 35.996,34.664C38.801,34.6 41.609,34.6 44.414,34.664ZM60.371,37.663L55.091,37.663L55.091,42.839L60.371,42.839L60.371,37.663ZM37.565,37.663L37.565,42.839L42.845,42.839L42.845,37.663C41.085,37.663 39.325,37.663 37.565,37.663ZM35.728,22.879L31.823,22.879L30.789,29.409L31.227,29.409L31.227,29.409L66.709,29.409L67.147,29.409L66.113,22.879L43.944,22.879C43.939,23.586 43.935,24.292 43.935,24.999L43.935,25.006L43.935,25.006C43.934,25.041 43.932,25.077 43.93,25.112L43.928,25.153C43.92,25.201 43.916,25.25 43.906,25.298C43.894,25.36 43.877,25.422 43.857,25.482L43.857,25.482L43.857,25.483L43.856,25.485L43.854,25.492L43.854,25.492L43.854,25.492C43.844,25.522 43.833,25.551 43.821,25.58C43.744,25.764 43.632,25.929 43.492,26.068C43.346,26.213 43.171,26.329 42.977,26.404C42.966,26.408 42.955,26.413 42.944,26.416C42.92,26.425 42.895,26.433 42.87,26.441C42.776,26.47 42.68,26.489 42.582,26.498C42.565,26.5 42.548,26.501 42.531,26.502C42.522,26.503 42.513,26.503 42.504,26.504L42.437,26.505L42.435,26.506L42.433,26.506C40.708,26.543 38.982,26.506 37.256,26.506L37.255,26.506L37.255,26.506C37.235,26.505 37.215,26.504 37.195,26.503C37.166,26.502 37.137,26.501 37.108,26.498C37.002,26.488 36.897,26.466 36.795,26.433L36.793,26.433L36.787,26.431L36.784,26.43L36.783,26.429L36.778,26.428C36.768,26.424 36.757,26.421 36.747,26.417L36.745,26.416L36.741,26.415L36.739,26.414L36.738,26.414C36.718,26.407 36.699,26.399 36.681,26.391C36.499,26.316 36.335,26.205 36.198,26.068L36.198,26.068L36.197,26.068L36.194,26.064L36.192,26.063C36.047,25.917 35.931,25.742 35.856,25.547C35.852,25.537 35.848,25.526 35.844,25.515C35.835,25.49 35.827,25.466 35.819,25.441C35.791,25.347 35.772,25.25 35.762,25.153C35.76,25.136 35.759,25.119 35.758,25.102C35.758,25.093 35.757,25.084 35.756,25.075C35.756,25.052 35.755,25.029 35.755,25.007L35.755,25.006L35.755,25.004C35.739,24.296 35.731,23.588 35.728,22.879ZM40.935,18.22L38.755,18.22L38.755,23.506L40.935,23.506L40.935,18.22Z" style="" fill="black"/></g><text x="0" y="115" fill="#000000" font-size="5px" font-weight="bold" font-family="'Helvetica Neue', Helvetica, Arial-Unicode, Arial, Sans-serif">Created by Cezary Lopacinski</text><text x="0" y="120" fill="#000000" font-size="5px" font-weight="bold" font-family="'Helvetica Neue', Helvetica, Arial-Unicode, Arial, Sans-serif">from the Noun Project</text></svg>