<svg xmlns="http://www.w3.org/2000/svg" xmlns:xlink="http://www.w3.org/1999/xlink" viewBox="0 0 100 125" version="1.1" xml:space="preserve" style="" x="0px" y="0px" fill-rule="evenodd" clip-rule="evenodd" stroke-linejoin="round" stroke-miterlimit="1.41421"><g transform="matrix(1,0,0,1,0,-6.20356)"><g><path d="M33.257,43.176C33.327,43.122 33.401,43.075 33.48,43.034C33.619,42.962 33.77,42.912 33.925,42.887C34.008,42.873 34.029,42.873 34.112,42.868L38.395,42.707C38.487,42.706 38.487,42.706 38.578,42.711C38.761,42.732 38.937,42.774 39.104,42.855C39.491,43.042 39.784,43.394 39.898,43.808C39.939,43.957 39.952,44.106 39.951,44.26L39.777,49.075L41.675,49.99L41.758,50.033C41.893,50.115 42.017,50.206 42.125,50.323C42.36,50.577 42.501,50.91 42.521,51.255C42.528,51.381 42.516,51.504 42.496,51.628L41.981,54.26L47.911,53.481L48.005,53.472C48.196,53.465 48.382,53.482 48.565,53.54C48.989,53.676 49.337,54.002 49.501,54.415C49.56,54.564 49.589,54.716 49.604,54.875L49.869,59.103C49.871,59.186 49.874,59.207 49.868,59.291C49.859,59.448 49.824,59.603 49.766,59.749C49.697,59.924 49.594,60.086 49.465,60.223C49.371,60.323 49.264,60.408 49.149,60.478L35.265,74.362L37.824,76.921C38.41,77.506 38.41,78.456 37.824,79.042L31.771,85.095C31.186,85.681 30.236,85.681 29.65,85.095L27.091,82.536L26.842,82.785C22.265,87.362 14.818,87.362 10.241,82.785C5.663,78.208 5.663,70.761 10.24,66.184L10.489,65.935L7.93,63.376C7.344,62.79 7.344,61.841 7.93,61.255L13.983,55.202C14.568,54.616 15.518,54.616 16.104,55.202L18.663,57.761L33.011,43.413C33.019,43.403 33.028,43.392 33.037,43.382C33.092,43.319 33.151,43.261 33.215,43.209L33.253,43.171L33.257,43.176ZM34.824,45.843L19.723,60.944L13.67,66.997L12.36,68.307C8.953,71.714 8.954,77.258 12.361,80.665C15.768,84.072 21.312,84.072 24.719,80.665L32.082,73.302L46.828,58.556L46.71,56.665L40.305,57.506L40.21,57.515C40.126,57.518 40.105,57.521 40.021,57.516C39.895,57.509 39.77,57.485 39.65,57.447C39.131,57.28 38.736,56.831 38.635,56.296C38.612,56.172 38.604,56.045 38.613,55.919C38.618,55.835 38.624,55.814 38.637,55.731L39.329,52.189L37.592,51.351L37.511,51.309C37.405,51.246 37.306,51.178 37.216,51.094C36.994,50.884 36.838,50.608 36.775,50.309C36.75,50.189 36.743,50.069 36.744,49.946L36.895,45.765L34.824,45.843ZM34.641,77.982L30.709,81.914L29.211,80.416L33.143,76.484L34.641,77.982ZM52.233,56.259C52.207,56.224 52.183,56.189 52.161,56.152C52.077,56.015 52.015,55.865 51.979,55.709C51.959,55.626 51.959,55.604 51.947,55.519L51.404,50.151C51.398,50.066 51.394,50.044 51.397,49.958C51.4,49.829 51.421,49.701 51.457,49.578C51.613,49.044 52.066,48.633 52.612,48.527C52.738,48.503 52.868,48.495 52.996,48.503C53.082,48.509 53.103,48.515 53.188,48.529L57.22,49.328L57.017,46.687L57.012,46.591C57.015,46.429 57.033,46.272 57.083,46.117C57.22,45.685 57.554,45.332 57.977,45.17C58.096,45.125 58.222,45.094 58.35,45.08C58.435,45.071 58.456,45.073 58.542,45.072L60.643,45.113L60.576,41.094L60.578,40.998C60.59,40.837 60.618,40.682 60.676,40.53C60.827,40.139 61.142,39.823 61.533,39.671C61.684,39.612 61.84,39.585 62.001,39.571C62.097,39.57 62.096,39.57 62.193,39.574L68.735,40.085L68.83,40.096C68.926,40.112 69.019,40.132 69.11,40.164C69.191,40.191 69.269,40.226 69.343,40.267L69.367,40.245L69.464,40.342C69.54,40.394 69.611,40.452 69.676,40.517C69.743,40.584 69.804,40.657 69.857,40.735L79.2,50.077L81.759,47.518C82.345,46.932 83.294,46.932 83.88,47.518L89.934,53.572C90.52,54.158 90.52,55.107 89.934,55.693L87.375,58.252L89.76,60.637C94.337,65.214 94.337,72.662 89.76,77.239C85.183,81.817 77.736,81.816 73.159,77.239L70.774,74.854L68.215,77.413C67.63,77.999 66.68,77.999 66.094,77.413L60.04,71.359C59.454,70.773 59.454,69.824 60.04,69.238L62.599,66.679L52.204,56.285L52.233,56.259ZM67.909,43.03L63.603,42.693L63.668,46.618L63.667,46.715C63.654,46.876 63.626,47.032 63.567,47.184C63.404,47.608 63.048,47.94 62.614,48.075C62.459,48.124 62.301,48.141 62.139,48.143L60.135,48.104L60.363,51.069L60.367,51.164C60.366,51.248 60.367,51.27 60.358,51.354C60.343,51.48 60.313,51.605 60.267,51.723C60.082,52.204 59.651,52.563 59.144,52.658C59.019,52.681 58.892,52.689 58.765,52.68C58.68,52.674 58.659,52.669 58.576,52.655L54.593,51.865L54.882,54.72L65.78,65.618L75.28,75.118C78.688,78.525 84.232,78.525 87.639,75.118C91.046,71.711 91.046,66.166 87.639,62.759L78.139,53.259L67.909,43.03ZM67.154,74.231L63.222,70.299L64.72,68.801L68.652,72.733L67.154,74.231ZM22.86,71.838C23.383,71.841 23.806,72.266 23.806,72.79C23.806,73.313 23.383,73.738 22.86,73.742L22.854,73.742C22.329,73.742 21.902,73.315 21.902,72.79C21.902,72.264 22.329,71.838 22.854,71.838L22.86,71.838ZM20.241,69.219C20.764,69.222 21.187,69.647 21.187,70.171C21.187,70.694 20.764,71.119 20.241,71.123L20.235,71.123C19.71,71.123 19.283,70.696 19.283,70.171C19.283,69.645 19.71,69.219 20.235,69.219L20.241,69.219ZM25.523,69.175C26.046,69.178 26.469,69.603 26.469,70.127C26.469,70.65 26.046,71.075 25.523,71.079L25.517,71.079C24.992,71.079 24.565,70.652 24.565,70.127C24.565,69.601 24.992,69.175 25.517,69.175L25.523,69.175ZM22.904,66.556C23.427,66.559 23.85,66.984 23.85,67.508C23.85,68.031 23.427,68.456 22.904,68.46L22.898,68.46C22.373,68.46 21.946,68.033 21.946,67.508C21.946,66.982 22.373,66.556 22.898,66.556L22.904,66.556ZM75.962,65.106C75.962,65.632 75.535,66.058 75.01,66.058C74.484,66.058 74.058,65.632 74.058,65.106C74.058,64.581 74.484,64.154 75.01,64.154C75.535,64.154 75.962,64.581 75.962,65.106ZM11.111,62.315L15.043,58.383L16.541,59.881L12.609,63.813L11.111,62.315ZM78.581,62.487C78.581,63.013 78.154,63.439 77.629,63.439C77.103,63.439 76.677,63.013 76.677,62.487C76.677,61.962 77.103,61.535 77.629,61.535C78.154,61.535 78.581,61.962 78.581,62.487ZM73.299,62.443C73.299,62.969 72.872,63.395 72.347,63.395C71.821,63.395 71.395,62.969 71.395,62.443C71.395,61.918 71.821,61.491 72.347,61.491C72.872,61.491 73.299,61.918 73.299,62.443ZM75.918,59.824C75.918,60.35 75.491,60.776 74.966,60.776C74.44,60.776 74.014,60.35 74.014,59.824C74.014,59.299 74.44,58.872 74.966,58.872C75.491,58.872 75.918,59.299 75.918,59.824ZM82.821,50.7L86.753,54.632L85.255,56.13L81.323,52.198L82.821,50.7ZM48.439,26.19C48.577,26.201 48.709,26.221 48.841,26.264C49.233,26.393 49.56,26.685 49.733,27.06C49.806,27.217 49.844,27.38 49.865,27.552L51.494,45.304C51.499,45.395 51.503,45.418 51.498,45.509C51.491,45.679 51.454,45.848 51.389,46.007C51.312,46.196 51.196,46.37 51.049,46.513C50.951,46.609 50.841,46.691 50.721,46.756C50.266,47.006 49.7,47 49.251,46.74C49.103,46.655 48.97,46.544 48.859,46.414C48.703,46.232 48.593,46.013 48.539,45.78C48.518,45.691 48.518,45.668 48.506,45.578L46.878,27.826C46.868,27.653 46.875,27.486 46.918,27.318C47.029,26.884 47.336,26.515 47.742,26.327C47.9,26.254 48.063,26.217 48.234,26.195C48.337,26.189 48.337,26.189 48.439,26.19ZM39.493,33.581C39.625,33.592 39.752,33.613 39.878,33.655C40.127,33.737 40.352,33.886 40.526,34.082C40.597,34.16 40.655,34.246 40.709,34.336C42.544,37.767 44.2,41.291 45.945,44.768C45.978,44.84 46.009,44.911 46.033,44.986C46.081,45.136 46.105,45.293 46.104,45.45C46.103,45.634 46.068,45.817 46.001,45.987C45.934,46.158 45.836,46.316 45.712,46.452C45.606,46.568 45.482,46.667 45.346,46.745C44.884,47.007 44.304,47.004 43.846,46.735C43.687,46.643 43.547,46.521 43.432,46.378C43.383,46.316 43.341,46.25 43.3,46.183C41.465,42.752 39.809,39.228 38.065,35.751C37.975,35.559 37.917,35.36 37.907,35.147C37.886,34.699 38.073,34.255 38.409,33.957C38.507,33.87 38.616,33.796 38.733,33.737C38.923,33.642 39.125,33.595 39.336,33.58C39.416,33.578 39.415,33.578 39.493,33.581ZM60.805,27.694C60.885,27.699 60.906,27.698 60.985,27.71C61.135,27.733 61.28,27.779 61.416,27.845C61.912,28.088 62.241,28.598 62.256,29.15C62.261,29.301 62.242,29.453 62.201,29.598C62.18,29.676 62.171,29.694 62.142,29.769L56.323,43.748C56.29,43.821 56.283,43.84 56.243,43.91C56.154,44.068 56.036,44.209 55.896,44.325C55.757,44.441 55.596,44.531 55.425,44.59C55.282,44.639 55.132,44.666 54.981,44.67C54.83,44.675 54.678,44.656 54.533,44.615C54.001,44.466 53.586,44.023 53.471,43.483C53.427,43.276 53.427,43.06 53.472,42.854C53.491,42.764 53.521,42.68 53.553,42.595L59.372,28.616C59.422,28.505 59.478,28.4 59.551,28.302C59.73,28.058 59.984,27.872 60.27,27.774C60.386,27.734 60.503,27.713 60.624,27.699C60.715,27.693 60.714,27.693 60.805,27.694Z" style="" fill="black"/></g></g><text x="0" y="115" fill="#000000" font-size="5px" font-weight="bold" font-family="'Helvetica Neue', Helvetica, Arial-Unicode, Arial, Sans-serif">Created by Cezary Lopacinski</text><text x="0" y="120" fill="#000000" font-size="5px" font-weight="bold" font-family="'Helvetica Neue', Helvetica, Arial-Unicode, Arial, Sans-serif">from the Noun Project</text></svg>