<svg xmlns="http://www.w3.org/2000/svg" xmlns:xlink="http://www.w3.org/1999/xlink" version="1.1" x="0px" y="0px" viewBox="0 0 100 125" enable-background="new 0 0 100 100" xml:space="preserve"><g><path d="M72.003,49.717c0.586,0.586,1.535,0.586,2.121,0l6.054-6.054c0.586-0.586,0.586-1.536,0-2.121l-2.559-2.559l2.385-2.385   c4.577-4.577,4.578-12.024,0-16.601c-4.577-4.577-12.025-4.577-16.602,0l-2.385,2.385l-2.559-2.559   c-0.586-0.586-1.535-0.586-2.121,0l-6.054,6.054c-0.586,0.586-0.586,1.535,0,2.121l2.559,2.559L28.42,54.979l-2.559-2.559   c-0.586-0.586-1.536-0.586-2.121,0l-6.053,6.053c-0.586,0.586-0.586,1.535,0,2.121l2.559,2.559l-0.249,0.249   c-4.577,4.577-4.577,12.024,0.001,16.601c4.577,4.577,12.024,4.577,16.601,0l0.249-0.249l2.559,2.559   c0.586,0.586,1.536,0.586,2.121,0l6.053-6.053c0.586-0.586,0.586-1.536,0-2.121l-2.559-2.559l24.422-24.422L72.003,49.717z    M76.996,42.603l-3.932,3.932l-1.498-1.498l3.932-3.932L76.996,42.603z M53.465,26.936l3.932-3.932l1.498,1.498l-3.932,3.932   L53.465,26.936z M20.868,59.533l3.932-3.932l1.498,1.498l-3.932,3.932L20.868,59.533z M34.476,77.883   c-3.407,3.407-8.951,3.407-12.358,0s-3.408-8.951-0.001-12.358l1.31-1.31l6.053-6.053l26.544-26.544l6.054-6.054l3.446-3.446   c3.407-3.407,8.952-3.407,12.359,0s3.407,8.951,0,12.359l-3.446,3.446l-6.054,6.054L41.839,70.52l-6.053,6.053L34.476,77.883z    M44.398,75.2l-3.932,3.932l-1.498-1.498l3.932-3.932L44.398,75.2z"/><circle cx="65.252" cy="32.128" r="0.952"/><circle cx="67.871" cy="34.747" r="0.952"/><circle cx="62.589" cy="34.791" r="0.952"/><circle cx="65.208" cy="37.41" r="0.952"/><circle cx="32.655" cy="64.726" r="0.952"/><circle cx="35.274" cy="67.345" r="0.952"/><circle cx="29.992" cy="67.389" r="0.952"/><circle cx="32.611" cy="70.008" r="0.952"/></g><text x="0" y="115" fill="#000000" font-size="5px" font-weight="bold" font-family="'Helvetica Neue', Helvetica, Arial-Unicode, Arial, Sans-serif">Created by Cezary Lopacinski</text><text x="0" y="120" fill="#000000" font-size="5px" font-weight="bold" font-family="'Helvetica Neue', Helvetica, Arial-Unicode, Arial, Sans-serif">from the Noun Project</text></svg>