<svg xmlns="http://www.w3.org/2000/svg" xmlns:xlink="http://www.w3.org/1999/xlink" viewBox="0 0 100 125" version="1.1" xml:space="preserve" style="" x="0px" y="0px" fill-rule="evenodd" clip-rule="evenodd" stroke-linejoin="round" stroke-miterlimit="1.41421"><g transform="matrix(1,0,0,1,-3.30817,2.875)"><path d="M84.566,26.309C85.718,25.523 87.018,24.957 88.38,24.655C89.047,24.507 89.725,24.425 90.407,24.399C90.574,24.395 90.74,24.393 90.907,24.394C91.596,24.406 92.282,24.474 92.959,24.61C94.345,24.889 95.673,25.439 96.851,26.22C97.192,26.445 97.52,26.69 97.834,26.952C97.978,27.072 98.13,27.192 98.253,27.335C98.343,27.442 98.419,27.56 98.477,27.687C98.564,27.878 98.611,28.087 98.613,28.296C98.614,28.436 98.596,28.576 98.559,28.71C98.427,29.187 98.059,29.575 97.59,29.733C97.425,29.788 97.25,29.815 97.075,29.81C96.831,29.804 96.589,29.737 96.376,29.617C96.295,29.571 96.277,29.556 96.201,29.502C96.08,29.402 95.963,29.298 95.842,29.198C95.236,28.709 94.568,28.303 93.849,28.004C92.441,27.418 90.871,27.25 89.37,27.516C88.807,27.615 88.26,27.777 87.731,27.991L87.653,28.024L87.582,28.054C87.698,28.151 87.697,28.151 87.811,28.249C88.188,28.586 88.544,28.943 88.872,29.328C89.129,29.63 89.368,29.948 89.589,30.277L89.593,30.282C89.7,30.443 89.803,30.606 89.901,30.772C90.057,31.035 90.201,31.305 90.332,31.581L90.337,31.591C90.46,31.849 90.573,32.112 90.674,32.38C90.797,32.705 90.903,33.037 90.993,33.373L91.011,33.443L91.014,33.453C91.025,33.496 91.036,33.539 91.046,33.581L91.056,33.62C91.062,33.645 91.068,33.671 91.074,33.696L91.08,33.725C91.13,33.94 91.172,34.158 91.208,34.377L91.21,34.39L91.212,34.406C91.217,34.435 91.221,34.463 91.226,34.492C91.298,34.548 91.369,34.605 91.439,34.663L91.443,34.666C91.515,34.725 91.585,34.785 91.655,34.847L91.658,34.85C91.836,35.005 92.007,35.168 92.172,35.336C92.361,35.529 92.542,35.731 92.713,35.939C92.783,36.023 92.85,36.108 92.917,36.194C93.297,36.69 93.627,37.223 93.901,37.783L93.912,37.807C94.138,38.272 94.326,38.755 94.472,39.252C94.51,39.38 94.545,39.509 94.577,39.639C94.604,39.747 94.628,39.855 94.651,39.963C94.677,40.085 94.7,40.208 94.72,40.331C94.82,40.921 94.863,41.52 94.849,42.118L94.849,42.119L94.849,42.121C94.848,42.157 94.847,42.192 94.846,42.228L94.846,42.229L94.846,42.229C94.845,42.263 94.843,42.297 94.842,42.332C94.941,42.273 95.038,42.212 95.135,42.15C95.714,41.77 96.239,41.323 96.707,40.815L96.781,40.74C96.851,40.679 96.867,40.661 96.943,40.607C97.142,40.466 97.376,40.375 97.619,40.343C98.109,40.28 98.61,40.469 98.937,40.84C99.029,40.945 99.106,41.062 99.166,41.189C99.241,41.346 99.288,41.517 99.304,41.691C99.324,41.9 99.299,42.112 99.232,42.311C99.176,42.476 99.091,42.631 98.982,42.768C98.897,42.874 98.799,42.972 98.704,43.071C98.462,43.321 98.208,43.561 97.943,43.788C97.01,44.588 95.943,45.23 94.799,45.68C94.509,45.794 94.215,45.894 93.917,45.982C93.61,46.615 93.232,47.213 92.792,47.762L92.792,68.357C92.788,68.468 92.78,68.575 92.756,68.683C92.693,68.969 92.544,69.234 92.333,69.437C92.228,69.538 92.108,69.624 91.978,69.691C91.848,69.758 91.708,69.805 91.565,69.832C91.093,69.919 90.596,69.77 90.251,69.437C90.119,69.31 90.011,69.159 89.934,68.994C89.872,68.861 89.829,68.72 89.808,68.575C89.794,68.479 89.796,68.454 89.792,68.357L89.792,50.226C89.053,50.611 88.263,50.896 87.449,51.071L87.449,64.256C87.447,64.349 87.441,64.44 87.424,64.531C87.384,64.743 87.298,64.946 87.174,65.122C87.085,65.248 86.976,65.36 86.853,65.453C86.404,65.792 85.785,65.85 85.281,65.598C85.143,65.53 85.016,65.44 84.905,65.333C84.772,65.204 84.664,65.051 84.587,64.883C84.522,64.743 84.48,64.593 84.461,64.44C84.451,64.359 84.452,64.338 84.449,64.256L84.449,51.225C83.771,51.151 83.101,51.004 82.454,50.784L82.454,66.245C82.451,66.345 82.452,66.37 82.438,66.469C82.415,66.617 82.371,66.761 82.306,66.896C82.225,67.065 82.112,67.217 81.975,67.345C81.614,67.679 81.1,67.817 80.621,67.708C80.475,67.674 80.334,67.619 80.204,67.544C80.075,67.469 79.957,67.375 79.855,67.265C79.676,67.073 79.55,66.835 79.492,66.579C79.467,66.468 79.459,66.358 79.454,66.245L79.454,52.21C78.856,52.546 78.221,52.816 77.563,53.013C77.059,53.165 76.542,53.273 76.02,53.337C76.083,56.975 75.993,60.616 75.993,64.256C75.991,64.34 75.986,64.423 75.972,64.507C75.935,64.728 75.847,64.941 75.717,65.124C75.619,65.261 75.499,65.382 75.361,65.479C74.944,65.775 74.392,65.837 73.919,65.642C73.79,65.588 73.668,65.516 73.558,65.429C73.405,65.306 73.276,65.153 73.181,64.981C73.099,64.834 73.043,64.673 73.015,64.507C73.002,64.433 73.002,64.414 72.996,64.34C72.892,60.635 72.976,56.926 72.991,53.219C72.232,53.065 71.493,52.816 70.795,52.479C70.184,52.184 69.606,51.822 69.073,51.403L69.073,64.256C69.07,64.349 69.065,64.44 69.047,64.531C69.008,64.743 68.922,64.946 68.797,65.122C68.708,65.248 68.6,65.36 68.477,65.453C68.027,65.792 67.409,65.85 66.904,65.598C66.766,65.53 66.639,65.44 66.529,65.333C66.396,65.204 66.287,65.051 66.21,64.883C66.146,64.743 66.103,64.593 66.084,64.44C66.074,64.359 66.075,64.338 66.073,64.256L66.073,60.112L56.137,60.112L56.137,62.86C56.134,62.909 56.134,62.958 56.129,63.007C56.12,63.104 56.101,63.201 56.072,63.295C55.943,63.721 55.622,64.075 55.211,64.245C55.075,64.302 54.93,64.338 54.784,64.352C54.735,64.357 54.686,64.357 54.637,64.36L15.625,64.36C15.576,64.357 15.527,64.357 15.478,64.352C15.332,64.338 15.188,64.302 15.051,64.245C14.64,64.075 14.319,63.721 14.19,63.295C14.162,63.201 14.142,63.104 14.133,63.007C14.128,62.958 14.128,62.909 14.125,62.86L14.125,60.13C12.331,60.154 10.537,60.148 8.743,60.111C8.496,60.096 8.259,60.032 8.045,59.906C7.922,59.834 7.809,59.744 7.712,59.64C7.328,59.232 7.203,58.629 7.394,58.102C7.456,57.93 7.55,57.769 7.671,57.63C7.791,57.491 7.937,57.375 8.099,57.289C8.299,57.182 8.517,57.127 8.743,57.114C10.537,57.077 12.331,57.071 14.125,57.095L14.125,41.45L14.126,41.45C14.126,41.402 14.128,41.353 14.133,41.305L14.133,41.303C14.133,41.296 14.134,41.289 14.135,41.282L14.135,41.28L14.135,41.279C14.141,41.23 14.149,41.182 14.159,41.134L14.159,41.134L16.159,31.872C16.172,31.826 16.182,31.778 16.197,31.732C16.226,31.639 16.265,31.55 16.312,31.465C16.5,31.123 16.821,30.864 17.195,30.752C17.288,30.724 17.384,30.705 17.48,30.696C17.528,30.691 17.577,30.691 17.625,30.689L22.328,30.689C22.336,29.546 22.347,28.404 22.347,27.261C22.351,27.098 22.373,26.939 22.425,26.784C22.565,26.365 22.892,26.022 23.305,25.862C23.457,25.803 23.615,25.774 23.778,25.763C25.55,25.722 27.324,25.722 29.096,25.763C29.259,25.774 29.416,25.803 29.569,25.862C29.959,26.013 30.274,26.329 30.426,26.719C30.485,26.871 30.514,27.029 30.525,27.192C30.552,28.357 30.557,29.523 30.553,30.689L52.637,30.689L52.782,30.696C52.83,30.703 52.878,30.71 52.926,30.717C53.051,30.748 53.084,30.752 53.204,30.801C53.52,30.929 53.786,31.166 53.95,31.465C53.997,31.55 54.036,31.639 54.065,31.732C54.08,31.778 54.09,31.826 54.103,31.872L56.103,41.134L56.103,41.134C56.113,41.182 56.121,41.23 56.127,41.279L56.13,41.305C56.134,41.353 56.137,41.402 56.137,41.45L56.137,41.45L56.137,57.108C59.449,57.09 62.762,57.025 66.073,57.079L66.073,51.16C65.372,51.047 64.685,50.855 64.027,50.586C62.944,50.144 61.948,49.496 61.101,48.689C60.284,47.91 59.608,46.984 59.118,45.966C58.699,45.097 58.416,44.164 58.282,43.209C58.144,42.225 58.163,41.219 58.338,40.24C58.493,39.369 58.774,38.522 59.168,37.729C60.109,35.836 61.693,34.29 63.609,33.395C64.412,33.019 65.269,32.759 66.146,32.625C66.579,32.559 67.015,32.526 67.452,32.518C67.573,32.517 67.573,32.517 67.694,32.518C68.131,32.526 68.567,32.559 68.999,32.625C69.675,32.729 70.339,32.907 70.976,33.155C71.081,32.796 71.204,32.443 71.346,32.097C71.926,30.692 72.817,29.42 73.938,28.393C74.973,27.444 76.199,26.708 77.524,26.244C78.225,25.998 78.951,25.829 79.688,25.739C80.066,25.693 80.445,25.67 80.826,25.663C80.957,25.663 80.957,25.663 81.088,25.664C81.485,25.671 81.881,25.696 82.275,25.746C83.057,25.846 83.827,26.035 84.566,26.309ZM17.125,42.95L17.125,61.36L53.137,61.36L53.137,42.95C41.133,42.95 29.129,42.95 17.125,42.95ZM48.59,45.206C48.753,45.217 48.91,45.246 49.063,45.305C49.453,45.457 49.768,45.772 49.92,46.162C49.979,46.315 50.008,46.472 50.019,46.635C50.083,49.382 50.021,52.131 50.021,54.88C50.017,55.043 49.995,55.202 49.943,55.356C49.803,55.776 49.476,56.119 49.063,56.279C48.91,56.338 48.753,56.367 48.59,56.378C45.808,56.442 43.024,56.38 40.241,56.38C40.078,56.376 39.919,56.354 39.764,56.302C39.345,56.161 39.002,55.834 38.842,55.422C38.783,55.269 38.754,55.112 38.742,54.949C38.679,52.201 38.741,49.452 38.741,46.704C38.745,46.541 38.767,46.382 38.819,46.227C38.959,45.808 39.286,45.465 39.699,45.305C39.851,45.246 40.009,45.217 40.172,45.206C42.977,45.141 45.785,45.141 48.59,45.206ZM31.007,45.206C31.169,45.217 31.327,45.246 31.479,45.305C31.87,45.457 32.185,45.772 32.336,46.162C32.395,46.315 32.424,46.472 32.436,46.635C32.499,49.382 32.437,52.131 32.437,54.88C32.434,55.043 32.412,55.202 32.36,55.356C32.219,55.776 31.892,56.119 31.479,56.279C31.327,56.338 31.169,56.367 31.007,56.378C28.224,56.442 25.44,56.38 22.657,56.38C22.494,56.376 22.336,56.354 22.181,56.302C21.761,56.161 21.418,55.834 21.259,55.422C21.2,55.269 21.17,55.112 21.159,54.949C21.095,52.201 21.157,49.452 21.157,46.704C21.161,46.541 21.183,46.382 21.235,46.227C21.376,45.808 21.703,45.465 22.115,45.305C22.268,45.246 22.425,45.217 22.588,45.206C25.393,45.141 28.201,45.141 31.007,45.206ZM24.157,48.204L24.157,53.38L29.437,53.38L29.437,48.204C27.677,48.204 25.917,48.204 24.157,48.204ZM47.021,48.204L41.741,48.204L41.741,53.38L47.021,53.38L47.021,48.204ZM76.302,45.34C76.29,45.371 76.278,45.401 76.265,45.432L76.259,45.447L76.254,45.459C76.184,45.63 76.109,45.8 76.028,45.966C75.887,46.259 75.73,46.545 75.559,46.822C75.519,46.887 75.478,46.952 75.436,47.016C75.179,47.41 74.893,47.784 74.58,48.135L74.578,48.137L74.575,48.141L74.571,48.145L74.567,48.15C74.4,48.336 74.226,48.516 74.045,48.689C73.976,48.754 73.907,48.818 73.837,48.881L73.829,48.888L73.824,48.893L73.823,48.893L73.823,48.894C73.697,49.006 73.569,49.115 73.437,49.221C73.384,49.263 73.331,49.304 73.278,49.345C73.016,49.546 72.745,49.733 72.464,49.905C72.453,49.912 72.441,49.918 72.43,49.925C72.534,49.969 72.639,50.008 72.745,50.046C73.17,50.193 73.606,50.299 74.052,50.356C75.222,50.505 76.427,50.328 77.501,49.84C78.073,49.58 78.598,49.235 79.072,48.824L79.108,48.792C79.063,48.75 79.018,48.708 78.974,48.665L78.962,48.655L78.956,48.649L78.952,48.644L78.944,48.637L78.94,48.633L78.938,48.63C78.911,48.605 78.885,48.579 78.859,48.554C78.838,48.533 78.818,48.512 78.798,48.492C78.748,48.442 78.7,48.392 78.652,48.341C78.628,48.316 78.605,48.291 78.582,48.267C78.562,48.245 78.543,48.223 78.523,48.202C78.229,47.878 77.958,47.534 77.712,47.173C77.674,47.118 77.637,47.062 77.6,47.006C77.587,46.986 77.574,46.965 77.561,46.945C77.483,46.823 77.408,46.699 77.335,46.573C77.207,46.35 77.088,46.122 76.979,45.89C76.946,45.82 76.914,45.75 76.882,45.679L76.844,45.592C76.724,45.541 76.605,45.487 76.487,45.43L76.483,45.428L76.478,45.426C76.447,45.411 76.416,45.396 76.385,45.381L76.384,45.38L76.382,45.379C76.355,45.366 76.329,45.353 76.302,45.34ZM71.303,36.723C71.02,36.518 70.72,36.336 70.407,36.18C69.869,35.913 69.294,35.723 68.703,35.617C68.411,35.565 68.117,35.535 67.82,35.522C67.71,35.518 67.6,35.517 67.49,35.518C67.192,35.523 66.895,35.546 66.6,35.591C66.005,35.682 65.424,35.858 64.878,36.113C63.621,36.7 62.572,37.701 61.924,38.928C61.645,39.457 61.441,40.026 61.321,40.612C61.174,41.328 61.152,42.069 61.253,42.792C61.34,43.415 61.521,44.024 61.787,44.593C62.113,45.291 62.565,45.927 63.116,46.464C63.685,47.02 64.358,47.469 65.091,47.78C65.849,48.1 66.667,48.27 67.49,48.28C68.005,48.287 68.519,48.231 69.02,48.115C69.069,48.103 69.118,48.092 69.166,48.08C69.19,48.074 69.213,48.068 69.236,48.061C69.5,47.988 69.759,47.902 70.012,47.798C70.125,47.751 70.236,47.701 70.345,47.648L70.348,47.647L70.371,47.635L70.372,47.635L70.372,47.635L70.393,47.625L70.403,47.62L70.412,47.615L70.422,47.61L70.438,47.602L70.439,47.601C70.86,47.389 71.256,47.13 71.62,46.831L71.634,46.82L71.638,46.816L71.641,46.814C71.96,46.55 72.253,46.255 72.515,45.935L72.518,45.93L72.534,45.911L72.542,45.901L72.55,45.891C72.743,45.651 72.919,45.397 73.076,45.131L73.087,45.112L73.089,45.108C73.288,44.767 73.455,44.407 73.588,44.035L73.59,44.029L73.592,44.023C73.724,43.649 73.821,43.264 73.881,42.872L73.881,42.871L73.885,42.842L73.886,42.836C73.891,42.807 73.895,42.778 73.899,42.748C73.91,42.648 73.922,42.548 73.931,42.448C73.976,41.867 73.952,41.284 73.844,40.711C73.838,40.68 73.832,40.649 73.826,40.619C73.825,40.618 73.825,40.615 73.825,40.614C73.654,39.777 73.31,38.98 72.826,38.278C72.546,37.873 72.219,37.501 71.855,37.17C71.679,37.012 71.494,36.863 71.303,36.723ZM91.01,38.732L90.998,38.71C90.993,38.73 90.987,38.75 90.982,38.769C90.973,38.801 90.965,38.832 90.956,38.863C90.909,39.029 90.859,39.193 90.804,39.356C90.774,39.445 90.743,39.533 90.711,39.622C90.638,39.82 90.56,40.016 90.475,40.209C90.441,40.287 90.406,40.364 90.371,40.44C90.327,40.534 90.282,40.626 90.235,40.719L90.234,40.72L90.231,40.727L90.225,40.74L90.223,40.744L90.22,40.749L90.213,40.763L90.211,40.767L90.21,40.768C90.094,40.996 89.969,41.219 89.837,41.437C89.598,41.83 89.333,42.206 89.045,42.563C88.76,42.918 88.45,43.254 88.12,43.569C87.985,43.698 87.847,43.823 87.705,43.944L87.705,43.944L87.702,43.947L87.688,43.959L87.686,43.96C87.518,44.103 87.346,44.241 87.169,44.373C86.7,44.724 86.202,45.035 85.681,45.302L85.678,45.303L85.676,45.304L85.674,45.305L85.665,45.31C85.333,45.479 84.992,45.631 84.644,45.763C84.566,45.793 84.488,45.821 84.41,45.849C84.288,45.892 84.165,45.933 84.042,45.971C83.708,46.075 83.37,46.161 83.028,46.23C82.939,46.25 82.849,46.269 82.759,46.282C82.696,46.295 82.632,46.303 82.569,46.313C82.531,46.319 82.492,46.325 82.454,46.331L82.454,47.524C82.723,47.668 83.001,47.793 83.288,47.898C84.516,48.345 85.879,48.401 87.141,48.06C87.839,47.87 88.504,47.56 89.099,47.148C89.709,46.725 90.244,46.196 90.674,45.591C90.991,45.146 91.25,44.661 91.443,44.15C91.479,44.049 91.516,43.948 91.549,43.845L91.551,43.841C91.679,43.432 91.769,43.013 91.815,42.588L91.815,42.584L91.815,42.584C91.839,42.363 91.851,42.14 91.852,41.918L91.852,41.901L91.852,41.895L91.852,41.889L91.852,41.865L91.852,41.861C91.849,41.505 91.818,41.149 91.757,40.799L91.756,40.791L91.752,40.773L91.749,40.754L91.748,40.749C91.698,40.474 91.63,40.203 91.544,39.938L91.543,39.935L91.542,39.929C91.48,39.74 91.41,39.554 91.331,39.372C91.24,39.163 91.138,38.96 91.027,38.761L91.012,38.735L91.01,38.732ZM84.127,29.378C83.564,29.109 82.966,28.913 82.353,28.795C81.986,28.725 81.614,28.685 81.241,28.668C81.115,28.664 80.989,28.663 80.863,28.663C80.063,28.678 79.271,28.811 78.516,29.075C77.653,29.377 76.85,29.841 76.156,30.435C75.422,31.063 74.812,31.834 74.372,32.695C74.041,33.34 73.813,34.031 73.682,34.743L73.676,34.776C73.758,34.845 73.838,34.917 73.917,34.989C74.018,35.084 74.018,35.083 74.118,35.179C74.144,35.205 74.17,35.231 74.196,35.257C74.279,35.335 74.356,35.42 74.434,35.503C74.606,35.688 74.771,35.879 74.927,36.077C75.021,36.194 75.111,36.313 75.199,36.435C75.369,36.673 75.529,36.919 75.677,37.172C75.783,37.354 75.884,37.54 75.978,37.729C76.041,37.857 76.102,37.985 76.159,38.115C76.218,38.248 76.273,38.382 76.326,38.518C76.372,38.636 76.415,38.755 76.456,38.876C76.526,39.082 76.589,39.292 76.645,39.503L76.658,39.553C76.698,39.705 76.733,39.859 76.765,40.014C76.789,40.135 76.812,40.256 76.832,40.378L76.843,40.45L76.854,40.52L76.865,40.596L76.874,40.664L76.883,40.731L76.891,40.799L76.898,40.867L76.904,40.915C76.95,41.361 76.965,41.81 76.948,42.258L76.95,42.259C77.448,42.578 77.981,42.84 78.539,43.034C78.629,43.064 78.719,43.094 78.81,43.122C78.818,43.123 78.83,43.123 78.83,43.128L78.87,43.141C79.607,43.353 80.371,43.454 81.136,43.436C81.553,43.425 81.966,43.38 82.376,43.302C82.693,43.24 83.007,43.157 83.314,43.054C83.549,42.974 83.78,42.883 84.006,42.78L84.008,42.779L84.027,42.771L84.04,42.764L84.044,42.763C84.998,42.322 85.852,41.677 86.54,40.884C86.739,40.654 86.924,40.412 87.094,40.159L87.098,40.153L87.1,40.149C87.364,39.755 87.59,39.335 87.773,38.898L87.774,38.896L87.778,38.886C87.917,38.551 88.032,38.206 88.12,37.855C88.316,37.071 88.378,36.259 88.318,35.451C88.312,35.382 88.306,35.312 88.299,35.243L88.298,35.241L88.298,35.239C88.233,34.688 88.115,34.148 87.934,33.625C87.824,33.309 87.692,33 87.54,32.702C87.14,31.92 86.601,31.211 85.955,30.616C85.746,30.422 85.525,30.241 85.295,30.074C84.927,29.807 84.536,29.577 84.127,29.378ZM22.322,33.689L18.836,33.689L17.484,39.95L52.778,39.95L51.426,33.689L30.534,33.689C30.53,34.307 30.527,34.925 30.527,35.542L30.527,35.547L30.527,35.547C30.526,35.582 30.525,35.618 30.522,35.653L30.52,35.694C30.513,35.742 30.508,35.791 30.498,35.839C30.486,35.901 30.47,35.962 30.45,36.022L30.449,36.023L30.449,36.024L30.448,36.026L30.446,36.032L30.446,36.033L30.446,36.034C30.436,36.063 30.425,36.092 30.413,36.121C30.338,36.302 30.227,36.466 30.09,36.604L30.09,36.604L30.089,36.604L30.086,36.608L30.085,36.609C29.939,36.754 29.763,36.87 29.569,36.945C29.558,36.95 29.547,36.954 29.536,36.958C29.512,36.966 29.487,36.975 29.462,36.982C29.368,37.011 29.272,37.03 29.174,37.039C29.157,37.041 29.141,37.042 29.124,37.043C29.115,37.044 29.105,37.044 29.096,37.045L29.029,37.047L29.027,37.047L29.025,37.047C27.299,37.084 25.573,37.047 23.847,37.047C23.827,37.046 23.807,37.046 23.787,37.044C23.758,37.043 23.729,37.042 23.7,37.039C23.602,37.03 23.505,37.011 23.411,36.982C23.403,36.98 23.395,36.977 23.386,36.974L23.385,36.974L23.383,36.973L23.382,36.973L23.376,36.971L23.37,36.969C23.153,36.896 22.957,36.774 22.796,36.615L22.795,36.615L22.794,36.613L22.79,36.609L22.789,36.608L22.788,36.608L22.784,36.603L22.783,36.602L22.782,36.602C22.646,36.465 22.536,36.301 22.461,36.121L22.46,36.118L22.46,36.117L22.458,36.112L22.456,36.108L22.455,36.106L22.452,36.098L22.451,36.096L22.451,36.095L22.45,36.093L22.448,36.089L22.447,36.086L22.446,36.082L22.444,36.077L22.443,36.074L22.442,36.073C22.397,35.951 22.367,35.823 22.354,35.694C22.352,35.677 22.351,35.66 22.351,35.643C22.35,35.634 22.349,35.625 22.348,35.616C22.348,35.593 22.347,35.571 22.347,35.548L22.347,35.547L22.347,35.545C22.333,34.927 22.325,34.308 22.322,33.689ZM27.527,34.047L27.527,28.761C26.8,28.761 26.074,28.761 25.347,28.761L25.347,34.047L27.527,34.047Z" style="" fill="black"/></g><text x="0" y="115" fill="#000000" font-size="5px" font-weight="bold" font-family="'Helvetica Neue', Helvetica, Arial-Unicode, Arial, Sans-serif">Created by Cezary Lopacinski</text><text x="0" y="120" fill="#000000" font-size="5px" font-weight="bold" font-family="'Helvetica Neue', Helvetica, Arial-Unicode, Arial, Sans-serif">from the Noun Project</text></svg>