<svg xmlns="http://www.w3.org/2000/svg" xmlns:xlink="http://www.w3.org/1999/xlink" viewBox="0 0 100 125" version="1.1" xml:space="preserve" style="" x="0px" y="0px" fill-rule="evenodd" clip-rule="evenodd" stroke-linejoin="round" stroke-miterlimit="1.41421"><g transform="matrix(1,0,0,1,-0.00684027,-2.44642)"><path d="M59,27.014C59.045,27.013 59.09,27.014 59.135,27.013C59.19,27.018 59.244,27.023 59.298,27.029C59.352,27.04 59.406,27.048 59.459,27.062C59.565,27.089 59.668,27.129 59.765,27.179C59.888,27.243 60.001,27.323 60.101,27.417L77.644,37.202C77.764,37.277 77.797,37.292 77.904,37.386C78.144,37.597 78.312,37.884 78.38,38.196C78.41,38.335 78.406,38.371 78.413,38.512L78.413,76.38C78.41,76.434 78.41,76.489 78.404,76.543C78.387,76.707 78.342,76.867 78.272,77.016C78.202,77.164 78.108,77.301 77.994,77.42C77.688,77.738 77.247,77.907 76.807,77.876C76.643,77.864 76.482,77.825 76.33,77.762C76.28,77.74 76.232,77.714 76.183,77.69L59.032,68.123L41.88,77.69C41.831,77.714 41.783,77.74 41.733,77.762C41.582,77.825 41.42,77.864 41.256,77.876C41.2,77.88 41.145,77.881 41.089,77.878C41.033,77.881 40.977,77.88 40.922,77.876C40.758,77.864 40.596,77.825 40.445,77.762C40.394,77.74 40.346,77.714 40.297,77.69L22.37,67.69C22.25,67.614 22.216,67.6 22.11,67.506C21.87,67.295 21.701,67.008 21.634,66.696C21.604,66.557 21.608,66.521 21.6,66.38L21.6,28.512C21.603,28.458 21.603,28.403 21.609,28.348C21.621,28.239 21.645,28.132 21.68,28.028C21.823,27.611 22.15,27.27 22.562,27.112C22.665,27.073 22.771,27.045 22.879,27.029C22.933,27.021 22.988,27.018 23.043,27.013C23.097,27.014 23.152,27.015 23.207,27.016C23.351,27.034 23.389,27.033 23.529,27.075C23.669,27.117 23.7,27.138 23.831,27.202L41.089,36.829L57.963,27.416C58.103,27.286 58.267,27.181 58.448,27.112C58.55,27.073 58.656,27.045 58.765,27.029C58.819,27.021 58.874,27.018 58.928,27.013L59,27.014ZM24.6,65.499L39.528,73.825L39.528,39.393L24.6,31.066C24.6,42.544 24.6,54.021 24.6,65.499ZM60.577,31.118L60.577,65.55L75.413,73.825L75.413,39.393L60.577,31.118ZM57.486,31.118L42.65,39.393L42.65,73.825L57.486,65.55L57.486,31.118Z" style="" fill="black"/></g><text x="0" y="115" fill="#000000" font-size="5px" font-weight="bold" font-family="'Helvetica Neue', Helvetica, Arial-Unicode, Arial, Sans-serif">Created by Cezary Lopacinski</text><text x="0" y="120" fill="#000000" font-size="5px" font-weight="bold" font-family="'Helvetica Neue', Helvetica, Arial-Unicode, Arial, Sans-serif">from the Noun Project</text></svg>