<svg xmlns="http://www.w3.org/2000/svg" xmlns:xlink="http://www.w3.org/1999/xlink" viewBox="0 0 100 125" version="1.1" xml:space="preserve" style="" x="0px" y="0px" fill-rule="evenodd" clip-rule="evenodd" stroke-linejoin="round" stroke-miterlimit="1.41421"><g transform="matrix(1,0,0,1,0.592483,-4.66843)"><g><path d="M51.892,48.384C51.758,48.233 51.654,48.055 51.59,47.863C51.559,47.772 51.541,47.681 51.526,47.588L51.061,44.159C51.042,43.974 51.045,43.793 51.088,43.612C51.216,43.068 51.651,42.631 52.195,42.499C52.344,42.463 52.498,42.45 52.651,42.461C52.732,42.467 52.752,42.472 52.833,42.485L56.772,43.248L57.173,41.223L57.194,41.132C57.248,40.95 57.322,40.78 57.435,40.627C57.696,40.271 58.111,40.045 58.551,40.017C58.709,40.007 58.862,40.027 59.016,40.061L61.779,40.768L61.608,39.02L61.602,38.928C61.601,38.772 61.614,38.62 61.657,38.47C61.783,38.019 62.121,37.646 62.558,37.476C62.733,37.408 62.914,37.38 63.101,37.374L63.706,37.374L63.521,34.457L63.518,34.365C63.523,34.178 63.55,33.999 63.618,33.823C63.774,33.418 64.106,33.094 64.515,32.949C64.662,32.897 64.811,32.873 64.966,32.863C65.059,32.863 65.058,32.863 65.151,32.868C65.305,32.887 65.453,32.918 65.597,32.979C65.683,33.015 65.762,33.06 65.841,33.109L68.351,34.758C68.419,34.806 68.438,34.816 68.502,34.871C68.562,34.923 68.619,34.98 68.671,35.041L68.695,35.022L85.695,57.226L88.919,54.874C89.589,54.386 90.526,54.532 91.014,55.202L96.059,62.119C96.548,62.789 96.401,63.727 95.731,64.215L92.725,66.407L95.363,69.853C96.216,71.022 96.691,72.5 96.797,74.274C97.042,78.391 95.155,82.334 91.749,84.818C88.343,87.302 84.013,87.893 80.166,86.403C78.509,85.759 77.248,84.855 76.416,83.714L73.922,80.121L70.915,82.314C70.247,82.802 69.308,82.655 68.82,81.986L63.775,75.068C63.287,74.398 63.434,73.461 64.103,72.973L67.328,70.621L51.892,48.384ZM32.077,41.597C32.101,41.561 32.127,41.526 32.155,41.492C32.292,41.325 32.464,41.188 32.658,41.094C32.742,41.053 32.828,41.023 32.917,40.996L36.273,40.068C36.362,40.047 36.449,40.031 36.54,40.02C36.631,40.015 36.631,40.015 36.722,40.015C36.905,40.027 37.081,40.059 37.251,40.13C37.732,40.332 38.081,40.781 38.156,41.297C38.183,41.479 38.171,41.658 38.137,41.838L37.013,46.923L37.803,46.828L37.894,46.82C38.077,46.814 38.255,46.83 38.431,46.885C38.927,47.041 39.316,47.455 39.44,47.96C39.483,48.139 39.488,48.318 39.471,48.5L39.137,51.218L40.255,51.218L40.346,51.22C40.498,51.234 40.644,51.261 40.787,51.315C41.185,51.466 41.507,51.787 41.658,52.186C41.723,52.358 41.75,52.535 41.755,52.718L41.755,53.028L47.095,50.444L47.177,50.407C47.253,50.378 47.271,50.37 47.349,50.348C47.524,50.3 47.708,50.284 47.889,50.301C48.407,50.349 48.874,50.674 49.1,51.144C49.165,51.28 49.21,51.426 49.232,51.576C49.254,51.726 49.253,51.879 49.23,52.028C49.217,52.108 49.21,52.127 49.191,52.205L48.255,55.485C48.227,55.574 48.197,55.66 48.155,55.743C48.059,55.936 47.921,56.108 47.753,56.243L47.748,56.247L47.748,56.247L30.964,72.265C30.977,72.277 30.992,72.286 31.004,72.298L34.624,75.918C35.21,76.503 35.21,77.453 34.624,78.039L28.571,84.092C27.986,84.678 27.036,84.678 26.45,84.092L22.83,80.472C22.752,80.394 22.686,80.309 22.629,80.22L17.045,85.549C15.336,87.258 12.516,87.258 10.782,85.524L3.297,78.039C1.563,76.305 1.563,73.485 3.297,71.751L8.602,66.192C8.513,66.135 8.428,66.069 8.35,65.991L4.73,62.371C4.144,61.785 4.144,60.836 4.73,60.25L10.783,54.197C11.368,53.611 12.318,53.611 12.904,54.197L16.524,57.817C16.537,57.829 16.545,57.844 16.557,57.857L32.077,41.597ZM66.711,37.364L66.801,38.779C66.807,38.97 66.79,39.155 66.731,39.337C66.584,39.79 66.221,40.154 65.768,40.301C65.616,40.35 65.463,40.369 65.304,40.374L64.755,40.374L64.973,42.606L64.979,42.698C64.98,42.886 64.958,43.068 64.896,43.246C64.72,43.75 64.277,44.13 63.753,44.227C63.6,44.255 63.444,44.259 63.29,44.24C63.209,44.229 63.189,44.223 63.108,44.205L59.808,43.36L59.425,45.296L59.404,45.387C59.359,45.539 59.301,45.682 59.215,45.816C58.976,46.188 58.575,46.44 58.136,46.493C57.978,46.513 57.824,46.502 57.668,46.477L54.314,45.828L54.447,46.802L78.862,81.974C79.328,82.614 80.141,83.173 81.253,83.605C84.141,84.726 87.405,84.273 89.983,82.394C92.56,80.514 93.989,77.545 93.805,74.451C93.733,73.26 93.451,72.318 92.962,71.648L66.711,37.364ZM34.151,43.767L5.444,73.847C4.855,74.437 4.855,75.354 5.419,75.918L12.904,83.403C13.468,83.967 14.385,83.967 14.949,83.403L44.854,54.861L40.909,56.771C40.834,56.804 40.816,56.814 40.739,56.841C40.594,56.89 40.441,56.917 40.288,56.92C39.856,56.93 39.432,56.747 39.143,56.427C39.04,56.313 38.955,56.184 38.891,56.044C38.827,55.905 38.785,55.756 38.766,55.604C38.756,55.523 38.758,55.502 38.755,55.421L38.755,54.218L37.441,54.218L37.35,54.215C37.168,54.198 36.993,54.161 36.825,54.085C36.407,53.897 36.093,53.519 35.984,53.075C35.94,52.896 35.935,52.717 35.952,52.534L36.26,50.035L35.27,50.154L35.178,50.163C35.096,50.165 35.076,50.167 34.994,50.162C34.84,50.152 34.688,50.118 34.545,50.062C34.051,49.869 33.689,49.416 33.608,48.892C33.58,48.706 33.592,48.525 33.627,48.341L34.67,43.624L34.151,43.767ZM29.944,75.479L31.442,76.977L27.51,80.909L26.012,79.411L29.944,75.479ZM72.072,77.758L70.36,79.006L67.084,74.513L68.795,73.265L72.072,77.758ZM19.661,70.834C20.184,70.837 20.607,71.262 20.607,71.785C20.607,72.309 20.184,72.734 19.661,72.737L19.655,72.737C19.13,72.737 18.703,72.311 18.703,71.785C18.703,71.26 19.13,70.833 19.655,70.833L19.661,70.834ZM80.473,71.354C80.391,71.873 79.904,72.228 79.385,72.147C78.866,72.066 78.51,71.578 78.591,71.059C78.673,70.54 79.16,70.185 79.679,70.266C80.198,70.347 80.554,70.835 80.473,71.354ZM17.042,68.215C17.565,68.218 17.988,68.643 17.988,69.166C17.988,69.69 17.565,70.115 17.042,70.118L17.036,70.118C16.511,70.118 16.084,69.692 16.084,69.166C16.084,68.641 16.511,68.214 17.036,68.214L17.042,68.215ZM22.324,68.171C22.847,68.174 23.27,68.599 23.27,69.122C23.27,69.646 22.847,70.071 22.324,70.074L22.318,70.074C21.793,70.074 21.366,69.648 21.366,69.122C21.366,68.597 21.793,68.17 22.318,68.17L22.324,68.171ZM83.465,69.171C83.384,69.691 82.896,70.046 82.377,69.965C81.858,69.883 81.503,69.396 81.584,68.877C81.665,68.358 82.153,68.002 82.672,68.084C83.191,68.165 83.546,68.652 83.465,69.171ZM78.253,68.311C78.172,68.83 77.685,69.186 77.166,69.104C76.647,69.023 76.291,68.536 76.372,68.017C76.454,67.497 76.941,67.142 77.46,67.223C77.979,67.305 78.335,67.792 78.253,68.311ZM19.705,65.552C20.228,65.555 20.651,65.98 20.651,66.503C20.651,67.027 20.228,67.452 19.705,67.455L19.699,67.455C19.174,67.455 18.747,67.029 18.747,66.503C18.747,65.978 19.174,65.551 19.699,65.551L19.705,65.552ZM81.246,66.129C81.165,66.648 80.677,67.003 80.158,66.922C79.639,66.841 79.284,66.353 79.365,65.834C79.446,65.315 79.934,64.96 80.453,65.041C80.972,65.122 81.327,65.61 81.246,66.129ZM87.764,59.43L89.476,58.182L92.753,62.675L91.041,63.923L87.764,59.43ZM9.41,62.809L7.912,61.311L11.844,57.379L13.342,58.877L9.41,62.809ZM47.92,22.134C47.959,22.14 47.998,22.145 48.037,22.152C48.152,22.175 48.265,22.211 48.372,22.26C48.768,22.441 49.071,22.794 49.191,23.213C49.223,23.326 49.242,23.443 49.247,23.561C49.251,23.666 49.246,23.692 49.238,23.796L46.493,47.558C46.477,47.662 46.476,47.688 46.447,47.789C46.405,47.941 46.339,48.085 46.252,48.216C46.165,48.347 46.058,48.464 45.935,48.562C45.811,48.659 45.673,48.737 45.526,48.792C45.079,48.958 44.569,48.899 44.173,48.636C44.042,48.549 43.925,48.441 43.827,48.318C43.656,48.102 43.547,47.84 43.513,47.567C43.499,47.448 43.503,47.333 43.513,47.214L46.258,23.452C46.264,23.413 46.269,23.374 46.276,23.336C46.299,23.22 46.335,23.107 46.384,23C46.565,22.604 46.918,22.301 47.337,22.182C47.45,22.149 47.567,22.131 47.685,22.126C47.724,22.124 47.764,22.125 47.803,22.125C47.842,22.128 47.881,22.131 47.92,22.134ZM37.01,25.551C37.137,25.561 37.261,25.579 37.383,25.617C37.674,25.708 37.934,25.888 38.122,26.128C38.2,26.229 38.261,26.339 38.315,26.455C39.603,29.657 40.731,32.922 41.938,36.157C41.962,36.229 41.985,36.301 42.001,36.375C42.037,36.549 42.042,36.729 42.016,36.905C41.993,37.055 41.947,37.202 41.881,37.338C41.644,37.823 41.151,38.15 40.612,38.179C40.435,38.188 40.256,38.166 40.087,38.113C39.893,38.053 39.712,37.953 39.558,37.822C39.382,37.671 39.252,37.485 39.155,37.276C37.867,34.073 36.739,30.808 35.532,27.574C35.466,27.381 35.43,27.183 35.439,26.977C35.465,26.438 35.79,25.943 36.274,25.705C36.458,25.614 36.654,25.568 36.858,25.552C36.934,25.55 36.933,25.55 37.01,25.551ZM57.534,28.242C57.748,28.26 57.953,28.312 58.143,28.413C58.559,28.634 58.854,29.048 58.924,29.514C58.946,29.661 58.947,29.812 58.925,29.959C58.893,30.171 58.815,30.368 58.703,30.55C57.109,32.916 55.417,35.214 53.773,37.545C53.646,37.718 53.494,37.865 53.308,37.974C53.144,38.071 52.961,38.136 52.772,38.164C52.583,38.193 52.388,38.185 52.202,38.141C51.657,38.012 51.219,37.576 51.088,37.03C51.054,36.886 51.041,36.736 51.05,36.588C51.066,36.33 51.151,36.089 51.286,35.87C52.879,33.504 54.572,31.206 56.215,28.875C56.278,28.789 56.346,28.708 56.425,28.636C56.612,28.463 56.844,28.339 57.092,28.28C57.196,28.255 57.3,28.244 57.407,28.239C57.471,28.239 57.471,28.239 57.534,28.242Z" style="" fill="black"/></g></g><text x="0" y="115" fill="#000000" font-size="5px" font-weight="bold" font-family="'Helvetica Neue', Helvetica, Arial-Unicode, Arial, Sans-serif">Created by Cezary Lopacinski</text><text x="0" y="120" fill="#000000" font-size="5px" font-weight="bold" font-family="'Helvetica Neue', Helvetica, Arial-Unicode, Arial, Sans-serif">from the Noun Project</text></svg>