<svg xmlns="http://www.w3.org/2000/svg" xmlns:xlink="http://www.w3.org/1999/xlink" version="1.1" x="0px" y="0px" viewBox="0 0 100 125" enable-background="new 0 0 100 100" xml:space="preserve"><g><path d="M41.447,31.342c0.829,0,1.5-0.671,1.5-1.5V9.5c0-0.829-0.671-1.5-1.5-1.5s-1.5,0.671-1.5,1.5v20.342   C39.947,30.671,40.619,31.342,41.447,31.342z"/><path d="M58.396,31.268c0.828,0,1.5-0.671,1.5-1.5V14.5c0-0.829-0.672-1.5-1.5-1.5s-1.5,0.671-1.5,1.5v15.268   C56.896,30.596,57.568,31.268,58.396,31.268z"/><path d="M52.229,28.956c0.828,0,1.5-0.671,1.5-1.5v-3.99c0-0.829-0.672-1.5-1.5-1.5s-1.5,0.671-1.5,1.5v3.99   C50.729,28.284,51.401,28.956,52.229,28.956z"/><path d="M46.988,29.218c0.829,0,1.5-0.671,1.5-1.5v-8.919c0-0.829-0.671-1.5-1.5-1.5s-1.5,0.671-1.5,1.5v8.919   C45.488,28.547,46.159,29.218,46.988,29.218z"/><path d="M92.743,76.877c-7.931-2.788-19.053-4.651-31.505-5.355V56.275c0-2.481-2.019-4.5-4.5-4.5h-0.604v-1.059   c2.439-0.136,4.388-2.145,4.388-4.619v-6.123c0-2.561-2.084-4.645-4.645-4.645h-1.823c-0.359-1.119-1.397-1.936-2.634-1.936h-2.842   c-1.236,0-2.274,0.817-2.634,1.936h-1.823c-2.561,0-4.645,2.083-4.645,4.645v6.123c0,2.473,1.948,4.482,4.388,4.619v1.059h-0.604   c-2.481,0-4.5,2.019-4.5,4.5v15.246c-12.452,0.704-23.574,2.567-31.506,5.355c-0.782,0.274-1.192,1.131-0.917,1.912   c0.274,0.782,1.132,1.191,1.913,0.918c7.517-2.643,18.454-4.462,30.511-5.17v1.354v3.389v0.546c0,2.234,1.64,4.078,3.776,4.427   c0.409,2.598,3.538,4.557,7.462,4.557c3.924,0,7.053-1.96,7.462-4.558c2.136-0.349,3.776-2.193,3.776-4.427V79.28v-3.389v-1.354   c12.057,0.708,22.994,2.527,30.511,5.17c0.164,0.058,0.332,0.085,0.497,0.085c0.619,0,1.198-0.386,1.415-1.003   C93.936,78.008,93.525,77.151,92.743,76.877z M42.478,46.098v-6.123c0-0.907,0.738-1.645,1.645-1.645h1.678v7.243   c0,0.829,0.671,1.5,1.5,1.5s1.5-0.671,1.5-1.5v-9.179h2.398v9.179c0,0.829,0.672,1.5,1.5,1.5s1.5-0.671,1.5-1.5v-7.243h1.679   c0.907,0,1.645,0.738,1.645,1.645v6.123c0,0.907-0.737,1.645-1.645,1.645H44.123C43.216,47.743,42.478,47.005,42.478,46.098z    M53.135,50.743v1.033h-6.269v-1.033H53.135z M50,85.811c-2.112,0-3.628-0.744-4.225-1.484h8.45   C53.629,85.067,52.112,85.811,50,85.811z M58.238,79.826c0,0.827-0.673,1.5-1.5,1.5H43.262c-0.827,0-1.5-0.673-1.5-1.5v-0.935   h16.476V79.826z M58.238,75.892H41.762V56.275c0-0.827,0.673-1.5,1.5-1.5h13.477c0.827,0,1.5,0.673,1.5,1.5V75.892z"/></g><text x="0" y="115" fill="#000000" font-size="5px" font-weight="bold" font-family="'Helvetica Neue', Helvetica, Arial-Unicode, Arial, Sans-serif">Created by Cezary Lopacinski</text><text x="0" y="120" fill="#000000" font-size="5px" font-weight="bold" font-family="'Helvetica Neue', Helvetica, Arial-Unicode, Arial, Sans-serif">from the Noun Project</text></svg>