<svg xmlns="http://www.w3.org/2000/svg" xmlns:xlink="http://www.w3.org/1999/xlink" version="1.1" x="0px" y="0px" viewBox="0 0 100 125" enable-background="new 0 0 100 100" xml:space="preserve"><g><path d="M82.599,60.006c-0.206-0.34-0.54-0.584-0.926-0.679l-16.038-3.92c1.21-1.779,2.125-3.767,2.717-5.89l10.797-6.556   c0.708-0.43,0.934-1.353,0.504-2.061l-2.726-4.489c-0.207-0.34-0.54-0.584-0.926-0.679c-0.389-0.095-0.795-0.032-1.135,0.175   l-6.264,3.804C66.582,30.745,58.568,24.022,49,24.022c-11.087,0-20.106,9.02-20.106,20.106c0,0.791,0.058,1.568,0.147,2.335   l-8.754-2.139c-0.806-0.197-1.616,0.297-1.813,1.101l-1.247,5.102c-0.095,0.386-0.032,0.794,0.175,1.134   c0.207,0.34,0.54,0.584,0.926,0.679l14.371,3.512c0.967,1.341,2.086,2.563,3.346,3.628l-15.193,9.225   c-0.34,0.207-0.584,0.54-0.679,0.926c-0.095,0.387-0.032,0.795,0.175,1.135l2.726,4.489c0.282,0.465,0.777,0.722,1.284,0.722   c0.265,0,0.534-0.07,0.777-0.218l11.085-6.731c0.18,0.548,0.655,0.966,1.256,1.03l22.735,2.389   c0.052,0.005,0.104,0.008,0.156,0.008c0.369,0,0.727-0.136,1.004-0.386c0.315-0.284,0.496-0.689,0.496-1.114v-7.974l17.846,4.361   c0.12,0.029,0.239,0.043,0.357,0.043c0.676,0,1.289-0.459,1.456-1.144l1.247-5.102C82.868,60.754,82.805,60.346,82.599,60.006z    M69.047,42.951l6.094-3.7l1.169,1.925l-7.277,4.419c0.035-0.486,0.074-0.971,0.074-1.466   C69.106,43.731,69.07,43.343,69.047,42.951z M20.497,49.783l0.535-2.188l8.667,2.118c0.253,0.874,0.562,1.724,0.927,2.545   L20.497,49.783z M36.133,65.572l-11.273,6.845l-1.169-1.925l12.442-7.555V65.572z M58.867,69.289l-19.734-2.073v-2.98h19.734   V69.289z M60.367,44.282c-0.828,0-1.5,0.671-1.5,1.5v15.454H39.133V50.108c0-0.829-0.671-1.5-1.5-1.5s-1.5,0.671-1.5,1.5v5.232   c-2.627-3.004-4.239-6.915-4.239-11.211c0-9.433,7.674-17.106,17.106-17.106s17.106,7.674,17.106,17.106   c0,4.296-1.612,8.206-4.239,11.211v-9.558C61.867,44.953,61.195,44.282,60.367,44.282z M78.969,64.072l-17.102-4.179v-0.354   c0.583-0.49,1.143-1.005,1.668-1.556l15.967,3.902L78.969,64.072z"/><path d="M51.809,56.049h-5.618c-0.829,0-1.5,0.672-1.5,1.5s0.671,1.5,1.5,1.5h5.618c0.829,0,1.5-0.672,1.5-1.5   S52.638,56.049,51.809,56.049z"/><path d="M47.898,50.714c0-2.092-1.702-3.794-3.794-3.794c-2.092,0-3.794,1.702-3.794,3.794c0,2.092,1.702,3.794,3.794,3.794   C46.196,54.508,47.898,52.806,47.898,50.714z M44.104,51.508c-0.438,0-0.794-0.356-0.794-0.794s0.356-0.794,0.794-0.794   s0.794,0.356,0.794,0.794S44.542,51.508,44.104,51.508z"/><path d="M53.505,46.919c-2.092,0-3.794,1.702-3.794,3.794c0,2.092,1.702,3.794,3.794,3.794c2.092,0,3.794-1.702,3.794-3.794   C57.299,48.622,55.597,46.919,53.505,46.919z M53.505,51.508c-0.438,0-0.794-0.356-0.794-0.794s0.356-0.794,0.794-0.794   s0.794,0.356,0.794,0.794S53.943,51.508,53.505,51.508z"/></g><text x="0" y="115" fill="#000000" font-size="5px" font-weight="bold" font-family="'Helvetica Neue', Helvetica, Arial-Unicode, Arial, Sans-serif">Created by Cezary Lopacinski</text><text x="0" y="120" fill="#000000" font-size="5px" font-weight="bold" font-family="'Helvetica Neue', Helvetica, Arial-Unicode, Arial, Sans-serif">from the Noun Project</text></svg>