<svg xmlns="http://www.w3.org/2000/svg" xmlns:xlink="http://www.w3.org/1999/xlink" viewBox="0 0 100 125" version="1.1" xml:space="preserve" style="" x="0px" y="0px" fill-rule="evenodd" clip-rule="evenodd" stroke-linejoin="round" stroke-miterlimit="1.41421"><g transform="matrix(1,0,0,1,-2.23217,-6.7652)"><g><path d="M38,45.995C38.083,45.864 38.186,45.745 38.305,45.645C38.423,45.546 38.556,45.465 38.699,45.407C38.775,45.376 38.795,45.371 38.874,45.347L43.222,44.155C43.313,44.133 43.401,44.118 43.494,44.107C43.586,44.102 43.586,44.102 43.678,44.103C43.76,44.109 43.781,44.108 43.862,44.122C44.013,44.146 44.161,44.195 44.298,44.264C44.77,44.504 45.086,44.988 45.116,45.516C45.127,45.703 45.098,45.883 45.047,46.062L43.786,49.977L44.861,49.855L44.953,49.847C45.035,49.845 45.056,49.843 45.138,49.849C45.293,49.86 45.445,49.895 45.589,49.952C46.083,50.151 46.443,50.61 46.516,51.138C46.542,51.325 46.528,51.507 46.49,51.691L46.318,52.418L47.211,52.328L47.304,52.322C47.491,52.321 47.672,52.342 47.851,52.403C48.323,52.567 48.691,52.966 48.814,53.451C48.861,53.633 48.867,53.816 48.85,54.003L48.712,55.13L51.501,55.058L51.593,55.058C51.779,55.071 51.958,55.105 52.13,55.179C52.559,55.363 52.884,55.745 52.995,56.198C53.033,56.349 53.041,56.501 53.036,56.656L52.797,60.295C52.789,60.377 52.789,60.397 52.773,60.478C52.744,60.629 52.692,60.776 52.618,60.912C52.565,61.01 52.501,61.102 52.428,61.185L52.434,61.192L43.055,70.258L46.05,73.253C46.636,73.838 46.636,74.788 46.05,75.374L39.996,81.428C39.411,82.014 38.461,82.014 37.875,81.428L34.742,78.295L32.611,80.355C32.539,80.424 32.46,80.486 32.376,80.54L24.124,85.813C22.382,87.421 19.656,87.379 17.965,85.688L12.602,80.325C10.902,78.625 10.869,75.881 12.502,74.14L18.089,66.166C18.137,66.097 18.191,66.032 18.25,65.972L20.323,63.875L17.569,61.121C16.983,60.535 16.983,59.586 17.569,59L23.623,52.946C24.208,52.36 25.158,52.36 25.744,52.946L28.451,55.653L38,45.995ZM40.121,48.116L20.472,67.991L14.89,75.957C14.84,76.029 14.784,76.096 14.723,76.157C14.159,76.721 14.159,77.638 14.723,78.202L20.086,83.565C20.65,84.129 21.568,84.13 22.132,83.566C22.209,83.489 22.294,83.421 22.385,83.363L30.633,78.092L49.841,59.524L49.934,58.099L47.051,58.173L46.959,58.173C46.773,58.161 46.595,58.127 46.423,58.053C45.996,57.871 45.671,57.491 45.558,57.04C45.512,56.859 45.507,56.677 45.524,56.492L45.645,55.5L44.522,55.613L44.431,55.619C44.349,55.62 44.328,55.622 44.247,55.615C44.094,55.602 43.943,55.566 43.801,55.507C43.312,55.305 42.958,54.847 42.887,54.323C42.861,54.138 42.876,53.957 42.913,53.774L43.078,53.078L41.816,53.222L41.726,53.229C41.645,53.231 41.625,53.234 41.544,53.228C41.393,53.218 41.244,53.185 41.103,53.13C40.588,52.93 40.217,52.448 40.155,51.899C40.138,51.749 40.144,51.596 40.173,51.448C40.188,51.368 40.196,51.349 40.218,51.272L41.342,47.781L40.121,48.116ZM56.771,58.07C56.768,58.068 56.766,58.066 56.763,58.064C56.617,57.956 56.491,57.822 56.393,57.669C56.295,57.517 56.225,57.346 56.187,57.169C56.171,57.09 56.17,57.07 56.16,56.99L55.911,54.167C55.906,54.087 55.903,54.068 55.905,53.988C55.91,53.838 55.937,53.69 55.986,53.549C56.152,53.062 56.569,52.687 57.07,52.572C57.247,52.532 57.424,52.529 57.604,52.548L61.446,53.064L61.446,50.969L61.448,50.879C61.465,50.696 61.502,50.521 61.578,50.353C61.779,49.907 62.196,49.581 62.678,49.493C62.859,49.461 63.038,49.467 63.219,49.495L65.484,49.915L65.283,47.834L65.277,47.745C65.276,47.565 65.296,47.39 65.353,47.218C65.495,46.79 65.83,46.443 66.252,46.285C66.422,46.222 66.596,46.196 66.776,46.19L67.789,46.19L67.724,43.549L67.724,43.459C67.734,43.306 67.757,43.159 67.808,43.015C67.949,42.613 68.263,42.284 68.658,42.123C68.8,42.065 68.945,42.035 69.097,42.018C69.188,42.013 69.187,42.013 69.278,42.013C69.359,42.019 69.379,42.018 69.459,42.031C69.608,42.054 69.753,42.101 69.889,42.168C69.971,42.209 70.046,42.258 70.12,42.31L72.222,43.879C72.294,43.936 72.362,43.993 72.424,44.06C72.499,44.14 72.564,44.228 72.619,44.323L81.693,53.902L84.373,51.392C84.977,50.825 85.926,50.857 86.492,51.461L92.345,57.71C92.911,58.315 92.88,59.264 92.275,59.83L89.487,62.441C93.037,67.537 94.992,75.251 90.759,79.215C86.525,83.18 78.952,80.723 74.103,76.849L71.316,79.459C70.712,80.026 69.763,79.995 69.196,79.39L63.344,73.141C62.777,72.536 62.809,71.588 63.413,71.021L66.163,68.445L56.771,58.07ZM41.37,72.814L42.868,74.312L38.935,78.245L37.437,76.747L41.37,72.814ZM68.428,49.19L68.661,51.609L68.667,51.698C68.668,51.879 68.648,52.054 68.591,52.227C68.428,52.714 68.016,53.092 67.516,53.211C67.371,53.246 67.221,53.259 67.072,53.249C66.992,53.244 66.973,53.239 66.894,53.227L64.446,52.773L64.446,54.779L64.443,54.87C64.426,55.054 64.388,55.23 64.312,55.399C64.121,55.819 63.739,56.133 63.29,56.239C63.11,56.282 62.93,56.285 62.746,56.266L59.064,55.771L59.099,56.169L74.369,73.036C77.858,76.761 85.432,80.094 88.708,77.025C91.985,73.955 89.155,66.181 85.648,62.437L70.804,46.767L70.826,47.653C70.825,47.833 70.804,48.006 70.745,48.176C70.601,48.599 70.266,48.942 69.847,49.097C69.678,49.16 69.505,49.185 69.326,49.19L68.428,49.19ZM66.559,72.186L68.105,70.738L71.906,74.796L70.36,76.244L66.559,72.186ZM31.794,68.875C32.316,68.879 32.739,69.304 32.739,69.827C32.739,70.351 32.316,70.776 31.794,70.779L31.787,70.779C31.262,70.779 30.835,70.353 30.835,69.827C30.835,69.302 31.262,68.875 31.787,68.875L31.794,68.875ZM78.731,68.097C78.714,68.622 78.274,69.035 77.749,69.017C77.224,69 76.811,68.56 76.828,68.035C76.846,67.51 77.286,67.097 77.811,67.114C78.336,67.132 78.749,67.572 78.731,68.097ZM29.175,66.256C29.697,66.26 30.12,66.685 30.12,67.208C30.12,67.732 29.697,68.157 29.175,68.16L29.168,68.16C28.643,68.16 28.216,67.734 28.216,67.208C28.216,66.683 28.643,66.256 29.168,66.256L29.175,66.256ZM34.457,66.212C34.979,66.216 35.402,66.641 35.402,67.164C35.402,67.688 34.979,68.113 34.457,68.116L34.45,68.116C33.925,68.116 33.498,67.69 33.498,67.164C33.498,66.639 33.925,66.212 34.45,66.212L34.457,66.212ZM81.435,65.565C81.418,66.09 80.977,66.503 80.452,66.486C79.927,66.468 79.515,66.028 79.532,65.503C79.549,64.978 79.989,64.565 80.514,64.583C81.04,64.6 81.452,65.04 81.435,65.565ZM76.158,65.348C76.141,65.874 75.7,66.286 75.175,66.269C74.65,66.251 74.238,65.811 74.255,65.286C74.272,64.761 74.713,64.349 75.238,64.366C75.763,64.383 76.175,64.823 76.158,65.348ZM31.838,63.593C32.36,63.597 32.783,64.022 32.783,64.545C32.783,65.069 32.36,65.494 31.838,65.497L31.831,65.497C31.306,65.497 30.879,65.071 30.879,64.545C30.879,64.02 31.306,63.593 31.831,63.593L31.838,63.593ZM78.86,62.817C78.843,63.342 78.403,63.754 77.878,63.737C77.353,63.72 76.94,63.279 76.957,62.754C76.975,62.229 77.415,61.817 77.94,61.834C78.465,61.851 78.878,62.291 78.86,62.817ZM22.25,61.559L20.751,60.06L24.684,56.127L26.183,57.626L22.25,61.559ZM83.782,56.055L85.33,54.606L89.131,58.666L87.584,60.115L83.782,56.055ZM55.029,26.544C55.128,26.554 55.153,26.554 55.251,26.575C55.361,26.599 55.468,26.635 55.569,26.682C55.979,26.874 56.287,27.25 56.393,27.69C56.428,27.838 56.435,27.984 56.432,28.136L55.05,50.094C55.038,50.207 55.024,50.316 54.991,50.425C54.917,50.676 54.776,50.907 54.586,51.087C54.45,51.216 54.291,51.319 54.117,51.39C53.662,51.575 53.132,51.521 52.723,51.249C52.598,51.167 52.486,51.065 52.391,50.949C52.297,50.833 52.219,50.703 52.163,50.565C52.107,50.426 52.071,50.279 52.058,50.13C52.05,50.031 52.053,50.005 52.056,49.906L53.438,27.947C53.453,27.797 53.478,27.652 53.532,27.51C53.679,27.123 53.986,26.808 54.37,26.652C54.474,26.61 54.583,26.579 54.693,26.561C54.792,26.545 54.817,26.547 54.917,26.542C54.954,26.543 54.991,26.544 55.029,26.544ZM64.137,33.012C64.338,33.027 64.531,33.07 64.714,33.159C65.183,33.385 65.508,33.851 65.556,34.37C65.575,34.572 65.549,34.768 65.493,34.962C64.01,39.224 62.287,43.398 60.683,47.616C60.65,47.695 60.616,47.773 60.572,47.847C60.47,48.019 60.333,48.17 60.172,48.289C60.058,48.374 59.931,48.442 59.796,48.491C59.307,48.67 58.747,48.578 58.341,48.251C58.207,48.144 58.093,48.013 58.003,47.867C57.898,47.697 57.828,47.505 57.798,47.308C57.773,47.138 57.776,46.964 57.809,46.796C57.823,46.721 57.83,46.703 57.851,46.63C59.334,42.369 61.057,38.194 62.661,33.977C62.716,33.843 62.781,33.718 62.868,33.603C63.058,33.352 63.327,33.165 63.629,33.074C63.74,33.041 63.851,33.024 63.966,33.013C64.052,33.01 64.051,33.01 64.137,33.012ZM45.269,36.457C45.392,36.466 45.512,36.484 45.63,36.52C45.864,36.592 46.08,36.722 46.253,36.895C46.325,36.968 46.387,37.048 46.445,37.132C47.757,39.224 49.026,41.344 50.251,43.488C50.365,43.707 50.431,43.943 50.434,44.191C50.439,44.751 50.121,45.279 49.624,45.537C49.497,45.602 49.361,45.65 49.221,45.677C49.041,45.712 48.854,45.714 48.673,45.682C48.492,45.65 48.318,45.585 48.16,45.49C47.965,45.373 47.807,45.214 47.679,45.028C46.368,42.935 45.099,40.816 43.874,38.672C43.779,38.489 43.716,38.296 43.697,38.09C43.656,37.64 43.826,37.185 44.153,36.871C44.256,36.773 44.374,36.689 44.5,36.623C44.702,36.518 44.921,36.467 45.147,36.455C45.208,36.455 45.207,36.455 45.269,36.457Z" style="" fill="black"/></g></g><text x="0" y="115" fill="#000000" font-size="5px" font-weight="bold" font-family="'Helvetica Neue', Helvetica, Arial-Unicode, Arial, Sans-serif">Created by Cezary Lopacinski</text><text x="0" y="120" fill="#000000" font-size="5px" font-weight="bold" font-family="'Helvetica Neue', Helvetica, Arial-Unicode, Arial, Sans-serif">from the Noun Project</text></svg>