<svg xmlns="http://www.w3.org/2000/svg" xmlns:xlink="http://www.w3.org/1999/xlink" viewBox="0 0 100 125" version="1.1" xml:space="preserve" style="" x="0px" y="0px" fill-rule="evenodd" clip-rule="evenodd" stroke-linejoin="round" stroke-miterlimit="1.41421"><g transform="matrix(1,0,0,1,0.0548587,-2.6561)"><g><path d="M31.887,35.713C31.962,35.568 32.061,35.435 32.179,35.321C32.302,35.202 32.445,35.105 32.6,35.035C32.683,34.997 32.706,34.992 32.792,34.963L38.486,33.268C38.585,33.242 38.681,33.223 38.783,33.211C38.885,33.205 38.884,33.205 38.985,33.207C39.121,33.218 39.252,33.237 39.382,33.28C39.802,33.418 40.146,33.742 40.308,34.153C40.371,34.312 40.4,34.475 40.413,34.645L40.57,38.556L43.855,37.787L43.953,37.767C44.121,37.745 44.286,37.74 44.454,37.769C44.886,37.844 45.272,38.112 45.493,38.491C45.579,38.638 45.631,38.794 45.669,38.959L46.048,40.897L49.195,38.897L49.283,38.845C49.364,38.805 49.383,38.793 49.467,38.76C49.594,38.712 49.727,38.682 49.862,38.669C50.41,38.619 50.954,38.881 51.255,39.342C51.33,39.455 51.388,39.579 51.429,39.708C51.457,39.794 51.459,39.817 51.478,39.905L52.233,44.234C52.245,44.324 52.251,44.346 52.254,44.437C52.263,44.676 52.213,44.917 52.111,45.133C52.062,45.235 52.002,45.332 51.932,45.421L50.804,47.505L37.539,74.565C37.4,74.835 37.258,75.061 37.105,75.28L36.996,75.429C36.848,75.625 36.73,75.768 36.606,75.907L36.438,76.089C36.289,76.242 36.136,76.385 35.977,76.523L35.882,76.607C35.681,76.774 35.478,76.923 35.267,77.065L35.131,77.153C34.936,77.277 34.776,77.372 34.613,77.462L34.401,77.575C34.231,77.664 34.058,77.748 33.881,77.826L33.713,77.901C33.493,77.997 33.262,78.086 33.026,78.17L32.631,78.301L32.317,78.397C32.312,78.398 32.22,78.426 32.215,78.427L32.016,78.487C30.737,78.895 29.602,79.736 28.773,80.851L30.462,81.724L30.874,80.926C31.255,80.19 32.159,79.902 32.895,80.282L40.108,84.009C40.844,84.39 41.132,85.294 40.752,86.03L36.821,93.636C36.631,94.005 36.31,94.26 35.944,94.377C35.578,94.493 35.168,94.471 34.799,94.281L27.587,90.553C26.85,90.173 26.562,89.269 26.943,88.532L27.356,87.735L25.463,86.757C24.642,87.783 23.537,88.545 22.256,88.953C20.54,89.5 18.714,89.345 17.115,88.518C15.514,87.691 14.332,86.292 13.785,84.575C13.377,83.294 13.36,81.952 13.722,80.689L11.828,79.71L11.416,80.508C11.226,80.876 10.904,81.132 10.538,81.248C10.173,81.365 9.762,81.342 9.394,81.152L2.182,77.425C1.446,77.044 1.158,76.14 1.539,75.404L5.469,67.798C5.85,67.061 6.754,66.773 7.49,67.154L14.703,70.881C15.439,71.261 15.727,72.166 15.347,72.902L14.934,73.7L16.622,74.572C17.076,73.182 17.083,71.699 16.609,70.366C16.602,70.346 16.582,70.283 16.576,70.263C16.513,70.084 16.453,69.895 16.396,69.707L16.349,69.553C16.281,69.314 16.221,69.075 16.169,68.836C16.166,68.822 16.146,68.719 16.143,68.704C16.096,68.462 16.064,68.279 16.038,68.096L16.008,67.854C15.985,67.662 15.971,67.475 15.962,67.29L15.952,67.091C15.946,66.837 15.951,66.583 15.969,66.333C15.971,66.305 15.98,66.225 15.983,66.197C16.004,65.987 16.032,65.776 16.072,65.566C16.086,65.49 16.105,65.406 16.123,65.325C16.163,65.146 16.214,64.963 16.271,64.782L16.343,64.562C16.437,64.303 16.539,64.058 16.662,63.819L31.106,37.257L31.87,35.705L31.887,35.713ZM55.053,42.023C54.994,41.878 54.959,41.725 54.948,41.569C54.941,41.478 54.944,41.455 54.947,41.364L55.106,38.941C55.115,38.849 55.115,38.826 55.134,38.735C55.162,38.6 55.209,38.468 55.273,38.345C55.483,37.942 55.875,37.651 56.322,37.566C56.458,37.54 56.598,37.533 56.736,37.545C56.874,37.557 57.01,37.589 57.14,37.639C57.226,37.672 57.246,37.684 57.328,37.726L60.152,39.287L61.548,37.186L61.607,37.104C61.716,36.971 61.834,36.854 61.979,36.76C62.351,36.517 62.823,36.453 63.247,36.586C63.378,36.627 63.497,36.688 63.614,36.759L65.843,38.205L66.782,36.229L66.83,36.136C66.904,36.016 66.983,35.904 67.083,35.805C67.409,35.484 67.874,35.327 68.327,35.385C68.503,35.407 68.664,35.464 68.824,35.539L70.038,36.164L70.702,31.856L70.72,31.756C70.755,31.624 70.797,31.497 70.862,31.376C71.039,31.045 71.34,30.789 71.694,30.667C71.824,30.622 71.956,30.6 72.092,30.587C72.194,30.585 72.193,30.585 72.295,30.589C72.385,30.598 72.408,30.599 72.497,30.617C72.729,30.667 72.949,30.772 73.133,30.923C73.213,30.988 73.281,31.061 73.348,31.138L75.871,34.242C75.926,34.314 75.942,34.331 75.989,34.409C76.046,34.503 76.092,34.602 76.128,34.706L76.129,34.705L85.723,64.615C85.808,64.903 85.864,65.162 85.907,65.423C85.92,65.501 85.929,65.578 85.937,65.655C85.962,65.847 85.977,66.036 85.984,66.227C85.986,66.307 85.99,66.392 85.989,66.477C85.989,66.685 85.979,66.896 85.959,67.108L85.95,67.229C85.921,67.49 85.879,67.74 85.824,67.991L85.788,68.142C85.732,68.371 85.685,68.55 85.63,68.727L85.557,68.955C85.498,69.135 85.431,69.313 85.36,69.489L85.288,69.669C85.195,69.891 85.092,70.116 84.98,70.338C84.974,70.35 84.931,70.43 84.925,70.442L84.787,70.702L84.474,71.266C83.838,72.447 83.605,73.842 83.785,75.218L85.605,74.674L85.347,73.814C85.234,73.432 85.275,73.022 85.464,72.671C85.653,72.321 85.973,72.06 86.354,71.945L94.132,69.615C94.926,69.377 95.762,69.828 95.999,70.621L98.457,78.823C98.57,79.204 98.529,79.615 98.34,79.965C98.151,80.315 97.831,80.577 97.45,80.691L89.672,83.019C88.878,83.257 88.042,82.806 87.805,82.013L87.547,81.152L85.506,81.764C85.627,83.073 85.364,84.389 84.726,85.572C83.871,87.158 82.45,88.316 80.726,88.833C79.001,89.35 77.178,89.164 75.592,88.31C74.409,87.672 73.464,86.719 72.846,85.559L70.805,86.171L71.063,87.031C71.301,87.825 70.85,88.66 70.057,88.898L62.279,91.23C61.486,91.468 60.649,91.017 60.412,90.224L57.954,82.022C57.835,81.625 57.889,81.218 58.071,80.88C58.253,80.542 58.564,80.273 58.961,80.154L66.738,77.824C67.531,77.585 68.368,78.036 68.605,78.83L68.863,79.69L70.684,79.144C70.045,77.829 69.02,76.758 67.752,76.128C67.747,76.126 67.735,76.119 67.72,76.111L67.689,76.095C67.675,76.088 67.662,76.081 67.657,76.079C67.486,75.993 67.312,75.899 67.14,75.802L66.986,75.716C66.787,75.6 66.579,75.469 66.376,75.336C66.359,75.325 66.266,75.259 66.25,75.247C66.061,75.115 65.911,75.005 65.765,74.892L65.567,74.731C65.427,74.616 65.288,74.493 65.155,74.368L65.007,74.229C64.821,74.047 64.649,73.862 64.49,73.67C64.472,73.649 64.422,73.585 64.406,73.563C64.275,73.399 64.149,73.228 64.032,73.05L63.91,72.854C63.805,72.681 63.714,72.516 63.63,72.347C63.578,72.243 63.549,72.184 63.521,72.121C63.416,71.886 63.318,71.637 63.24,71.377L55.053,42.023ZM37.397,85.987L34.844,90.928L30.296,88.578L30.708,87.78L32.437,84.434L32.849,83.636L37.397,85.987ZM61.258,82.598L66.162,81.128L67.759,86.456L62.855,87.926L61.258,82.598ZM34.251,37.659L33.769,38.637L19.314,65.221C19.265,65.317 19.212,65.448 19.165,65.577C19.165,65.579 19.131,65.689 19.13,65.691C19.098,65.791 19.072,65.886 19.05,65.983L19.021,66.116C18.998,66.239 18.982,66.358 18.971,66.478C18.969,66.496 18.961,66.566 18.958,66.584C18.949,66.704 18.947,66.86 18.951,67.014C18.952,67.018 18.958,67.133 18.958,67.138C18.964,67.271 18.974,67.392 18.987,67.512L19.009,67.678C19.027,67.805 19.049,67.937 19.076,68.07L19.1,68.2C19.139,68.377 19.183,68.555 19.234,68.733L19.269,68.845C19.312,68.99 19.359,69.136 19.41,69.283C19.414,69.296 19.437,69.369 19.442,69.385C20.307,71.812 20.097,74.592 18.859,76.988L16.883,80.811C16.424,81.7 16.339,82.713 16.642,83.665C16.946,84.617 17.601,85.394 18.489,85.853C20.264,86.769 22.613,86.02 23.532,84.247L25.507,80.422C26.74,78.039 28.887,76.244 31.396,75.541L31.718,75.443L32.038,75.337C32.197,75.281 32.368,75.215 32.535,75.143C32.536,75.143 32.661,75.085 32.662,75.084C32.781,75.032 32.898,74.975 33.012,74.916L33.151,74.843C33.269,74.778 33.373,74.714 33.476,74.649L33.59,74.578C33.716,74.493 33.841,74.403 33.958,74.305L34.03,74.242C34.108,74.174 34.197,74.091 34.282,74.004L34.361,73.917C34.439,73.83 34.504,73.749 34.566,73.668L34.641,73.569C34.718,73.457 34.793,73.342 34.857,73.217L48.137,46.131L49.182,44.201L48.908,42.634L45.803,44.608L45.716,44.659C45.636,44.699 45.617,44.711 45.534,44.743C45.408,44.791 45.277,44.822 45.143,44.835C44.602,44.887 44.061,44.633 43.756,44.183C43.681,44.072 43.621,43.951 43.578,43.824C43.549,43.739 43.546,43.717 43.526,43.63L43.024,41.063L39.486,41.892L39.386,41.912C39.297,41.923 39.274,41.928 39.184,41.931C39.049,41.934 38.913,41.92 38.781,41.887C38.317,41.771 37.927,41.431 37.75,40.986C37.686,40.826 37.657,40.662 37.645,40.491L37.492,36.693L34.251,37.659ZM73.37,35.921L73.152,35.653L72.686,38.68L72.667,38.78C72.645,38.867 72.641,38.89 72.61,38.974C72.563,39.101 72.498,39.221 72.419,39.331C72.118,39.747 71.611,39.984 71.099,39.948C70.964,39.939 70.83,39.911 70.703,39.866C70.618,39.836 70.598,39.824 70.517,39.785L68.827,38.915L67.818,41.04L67.771,41.13C67.681,41.277 67.581,41.411 67.45,41.525C67.087,41.842 66.582,41.967 66.113,41.854C65.945,41.814 65.794,41.743 65.646,41.654L63.225,40.083L61.885,42.098L61.826,42.181C61.717,42.313 61.599,42.43 61.455,42.524C61.113,42.747 60.685,42.822 60.288,42.727C60.154,42.695 60.032,42.643 59.91,42.581L58.033,41.543L66.122,70.547C66.155,70.655 66.208,70.783 66.263,70.907C66.264,70.908 66.268,70.916 66.273,70.927L66.312,71.007C66.318,71.018 66.322,71.026 66.322,71.027C66.364,71.111 66.413,71.199 66.465,71.285L66.54,71.406C66.603,71.5 66.674,71.596 66.749,71.691C66.76,71.705 66.802,71.758 66.812,71.773C66.893,71.871 67,71.983 67.11,72.092C67.115,72.097 67.201,72.177 67.207,72.181C67.295,72.264 67.386,72.346 67.481,72.424L67.612,72.529C67.712,72.608 67.821,72.686 67.931,72.763L68.035,72.838C68.188,72.939 68.344,73.037 68.506,73.131L68.607,73.187C68.74,73.261 68.875,73.334 69.013,73.404C71.417,74.598 73.197,76.744 73.969,79.327L75.204,83.45C75.492,84.407 76.133,85.196 77.013,85.67C77.894,86.145 78.905,86.247 79.863,85.961C81.778,85.386 82.948,83.218 82.373,81.302L81.138,77.179C80.368,74.61 80.666,71.836 81.983,69.576L82.146,69.28L82.24,69.101L82.295,68.997C82.379,68.829 82.454,68.663 82.525,68.495L82.574,68.371C82.623,68.248 82.67,68.124 82.711,68.001L82.763,67.839C82.799,67.723 82.83,67.605 82.859,67.487L82.891,67.36C82.923,67.207 82.949,67.057 82.967,66.907L82.973,66.811C82.983,66.706 82.99,66.586 82.989,66.468L82.986,66.336C82.982,66.233 82.973,66.136 82.961,66.038L82.946,65.906C82.924,65.773 82.896,65.635 82.856,65.499L73.37,35.921ZM26.957,84.153L27.309,83.472L29.083,84.389L28.731,85.07L26.957,84.153ZM21.931,82.288C22.332,82.29 22.704,82.548 22.832,82.951C22.992,83.451 22.715,83.987 22.214,84.147C22.12,84.177 22.025,84.191 21.932,84.192L21.926,84.192C21.522,84.192 21.147,83.934 21.018,83.529C20.859,83.028 21.136,82.492 21.636,82.333C21.732,82.302 21.829,82.288 21.925,82.288L21.931,82.288ZM77.81,83.21C77.56,83.673 76.982,83.846 76.52,83.597C76.057,83.348 75.884,82.77 76.133,82.307C76.383,81.845 76.961,81.672 77.423,81.921C77.886,82.17 78.059,82.748 77.81,83.21ZM69.725,82.564L71.638,81.991L71.858,82.725L69.945,83.298L69.725,82.564ZM81.358,82.147C81.108,82.61 80.53,82.783 80.068,82.534C79.605,82.284 79.432,81.707 79.681,81.244C79.931,80.782 80.509,80.608 80.971,80.858C81.434,81.107 81.607,81.685 81.358,82.147ZM18.64,80.587C19.041,80.589 19.414,80.847 19.542,81.25C19.701,81.751 19.424,82.287 18.924,82.446C18.83,82.476 18.735,82.491 18.641,82.492L18.635,82.492C18.232,82.492 17.857,82.233 17.728,81.828C17.568,81.328 17.845,80.792 18.346,80.632C18.442,80.602 18.539,80.587 18.634,80.587L18.64,80.587ZM23.66,78.942C24.061,78.944 24.433,79.202 24.561,79.605C24.721,80.106 24.444,80.642 23.943,80.801C23.849,80.831 23.754,80.846 23.661,80.846L23.655,80.846C23.251,80.846 22.876,80.588 22.747,80.183C22.588,79.682 22.865,79.146 23.365,78.987C23.461,78.956 23.558,78.942 23.654,78.942L23.66,78.942ZM76.729,79.603C76.479,80.065 75.901,80.239 75.439,79.989C74.976,79.74 74.803,79.162 75.052,78.7C75.302,78.237 75.879,78.064 76.342,78.313C76.805,78.562 76.978,79.14 76.729,79.603ZM93.556,72.921L95.152,78.248L90.248,79.718L89.45,77.055L88.91,75.251L88.653,74.392L93.556,72.921ZM20.369,77.241C20.77,77.244 21.143,77.502 21.271,77.905C21.43,78.405 21.153,78.941 20.653,79.101C20.559,79.131 20.464,79.145 20.37,79.146L20.364,79.146C19.961,79.146 19.586,78.887 19.457,78.483C19.297,77.982 19.574,77.446 20.075,77.287C20.171,77.256 20.268,77.241 20.363,77.241L20.369,77.241ZM80.276,78.54C80.027,79.002 79.449,79.175 78.987,78.926C78.524,78.677 78.351,78.099 78.6,77.636C78.85,77.174 79.427,77.001 79.89,77.25C80.353,77.499 80.526,78.077 80.276,78.54ZM86.686,78.281L84.772,78.854L84.552,78.12L86.465,77.547L86.686,78.281ZM15.33,77.282L14.979,77.962L13.205,77.046L13.556,76.365L15.33,77.282ZM4.89,75.448L7.444,70.507L11.992,72.857L11.58,73.655L9.851,77.001L9.439,77.8L4.89,75.448ZM40.65,20.596C40.759,20.602 40.866,20.614 40.972,20.641C41.208,20.7 41.429,20.818 41.61,20.982C41.691,21.055 41.76,21.137 41.826,21.224C44.325,24.935 46.624,28.777 49.022,32.554C49.134,32.742 49.213,32.942 49.242,33.16C49.267,33.348 49.256,33.541 49.21,33.725C49.177,33.856 49.126,33.983 49.059,34.101C48.787,34.578 48.259,34.874 47.71,34.858C47.547,34.853 47.386,34.821 47.234,34.765C47.03,34.689 46.844,34.569 46.691,34.416C46.633,34.358 46.583,34.295 46.534,34.23C44.035,30.519 41.737,26.676 39.339,22.899C39.226,22.711 39.147,22.511 39.118,22.293C39.057,21.832 39.218,21.359 39.548,21.031C39.644,20.936 39.753,20.853 39.871,20.787C40.063,20.679 40.27,20.623 40.488,20.6C40.569,20.596 40.569,20.596 40.65,20.596ZM52.473,10.869C52.623,10.887 52.767,10.914 52.908,10.971C53.293,11.124 53.602,11.437 53.752,11.824C53.806,11.966 53.833,12.11 53.849,12.26L55.307,33.254C55.311,33.368 55.31,33.477 55.293,33.59C55.252,33.849 55.143,34.096 54.979,34.3C54.885,34.416 54.773,34.519 54.649,34.602C54.241,34.877 53.712,34.934 53.255,34.752C53.116,34.696 52.986,34.62 52.869,34.526C52.724,34.408 52.6,34.264 52.508,34.101C52.434,33.971 52.379,33.83 52.347,33.684C52.325,33.587 52.325,33.561 52.315,33.462L50.856,12.468C50.851,12.317 50.857,12.17 50.892,12.022C51.004,11.544 51.353,11.142 51.812,10.965C51.917,10.924 52.026,10.896 52.137,10.88C52.236,10.865 52.261,10.867 52.36,10.864C52.398,10.866 52.435,10.867 52.473,10.869ZM64.443,16.187C64.626,16.203 64.801,16.239 64.969,16.313C65.445,16.524 65.784,16.979 65.85,17.495C65.873,17.677 65.858,17.855 65.821,18.035L62.428,32.176C62.407,32.254 62.403,32.274 62.375,32.35C62.312,32.519 62.218,32.678 62.098,32.814C61.979,32.95 61.835,33.065 61.675,33.15C61.188,33.41 60.581,33.377 60.125,33.066C60,32.981 59.888,32.877 59.795,32.759C59.701,32.64 59.625,32.508 59.57,32.367C59.494,32.17 59.46,31.956 59.472,31.745C59.477,31.654 59.492,31.566 59.511,31.476L62.903,17.335C62.943,17.188 62.995,17.048 63.074,16.917C63.26,16.604 63.56,16.366 63.907,16.256C64.023,16.218 64.141,16.2 64.262,16.188C64.353,16.185 64.353,16.185 64.443,16.187Z" style="" fill="black"/></g></g><text x="0" y="115" fill="#000000" font-size="5px" font-weight="bold" font-family="'Helvetica Neue', Helvetica, Arial-Unicode, Arial, Sans-serif">Created by Cezary Lopacinski</text><text x="0" y="120" fill="#000000" font-size="5px" font-weight="bold" font-family="'Helvetica Neue', Helvetica, Arial-Unicode, Arial, Sans-serif">from the Noun Project</text></svg>