<svg xmlns="http://www.w3.org/2000/svg" xmlns:xlink="http://www.w3.org/1999/xlink" viewBox="0 0 100 125" version="1.1" xml:space="preserve" style="" x="0px" y="0px" fill-rule="evenodd" clip-rule="evenodd" stroke-linejoin="round" stroke-miterlimit="1.41421"><g transform="matrix(1,0,0,1,1.42109e-14,3.6401)"><path d="M29.441,39.704C29.53,39.609 29.631,39.526 29.742,39.457C29.884,39.368 30.041,39.304 30.204,39.267C30.291,39.247 30.313,39.247 30.402,39.236C30.502,39.23 30.501,39.23 30.602,39.231C30.702,39.239 30.702,39.239 30.801,39.254L37.67,40.491C37.758,40.51 37.781,40.512 37.867,40.54C37.995,40.582 38.118,40.641 38.23,40.715C38.629,40.977 38.882,41.425 38.903,41.902C38.911,42.073 38.884,42.237 38.84,42.402L37.346,47.339L41.69,45.459L41.784,45.422C41.87,45.395 41.891,45.386 41.979,45.367C42.111,45.34 42.247,45.33 42.382,45.339C42.894,45.371 43.363,45.673 43.606,46.124C43.67,46.243 43.718,46.371 43.748,46.503C43.768,46.59 43.769,46.613 43.78,46.702L44.021,49.414L47.404,48.547L47.5,48.526C47.586,48.512 47.607,48.507 47.695,48.502C47.825,48.495 47.957,48.505 48.085,48.532C48.572,48.635 48.985,48.982 49.169,49.443C49.218,49.565 49.25,49.693 49.266,49.823C49.276,49.91 49.274,49.932 49.276,50.019L49.244,52.552C49.239,52.641 49.241,52.663 49.228,52.751C49.203,52.917 49.151,53.078 49.074,53.226C48.981,53.404 48.852,53.563 48.697,53.69C48.621,53.753 48.537,53.809 48.45,53.856L39.989,62.317L42.548,64.876C43.133,65.461 43.133,66.412 42.548,66.997L36.494,73.051C35.908,73.637 34.958,73.637 34.372,73.051L31.813,70.492L26.407,75.898C24.674,77.632 21.853,77.631 20.119,75.897L9.807,65.585C8.074,63.852 8.073,61.031 9.807,59.297L15.213,53.892L12.653,51.332C12.067,50.746 12.067,49.796 12.653,49.21L18.707,43.156C19.293,42.571 20.242,42.57 20.828,43.156L23.388,45.716L29.417,39.687L29.441,39.704ZM52.448,52.72C52.405,52.673 52.365,52.622 52.329,52.569C52.215,52.404 52.135,52.216 52.095,52.019C52.075,51.92 52.068,51.822 52.065,51.721L52.06,46.633C52.063,46.544 52.062,46.522 52.073,46.435C52.09,46.303 52.125,46.174 52.176,46.052C52.384,45.557 52.854,45.203 53.387,45.141C53.519,45.126 53.652,45.128 53.783,45.148C53.871,45.161 53.892,45.169 53.977,45.19L57.118,46.099L56.97,40.771L56.971,40.672C56.983,40.504 57.011,40.342 57.072,40.185C57.231,39.778 57.567,39.455 57.979,39.312C58.139,39.257 58.301,39.236 58.47,39.23L61.523,39.23L61.379,35.553L61.379,35.455C61.386,35.324 61.402,35.196 61.44,35.069C61.532,34.755 61.729,34.476 61.994,34.283C62.1,34.205 62.215,34.147 62.336,34.096L64.83,33.13C64.914,33.1 64.935,33.091 65.021,33.07C65.12,33.046 65.218,33.036 65.319,33.029C65.419,33.029 65.419,33.029 65.519,33.036C65.619,33.049 65.717,33.065 65.814,33.095C65.941,33.134 66.063,33.191 66.176,33.262L66.179,33.259L66.193,33.273C66.243,33.306 66.292,33.342 66.338,33.381C66.44,33.467 66.531,33.567 66.607,33.677C66.614,33.687 66.621,33.698 66.627,33.708L77.501,44.581L80.061,42.022C80.647,41.435 81.596,41.435 82.182,42.022L88.236,48.075C88.822,48.661 88.822,49.61 88.236,50.196L85.676,52.756L88.061,55.141C92.638,59.718 92.637,67.166 88.061,71.743C83.484,76.319 76.037,76.32 71.459,71.743L69.074,69.358L66.515,71.917C65.93,72.502 64.98,72.503 64.394,71.917L58.34,65.863C57.754,65.277 57.755,64.327 58.34,63.742L60.9,61.182L52.444,52.726L52.448,52.72ZM31.009,42.339L11.929,61.419C11.365,61.983 11.366,62.9 11.929,63.464L22.242,73.776C22.806,74.34 23.723,74.341 24.288,73.777L24.288,73.777L46.083,51.983L43.056,52.759L42.959,52.78C42.871,52.794 42.849,52.799 42.76,52.804C42.627,52.811 42.493,52.8 42.363,52.771C41.902,52.67 41.508,52.35 41.315,51.92C41.246,51.766 41.21,51.606 41.189,51.439L40.976,49.037L35.57,51.377L35.476,51.413C35.391,51.44 35.371,51.449 35.283,51.468C35.12,51.502 34.951,51.509 34.785,51.488C34.652,51.471 34.522,51.436 34.398,51.385C33.93,51.19 33.584,50.76 33.496,50.26C33.467,50.095 33.466,49.926 33.493,49.761C33.507,49.673 33.515,49.652 33.538,49.566L35.481,43.145L31.009,42.339ZM64.969,36.293L64.419,36.506L64.581,40.671L64.582,40.772C64.571,40.941 64.545,41.104 64.484,41.263C64.328,41.674 63.991,42.002 63.576,42.146C63.415,42.202 63.252,42.224 63.082,42.23L60.012,42.23L60.173,48.07L60.173,48.171C60.166,48.26 60.167,48.282 60.151,48.371C60.128,48.503 60.087,48.632 60.029,48.753C59.811,49.214 59.361,49.539 58.855,49.6C58.722,49.617 58.586,49.615 58.453,49.595C58.365,49.582 58.343,49.574 58.257,49.552L55.062,48.627L55.064,51.106L73.58,69.622C76.988,73.03 82.531,73.03 85.939,69.622C89.346,66.215 89.346,60.67 85.939,57.263L64.969,36.293ZM35.434,69.87L39.367,65.937L37.868,64.439L33.935,68.372L35.434,69.87ZM61.522,64.802L65.455,68.735L66.953,67.236L63.021,63.304L61.522,64.802ZM28.252,60.072C28.624,60.444 28.624,61.047 28.252,61.419C27.881,61.79 27.277,61.79 26.906,61.419C26.535,61.047 26.535,60.444 26.906,60.072C27.277,59.701 27.881,59.701 28.252,60.072ZM73.982,60.283C73.611,60.655 73.007,60.655 72.636,60.283C72.265,59.912 72.265,59.308 72.636,58.937C73.007,58.566 73.611,58.566 73.982,58.937C74.354,59.308 74.354,59.912 73.982,60.283ZM25.633,57.453C26.004,57.824 26.004,58.428 25.633,58.8C25.262,59.171 24.658,59.171 24.287,58.8C23.916,58.428 23.916,57.824 24.287,57.453C24.658,57.082 25.262,57.082 25.633,57.453ZM30.915,57.409C31.286,57.781 31.286,58.384 30.915,58.756C30.544,59.127 29.94,59.127 29.569,58.756C29.198,58.384 29.198,57.781 29.569,57.409C29.94,57.038 30.544,57.038 30.915,57.409ZM76.601,57.664C76.23,58.035 75.626,58.035 75.255,57.664C74.884,57.293 74.884,56.689 75.255,56.318C75.626,55.947 76.23,55.947 76.601,56.318C76.973,56.689 76.973,57.293 76.601,57.664ZM71.319,57.62C70.948,57.992 70.344,57.992 69.973,57.62C69.602,57.249 69.602,56.645 69.973,56.274C70.344,55.903 70.948,55.903 71.319,56.274C71.691,56.645 71.691,57.249 71.319,57.62ZM28.296,54.79C28.667,55.161 28.667,55.765 28.296,56.137C27.925,56.508 27.321,56.508 26.95,56.137C26.579,55.765 26.579,55.161 26.95,54.79C27.321,54.419 27.925,54.419 28.296,54.79ZM73.939,55.001C73.567,55.372 72.963,55.372 72.592,55.001C72.221,54.63 72.221,54.026 72.592,53.655C72.963,53.284 73.567,53.284 73.939,53.655C74.31,54.026 74.31,54.63 73.939,55.001ZM17.335,51.771L21.267,47.838L19.768,46.339L15.835,50.272L17.335,51.771ZM79.622,46.703L83.554,50.636L85.053,49.136L81.121,45.204L79.622,46.703ZM33.005,22.247C33.106,22.256 33.204,22.268 33.302,22.293C33.561,22.361 33.8,22.499 33.988,22.689C34.06,22.762 34.119,22.84 34.177,22.923L45.296,39.908C45.349,39.995 45.397,40.081 45.435,40.175C45.509,40.361 45.545,40.562 45.541,40.763C45.529,41.305 45.215,41.811 44.733,42.061C44.615,42.123 44.488,42.168 44.357,42.196C44.194,42.232 44.024,42.239 43.859,42.219C43.659,42.194 43.466,42.13 43.292,42.029C43.147,41.946 43.016,41.838 42.907,41.711C42.849,41.644 42.838,41.624 42.786,41.552L31.667,24.566C31.621,24.49 31.607,24.472 31.569,24.391C31.511,24.271 31.47,24.143 31.446,24.011C31.362,23.546 31.507,23.058 31.832,22.714C31.924,22.617 32.029,22.532 32.143,22.463C32.286,22.376 32.443,22.313 32.607,22.278C32.694,22.259 32.716,22.259 32.805,22.249C32.905,22.245 32.905,22.245 33.005,22.247ZM50.172,15.53C50.325,15.554 50.471,15.588 50.614,15.652C51.001,15.825 51.302,16.163 51.43,16.568C51.477,16.717 51.494,16.866 51.5,17.021L51.5,39.687C51.496,39.803 51.487,39.915 51.461,40.029C51.399,40.291 51.267,40.534 51.081,40.727C50.948,40.865 50.788,40.978 50.614,41.056C50.474,41.119 50.324,41.16 50.172,41.177C49.711,41.231 49.241,41.062 48.919,40.727C48.813,40.617 48.724,40.49 48.656,40.353C48.588,40.215 48.541,40.068 48.518,39.916C48.502,39.815 48.504,39.789 48.5,39.687L48.5,17.021C48.504,16.919 48.502,16.893 48.518,16.792C48.535,16.678 48.566,16.566 48.609,16.46C48.782,16.029 49.155,15.697 49.603,15.574C49.753,15.533 49.902,15.522 50.057,15.522C50.096,15.525 50.134,15.528 50.172,15.53ZM59.501,24.983C59.71,24.993 59.913,25.035 60.104,25.125C60.614,25.364 60.953,25.885 60.966,26.448C60.97,26.635 60.936,26.816 60.877,26.992C59.82,29.721 58.638,32.399 57.518,35.103C57.424,35.316 57.294,35.506 57.117,35.66C56.977,35.782 56.816,35.877 56.642,35.939C56.468,36.002 56.282,36.032 56.098,36.028C55.559,36.016 55.057,35.705 54.805,35.228C54.73,35.085 54.678,34.929 54.652,34.77C54.61,34.515 54.64,34.262 54.722,34.019C55.779,31.291 56.96,28.612 58.08,25.909C58.137,25.781 58.203,25.661 58.29,25.551C58.477,25.315 58.735,25.139 59.022,25.05C59.134,25.015 59.247,24.997 59.362,24.986C59.432,24.983 59.431,24.983 59.501,24.983Z" style="" fill="black"/></g><text x="0" y="115" fill="#000000" font-size="5px" font-weight="bold" font-family="'Helvetica Neue', Helvetica, Arial-Unicode, Arial, Sans-serif">Created by Cezary Lopacinski</text><text x="0" y="120" fill="#000000" font-size="5px" font-weight="bold" font-family="'Helvetica Neue', Helvetica, Arial-Unicode, Arial, Sans-serif">from the Noun Project</text></svg>