<svg xmlns="http://www.w3.org/2000/svg" xmlns:xlink="http://www.w3.org/1999/xlink" viewBox="0 0 100 125" version="1.1" xml:space="preserve" style="" x="0px" y="0px" fill-rule="evenodd" clip-rule="evenodd" stroke-linejoin="round" stroke-miterlimit="1.41421"><g transform="matrix(1,0,0,1,3.61411,13.0058)"><path d="M35.738,19.879C35.746,18.826 35.755,17.773 35.755,16.72C35.758,16.557 35.781,16.398 35.832,16.243C35.973,15.823 36.3,15.481 36.713,15.321C36.865,15.262 37.023,15.233 37.185,15.221C38.958,15.18 40.732,15.18 42.504,15.221C42.667,15.233 42.824,15.262 42.977,15.321C43.367,15.472 43.682,15.787 43.834,16.178C43.893,16.33 43.922,16.488 43.933,16.651C43.958,17.727 43.964,18.803 43.962,19.879L67.394,19.879C67.444,19.882 67.495,19.882 67.545,19.887C67.646,19.897 67.745,19.917 67.842,19.948C68.23,20.069 68.558,20.349 68.738,20.713C68.783,20.804 68.819,20.899 68.844,20.997C68.857,21.045 68.865,21.095 68.876,21.145L69.218,23.308C69.239,23.255 69.26,23.203 69.281,23.15C69.876,21.708 70.799,20.407 71.961,19.366C72.977,18.455 74.171,17.747 75.459,17.297C76.16,17.051 76.886,16.882 77.623,16.792C78.001,16.746 78.38,16.723 78.761,16.716C78.892,16.716 78.892,16.716 79.023,16.716C79.42,16.724 79.816,16.749 80.21,16.799C81.103,16.913 81.981,17.144 82.815,17.485C84.905,18.339 86.687,19.882 87.836,21.825C88.353,22.699 88.74,23.648 88.981,24.634C89.252,25.743 89.337,26.896 89.236,28.033C89.13,29.229 88.814,30.405 88.306,31.493C87.758,32.664 86.991,33.73 86.055,34.622C85.056,35.574 83.869,36.325 82.579,36.816C81.872,37.085 81.136,37.274 80.389,37.383L80.389,46.477C83.401,46.457 86.412,46.467 89.422,46.575C89.517,46.585 89.541,46.585 89.634,46.605C89.808,46.643 89.976,46.713 90.126,46.809C90.246,46.886 90.355,46.981 90.449,47.089C90.755,47.443 90.88,47.932 90.781,48.39C90.75,48.53 90.7,48.665 90.631,48.79C90.546,48.947 90.432,49.088 90.297,49.205C90.108,49.369 89.878,49.484 89.634,49.537C89.528,49.56 89.423,49.567 89.315,49.571L80.389,49.571L80.389,57.298C80.386,57.398 80.387,57.423 80.372,57.522C80.35,57.67 80.306,57.814 80.241,57.949C80.16,58.117 80.047,58.27 79.909,58.398C79.8,58.499 79.675,58.585 79.54,58.65C79.405,58.714 79.261,58.759 79.113,58.781C78.627,58.855 78.124,58.679 77.79,58.318C77.611,58.126 77.485,57.887 77.427,57.632C77.402,57.521 77.393,57.411 77.389,57.298L77.389,49.571L70.403,49.571L70.403,53.031C70.4,53.08 70.4,53.129 70.395,53.178C70.386,53.275 70.367,53.372 70.338,53.466C70.209,53.892 69.888,54.246 69.477,54.416C69.341,54.473 69.196,54.509 69.05,54.523C69.001,54.528 68.952,54.528 68.903,54.531L67.008,54.531L67.008,55.309C67.005,55.402 66.999,55.493 66.982,55.584C66.943,55.796 66.857,55.999 66.732,56.175C66.643,56.301 66.535,56.413 66.412,56.506C66.289,56.599 66.152,56.672 66.006,56.723C65.475,56.911 64.868,56.778 64.464,56.386C64.331,56.257 64.222,56.104 64.145,55.936C64.081,55.796 64.038,55.646 64.019,55.493C64.009,55.411 64.01,55.391 64.008,55.309L64.008,54.531L29.033,54.531C28.984,54.528 28.935,54.528 28.886,54.523C28.788,54.514 28.692,54.495 28.598,54.466C28.172,54.337 27.818,54.016 27.647,53.605C27.591,53.469 27.555,53.324 27.541,53.178C27.536,53.129 27.536,53.08 27.533,53.031L27.533,49.594C26.424,49.604 25.314,49.602 24.204,49.588C24.118,49.947 23.993,50.296 23.833,50.628C23.559,51.196 23.182,51.713 22.725,52.149C22.268,52.585 21.732,52.938 21.149,53.184C20.505,53.457 19.808,53.597 19.108,53.597C18.409,53.597 17.712,53.457 17.068,53.184C16.819,53.079 16.579,52.954 16.349,52.812C15.705,53.13 15.015,53.356 14.306,53.481C13.018,53.708 11.675,53.6 10.441,53.165C9.484,52.827 8.597,52.296 7.846,51.613C7.204,51.03 6.663,50.337 6.252,49.574C5.306,49.585 4.361,49.584 3.415,49.571C3.204,49.562 2.998,49.515 2.807,49.423C2.63,49.337 2.47,49.217 2.339,49.071C2.217,48.935 2.121,48.777 2.056,48.606C2.001,48.462 1.968,48.309 1.96,48.155C1.952,48.015 1.964,47.874 1.995,47.737C2.093,47.31 2.38,46.94 2.769,46.738C2.97,46.635 3.19,46.581 3.415,46.572C4.066,46.563 4.717,46.559 5.368,46.562C5.31,45.818 5.361,45.065 5.52,44.336C5.673,43.636 5.925,42.957 6.268,42.327C7.104,40.788 8.471,39.562 10.092,38.899C10.705,38.648 11.35,38.478 12.007,38.395C12.296,38.358 12.587,38.34 12.879,38.334C13.013,38.333 13.012,38.334 13.146,38.335C13.425,38.345 13.703,38.363 13.981,38.399C14.521,38.47 15.054,38.6 15.566,38.785C16.416,39.092 17.208,39.551 17.898,40.134C18.624,40.746 19.233,41.494 19.687,42.329C19.841,42.612 19.976,42.905 20.093,43.205C20.58,43.298 21.054,43.46 21.496,43.687C22.509,44.206 23.339,45.056 23.833,46.081C23.908,46.236 23.975,46.395 24.034,46.556C25.2,46.54 26.367,46.538 27.533,46.548L27.533,30.909L27.533,30.909C27.533,30.881 27.534,30.854 27.536,30.826C27.536,30.816 27.537,30.805 27.538,30.794C27.539,30.784 27.539,30.773 27.541,30.762C27.543,30.733 27.547,30.704 27.552,30.675L27.552,30.675L29.06,21.145C29.071,21.095 29.079,21.045 29.092,20.997C29.117,20.899 29.153,20.804 29.198,20.713C29.378,20.349 29.706,20.069 30.094,19.948C30.191,19.917 30.29,19.897 30.391,19.887C30.441,19.882 30.492,19.882 30.542,19.879L35.738,19.879ZM67.008,51.531L67.403,51.531L67.403,42.141C67.301,42.162 67.2,42.181 67.098,42.199C67.068,42.204 67.038,42.209 67.008,42.213L67.008,51.531ZM56.141,32.409L30.533,32.409L30.533,47.565C30.595,47.735 30.626,47.916 30.623,48.101C30.62,48.26 30.591,48.418 30.538,48.569C30.537,48.573 30.535,48.578 30.533,48.582L30.533,51.531L64.008,51.531L64.008,42.214C63.798,42.18 63.59,42.139 63.383,42.091C63.379,42.84 63.371,43.59 63.371,44.339C63.367,44.502 63.345,44.66 63.293,44.815C63.153,45.235 62.825,45.578 62.413,45.737C62.26,45.796 62.103,45.826 61.94,45.837C59.158,45.901 56.374,45.839 53.591,45.839C53.428,45.835 53.269,45.813 53.114,45.761C52.695,45.62 52.352,45.293 52.192,44.881C52.133,44.728 52.104,44.57 52.092,44.408C52.029,41.66 52.091,38.911 52.091,36.163C52.095,36 52.117,35.841 52.169,35.686C52.309,35.267 52.636,34.924 53.049,34.764C53.201,34.705 53.359,34.676 53.522,34.664C54.44,34.643 55.359,34.634 56.278,34.637C56.255,34.512 56.235,34.387 56.217,34.262C56.131,33.649 56.106,33.027 56.141,32.409ZM16.946,43.578C16.781,43.309 16.593,43.056 16.379,42.824C15.854,42.256 15.188,41.822 14.455,41.575C14.076,41.447 13.684,41.374 13.286,41.344C13.163,41.337 13.04,41.333 12.917,41.334C12.318,41.345 11.728,41.464 11.176,41.697C10.02,42.186 9.092,43.148 8.646,44.321C8.475,44.77 8.376,45.246 8.351,45.726C8.327,46.195 8.374,46.668 8.491,47.123C8.627,47.65 8.857,48.151 9.167,48.599C9.506,49.088 9.939,49.51 10.436,49.837C10.956,50.18 11.544,50.415 12.156,50.525C12.635,50.61 13.128,50.62 13.61,50.554C13.815,50.526 14.015,50.483 14.215,50.43L14.285,50.409L14.284,50.407L14.281,50.4C14.274,50.384 14.268,50.369 14.261,50.353C14.252,50.332 14.244,50.31 14.235,50.289L14.232,50.281L14.23,50.275C14.201,50.201 14.173,50.126 14.147,50.05L14.143,50.04L14.14,50.03C14.093,49.889 14.051,49.746 14.016,49.602C14.011,49.581 14.006,49.561 14.001,49.54C13.988,49.483 13.976,49.426 13.964,49.368L13.964,49.366L13.963,49.363L13.962,49.357L13.961,49.35C13.948,49.284 13.937,49.218 13.926,49.151C13.846,48.624 13.846,48.085 13.926,47.558C13.957,47.36 13.998,47.164 14.051,46.971L14.052,46.968L14.052,46.967L14.053,46.966L14.055,46.956C14.089,46.833 14.127,46.713 14.17,46.593C14.194,46.526 14.22,46.458 14.247,46.392L14.247,46.392L14.247,46.391L14.249,46.385L14.253,46.377C14.294,46.277 14.337,46.178 14.384,46.081C14.488,45.865 14.608,45.656 14.741,45.457C14.983,45.091 15.272,44.756 15.598,44.462C15.872,44.215 16.172,43.997 16.491,43.812C16.506,43.804 16.52,43.795 16.535,43.787C16.596,43.753 16.658,43.719 16.721,43.687C16.79,43.652 16.859,43.618 16.929,43.586L16.932,43.585L16.934,43.584L16.946,43.578ZM17.526,49.942C17.717,50.133 17.942,50.288 18.187,50.399C18.458,50.522 18.753,50.589 19.05,50.596C19.35,50.604 19.65,50.552 19.93,50.442C20.182,50.342 20.415,50.196 20.615,50.014C20.815,49.832 20.983,49.614 21.106,49.374C21.206,49.178 21.277,48.968 21.316,48.753C21.359,48.508 21.362,48.257 21.325,48.012C21.223,47.343 20.808,46.745 20.223,46.409C19.933,46.242 19.614,46.148 19.282,46.119C19.205,46.114 19.128,46.112 19.05,46.113C18.878,46.12 18.708,46.143 18.543,46.186C18.376,46.229 18.215,46.29 18.062,46.371C17.873,46.471 17.701,46.598 17.55,46.745L17.546,46.749L17.542,46.752C17.222,47.067 16.996,47.474 16.908,47.919L16.908,47.919L16.906,47.933L16.904,47.943L16.903,47.946L16.901,47.957L16.901,47.958C16.861,48.183 16.855,48.415 16.884,48.642L16.889,48.675L16.89,48.685L16.895,48.713C16.903,48.767 16.914,48.82 16.926,48.872L16.929,48.883C16.989,49.13 17.091,49.365 17.229,49.578L17.243,49.598C17.269,49.637 17.297,49.676 17.326,49.714C17.388,49.794 17.457,49.868 17.526,49.942ZM74.237,36.393C74.154,36.605 74.062,36.814 73.963,37.019C73.473,38.036 72.797,38.963 71.98,39.742C71.499,40.201 70.969,40.608 70.403,40.955L70.403,46.57C72.731,46.562 75.06,46.531 77.389,46.505L77.389,37.384C77.25,37.364 77.112,37.341 76.974,37.315C76.024,37.137 75.1,36.826 74.237,36.393ZM44.414,34.664C44.577,34.676 44.735,34.705 44.887,34.764C45.278,34.915 45.593,35.23 45.744,35.621C45.803,35.773 45.832,35.931 45.844,36.094C45.907,38.841 45.845,41.59 45.845,44.339C45.841,44.502 45.819,44.66 45.767,44.815C45.627,45.235 45.3,45.578 44.887,45.737C44.735,45.796 44.577,45.826 44.414,45.837C41.632,45.901 38.848,45.839 36.065,45.839C35.902,45.835 35.743,45.813 35.588,45.761C35.169,45.62 34.826,45.293 34.666,44.881C34.607,44.728 34.578,44.57 34.567,44.408C34.503,41.66 34.565,38.911 34.565,36.163C34.569,36 34.591,35.841 34.643,35.686C34.783,35.267 35.111,34.924 35.523,34.764C35.676,34.705 35.833,34.676 35.996,34.664C38.801,34.6 41.609,34.6 44.414,34.664ZM57.41,37.69L57.395,37.663L55.091,37.663L55.091,42.839L60.371,42.839L60.371,40.802C60.362,40.796 60.353,40.79 60.344,40.784L60.341,40.782L60.338,40.78L60.335,40.778L60.33,40.774C60.266,40.732 60.202,40.689 60.139,40.645C60.121,40.632 60.103,40.619 60.084,40.606C60.068,40.594 60.051,40.582 60.034,40.57C59.683,40.317 59.349,40.04 59.036,39.742C58.924,39.635 58.814,39.525 58.708,39.413C58.676,39.38 58.645,39.347 58.614,39.313C58.556,39.251 58.5,39.187 58.444,39.123C58.422,39.099 58.401,39.075 58.38,39.05C58.221,38.864 58.069,38.672 57.925,38.474C57.774,38.267 57.631,38.054 57.498,37.836L57.496,37.832L57.494,37.83L57.494,37.83L57.493,37.829C57.481,37.807 57.468,37.786 57.455,37.765L57.441,37.742L57.418,37.703L57.414,37.696L57.41,37.69ZM42.845,37.663L37.565,37.663L37.565,42.839L42.845,42.839L42.845,37.663ZM65.469,26.57C65.445,26.571 65.421,26.571 65.397,26.571C65.146,26.577 64.896,26.594 64.647,26.628C64.38,26.664 64.116,26.717 63.856,26.786L63.853,26.787L63.833,26.792L63.822,26.795L63.812,26.798C63.552,26.87 63.297,26.958 63.049,27.062L63.045,27.063L63.044,27.063C62.423,27.324 61.846,27.685 61.338,28.124L61.326,28.135L61.322,28.138C60.829,28.568 60.401,29.072 60.058,29.631C59.742,30.149 59.504,30.71 59.343,31.295L59.343,31.295C59.335,31.326 59.327,31.358 59.317,31.395L59.317,31.398L59.312,31.416C59.306,31.439 59.301,31.463 59.295,31.487C59.288,31.518 59.281,31.548 59.27,31.597C59.249,31.698 59.23,31.799 59.212,31.901C59.174,32.143 59.146,32.386 59.134,32.631C59.108,33.156 59.146,33.684 59.248,34.2C59.317,34.545 59.414,34.883 59.538,35.212L59.547,35.236L59.556,35.259C59.604,35.382 59.655,35.502 59.71,35.622C59.756,35.719 59.803,35.815 59.853,35.91L59.857,35.918C60.107,36.387 60.412,36.824 60.766,37.218C61.479,38.007 62.384,38.618 63.391,38.974C63.897,39.152 64.426,39.264 64.96,39.31C65.154,39.327 65.349,39.335 65.544,39.333C66.245,39.329 66.943,39.211 67.605,38.981C67.825,38.904 68.04,38.814 68.251,38.715C68.837,38.435 69.379,38.065 69.854,37.623C70.417,37.099 70.884,36.474 71.227,35.786C71.518,35.2 71.717,34.571 71.816,33.925C71.822,33.884 71.828,33.843 71.834,33.801C71.845,33.701 71.857,33.601 71.866,33.501C71.911,32.919 71.887,32.337 71.779,31.764C71.615,30.889 71.263,30.057 70.758,29.327C70.478,28.923 70.152,28.551 69.788,28.221C69.613,28.064 69.43,27.916 69.24,27.777C68.956,27.572 68.656,27.389 68.342,27.233C68.068,27.097 67.784,26.98 67.493,26.885C67.4,26.856 67.307,26.827 67.213,26.801L67.187,26.793L67.177,26.791C66.674,26.657 66.157,26.583 65.638,26.572C65.582,26.571 65.525,26.57 65.469,26.57ZM78.891,34.492C79.39,34.492 79.89,34.442 80.379,34.341C81.028,34.208 81.66,33.986 82.25,33.684C82.91,33.345 83.518,32.907 84.049,32.389C84.622,31.829 85.104,31.177 85.469,30.464C85.856,29.709 86.111,28.888 86.218,28.046C86.336,27.116 86.278,26.165 86.045,25.258C85.798,24.301 85.357,23.398 84.756,22.615C84.124,21.791 83.32,21.103 82.408,20.607C81.746,20.247 81.029,19.99 80.288,19.848C79.921,19.777 79.549,19.738 79.176,19.721C79.049,19.717 78.924,19.715 78.797,19.716C77.998,19.731 77.206,19.864 76.45,20.128C75.615,20.421 74.835,20.865 74.156,21.433C73.393,22.071 72.76,22.862 72.307,23.748C71.976,24.393 71.748,25.083 71.617,25.796L71.611,25.829C71.693,25.898 71.772,25.97 71.852,26.042C71.954,26.137 71.953,26.137 72.053,26.232C72.447,26.622 72.81,27.038 73.133,27.488C73.303,27.724 73.461,27.968 73.608,28.218C73.716,28.403 73.818,28.591 73.913,28.782C74.203,29.366 74.432,29.98 74.595,30.612L74.6,30.631C74.636,30.776 74.67,30.921 74.7,31.067C74.726,31.195 74.749,31.324 74.77,31.454L74.78,31.514L74.79,31.581L74.8,31.649L74.809,31.716L74.817,31.784L74.826,31.852L74.834,31.925L74.838,31.965C74.885,32.412 74.9,32.862 74.883,33.311C75.511,33.713 76.192,34.024 76.911,34.224C77.554,34.402 78.22,34.491 78.887,34.492L78.889,34.492L78.891,34.492ZM35.728,22.879L31.823,22.879L30.789,29.409L56.819,29.409L56.82,29.408C56.866,29.295 56.914,29.183 56.965,29.073L56.965,29.072L56.965,29.071C57.009,28.974 57.055,28.878 57.103,28.782C57.291,28.403 57.506,28.038 57.743,27.689C57.907,27.447 58.081,27.213 58.267,26.988C58.948,26.163 59.769,25.455 60.686,24.904C60.862,24.798 61.041,24.699 61.224,24.605C61.329,24.55 61.436,24.498 61.544,24.448C61.848,24.306 62.16,24.18 62.478,24.071L62.478,24.071L62.479,24.071L62.488,24.068L62.494,24.066L62.499,24.064L62.507,24.061L62.508,24.061L62.508,24.061C62.783,23.968 63.061,23.889 63.342,23.822C63.41,23.806 63.478,23.791 63.547,23.776C63.724,23.738 63.902,23.706 64.081,23.678C64.514,23.612 64.95,23.579 65.387,23.571C65.508,23.57 65.508,23.57 65.629,23.571C65.727,23.573 65.825,23.576 65.923,23.58C66.013,23.584 66.103,23.589 66.193,23.595L66.226,23.597L66.113,22.879L43.944,22.879C43.939,23.587 43.935,24.295 43.935,25.003L43.935,25.006L43.935,25.006C43.934,25.041 43.932,25.077 43.93,25.112L43.928,25.153C43.92,25.201 43.916,25.25 43.906,25.298C43.894,25.36 43.877,25.421 43.857,25.481L43.857,25.482L43.857,25.483L43.856,25.485L43.854,25.491L43.854,25.492L43.854,25.492C43.844,25.522 43.833,25.551 43.821,25.58C43.745,25.761 43.635,25.925 43.498,26.063L43.497,26.063L43.497,26.063L43.494,26.066L43.492,26.068C43.346,26.213 43.171,26.329 42.977,26.404C42.966,26.409 42.955,26.413 42.944,26.416C42.92,26.425 42.895,26.433 42.87,26.441C42.776,26.47 42.68,26.489 42.582,26.498C42.565,26.5 42.548,26.501 42.531,26.502C42.522,26.503 42.513,26.503 42.504,26.504L42.437,26.505L42.435,26.506L42.433,26.506C40.708,26.543 38.982,26.506 37.256,26.506L37.255,26.506L37.255,26.506C37.235,26.505 37.215,26.504 37.195,26.503C37.166,26.502 37.137,26.501 37.108,26.498C37.002,26.488 36.897,26.466 36.795,26.433L36.793,26.433L36.787,26.431L36.784,26.43L36.783,26.429L36.778,26.428C36.768,26.424 36.757,26.421 36.747,26.417L36.745,26.416L36.741,26.415L36.739,26.414L36.738,26.414C36.718,26.407 36.699,26.399 36.681,26.391C36.499,26.316 36.335,26.205 36.198,26.068L36.198,26.068L36.197,26.068L36.194,26.064L36.192,26.063C36.047,25.917 35.931,25.742 35.856,25.547C35.852,25.537 35.848,25.526 35.844,25.515C35.835,25.49 35.827,25.466 35.819,25.441C35.791,25.347 35.772,25.25 35.762,25.153C35.76,25.136 35.759,25.119 35.758,25.102C35.758,25.093 35.757,25.084 35.756,25.075C35.756,25.052 35.755,25.029 35.755,25.007L35.755,25.006L35.755,25.004C35.739,24.296 35.731,23.588 35.728,22.879ZM40.935,18.22L38.755,18.22L38.755,23.506L40.935,23.506L40.935,18.22Z" style="" fill="black"/></g><text x="0" y="115" fill="#000000" font-size="5px" font-weight="bold" font-family="'Helvetica Neue', Helvetica, Arial-Unicode, Arial, Sans-serif">Created by Cezary Lopacinski</text><text x="0" y="120" fill="#000000" font-size="5px" font-weight="bold" font-family="'Helvetica Neue', Helvetica, Arial-Unicode, Arial, Sans-serif">from the Noun Project</text></svg>