<svg xmlns="http://www.w3.org/2000/svg" xmlns:xlink="http://www.w3.org/1999/xlink" version="1.1" x="0px" y="0px" viewBox="0 0 100 125" enable-background="new 0 0 100 100" xml:space="preserve"><g><path d="M73.516,48.205c0.586,0.586,1.535,0.586,2.121,0l6.054-6.054c0.586-0.586,0.586-1.536,0-2.121l-2.56-2.56l2.385-2.385   c4.577-4.577,4.577-12.024,0-16.601c-4.577-4.577-12.025-4.577-16.601,0l-2.385,2.385L59.97,18.31   c-0.586-0.586-1.535-0.586-2.121,0l-6.054,6.054c-0.586,0.586-0.586,1.535,0,2.121l2.559,2.559L29.932,53.466l-2.559-2.559   c-0.586-0.586-1.536-0.586-2.121,0l-6.054,6.054c-0.586,0.586-0.586,1.535,0,2.121l2.559,2.559l-5.406,5.405   c-1.734,1.734-1.734,4.554,0,6.288l10.313,10.313c1.734,1.734,4.554,1.734,6.288,0l5.406-5.405l2.56,2.56   c0.586,0.586,1.536,0.586,2.121,0l6.054-6.054c0.586-0.586,0.586-1.536,0-2.121l-2.56-2.56l24.422-24.422L73.516,48.205z    M78.508,41.091l-3.932,3.932l-1.499-1.499l3.932-3.932L78.508,41.091z M54.977,25.424l3.932-3.932l1.498,1.498l-3.932,3.932   L54.977,25.424z M22.38,58.022l3.933-3.933l1.498,1.498l-3.933,3.933L22.38,58.022z M30.832,81.527   c-0.564,0.564-1.481,0.564-2.045,0L18.473,71.214c-0.564-0.564-0.565-1.482,0-2.046l6.466-6.466l6.054-6.054l26.543-26.543   l6.054-6.054l3.446-3.446c3.407-3.407,8.951-3.407,12.359,0c3.407,3.407,3.407,8.951,0,12.358l-3.446,3.446l-6.054,6.054   L43.352,69.007l-6.054,6.054L30.832,81.527z M45.911,73.688l-3.933,3.933l-1.499-1.499l3.933-3.933L45.911,73.688z"/><circle cx="66.765" cy="30.616" r="0.952"/><circle cx="69.384" cy="33.235" r="0.952"/><circle cx="64.102" cy="33.279" r="0.952"/><circle cx="66.721" cy="35.898" r="0.952"/><circle cx="34.168" cy="63.214" r="0.952"/><circle cx="36.787" cy="65.833" r="0.952"/><circle cx="31.505" cy="65.877" r="0.952"/><circle cx="34.124" cy="68.496" r="0.952"/></g><text x="0" y="115" fill="#000000" font-size="5px" font-weight="bold" font-family="'Helvetica Neue', Helvetica, Arial-Unicode, Arial, Sans-serif">Created by Cezary Lopacinski</text><text x="0" y="120" fill="#000000" font-size="5px" font-weight="bold" font-family="'Helvetica Neue', Helvetica, Arial-Unicode, Arial, Sans-serif">from the Noun Project</text></svg>