<svg xmlns="http://www.w3.org/2000/svg" xmlns:xlink="http://www.w3.org/1999/xlink" viewBox="0 0 100 125" version="1.1" xml:space="preserve" style="" x="0px" y="0px" fill-rule="evenodd" clip-rule="evenodd" stroke-linejoin="round" stroke-miterlimit="1.41421"><g transform="matrix(1,0,0,1,-0.5,-6.12641)"><g><path d="M52.616,58.799C52.551,58.717 52.495,58.628 52.448,58.534C52.41,58.458 52.405,58.437 52.374,58.357L51.168,54.861C51.143,54.78 51.135,54.76 51.118,54.677C51.085,54.521 51.078,54.36 51.096,54.202C51.147,53.756 51.402,53.348 51.781,53.107C51.888,53.038 52.004,52.984 52.125,52.944C52.276,52.896 52.435,52.871 52.595,52.872C52.679,52.872 52.7,52.876 52.785,52.885L58.425,53.637L58.196,50.097L58.193,50.003C58.197,49.844 58.216,49.69 58.265,49.539C58.402,49.116 58.727,48.769 59.14,48.606C59.318,48.535 59.502,48.506 59.693,48.5L63.277,48.5L63.277,47.271L63.28,47.179C63.288,47.086 63.299,46.996 63.322,46.905C63.367,46.726 63.445,46.556 63.552,46.405C63.605,46.329 63.667,46.262 63.731,46.195L64.682,45.271L63.995,42.203L63.976,42.108C63.956,41.946 63.952,41.787 63.979,41.625C64.061,41.141 64.384,40.719 64.83,40.513C64.948,40.459 65.072,40.42 65.2,40.398C65.285,40.383 65.306,40.384 65.392,40.377C65.489,40.376 65.489,40.376 65.586,40.381C65.684,40.393 65.778,40.407 65.872,40.434C65.955,40.458 65.975,40.468 66.055,40.499L68.288,41.467C68.365,41.504 68.386,41.511 68.459,41.555C68.597,41.637 68.721,41.741 68.826,41.862C68.836,41.873 68.845,41.885 68.854,41.896L82.324,55.366L84.883,52.807C85.469,52.221 86.418,52.221 87.004,52.807L93.058,58.861C93.644,59.447 93.644,60.396 93.058,60.982L90.499,63.542L92.884,65.927C97.461,70.503 97.461,77.951 92.884,82.528C88.307,87.105 80.86,87.105 76.283,82.528L73.898,80.143L71.338,82.703C70.753,83.289 69.803,83.289 69.217,82.703L63.163,76.649C62.577,76.063 62.577,75.114 63.163,74.528L65.723,71.967L52.586,58.83L52.616,58.799ZM30.5,42.538C30.529,42.514 30.559,42.49 30.59,42.468C30.659,42.418 30.679,42.409 30.753,42.366L34.096,40.556C34.183,40.513 34.268,40.473 34.361,40.444C34.484,40.406 34.609,40.388 34.737,40.377C34.833,40.376 34.833,40.376 34.929,40.38C35.014,40.39 35.035,40.39 35.119,40.408C35.244,40.434 35.366,40.476 35.48,40.533C35.914,40.75 36.222,41.174 36.294,41.653C36.318,41.813 36.311,41.97 36.289,42.13L35.725,45.401L36.471,45.293L36.568,45.282C36.655,45.278 36.677,45.275 36.764,45.279C36.894,45.286 37.024,45.31 37.148,45.35C37.651,45.513 38.039,45.942 38.152,46.459C38.179,46.587 38.19,46.718 38.184,46.848C38.18,46.935 38.175,46.956 38.162,47.042L37.76,49.283L40.722,49.216L40.816,49.217C40.975,49.229 41.128,49.254 41.278,49.31C41.695,49.465 42.028,49.806 42.173,50.226C42.226,50.377 42.248,50.531 42.255,50.69L42.305,53.522L47.211,52.727L47.307,52.715C47.393,52.709 47.415,52.706 47.501,52.709C47.631,52.713 47.76,52.735 47.884,52.772C48.008,52.809 48.127,52.863 48.238,52.931C48.628,53.172 48.891,53.587 48.941,54.042C48.956,54.171 48.953,54.302 48.934,54.43C48.921,54.516 48.914,54.536 48.893,54.62L47.847,58.28C47.821,58.361 47.817,58.383 47.783,58.461C47.719,58.608 47.632,58.745 47.526,58.865C47.398,59.009 47.242,59.128 47.07,59.213C47.04,59.228 47.009,59.241 46.978,59.254L36.165,70.067L38.725,72.627C39.311,73.212 39.311,74.162 38.725,74.748L32.671,80.802C32.086,81.388 31.136,81.388 30.55,80.802L27.99,78.242L22.584,83.647C20.85,85.381 18.03,85.381 16.296,83.647L5.983,73.334C4.249,71.6 4.249,68.78 5.983,67.046L11.389,61.641L8.83,59.082C8.244,58.496 8.244,57.547 8.83,56.961L14.884,50.907C15.469,50.321 16.419,50.321 17.005,50.907L19.564,53.466L30.496,42.534L30.5,42.538ZM67.689,44.974L67.793,45.435L67.81,45.528C67.822,45.624 67.831,45.718 67.828,45.814C67.819,46.07 67.744,46.321 67.612,46.54C67.545,46.65 67.464,46.746 67.374,46.838L66.277,47.905L66.277,50L66.274,50.094C66.259,50.252 66.23,50.404 66.171,50.552C66.008,50.965 65.662,51.29 65.24,51.427C65.089,51.476 64.935,51.495 64.777,51.5L61.293,51.5L61.537,55.269L61.54,55.364C61.538,55.448 61.539,55.469 61.529,55.553C61.513,55.678 61.481,55.801 61.435,55.919C61.259,56.363 60.87,56.704 60.406,56.821C60.284,56.851 60.157,56.867 60.031,56.866C59.947,56.865 59.926,56.861 59.842,56.853L54.797,56.18L55.122,57.125L68.905,70.907L78.405,80.407C81.812,83.814 87.356,83.814 90.763,80.407C94.17,76.999 94.17,71.455 90.763,68.048L87.317,64.602L67.689,44.974ZM32.374,44.9L8.105,69.168C7.54,69.732 7.541,70.65 8.105,71.214L18.419,81.527C18.983,82.091 19.9,82.091 20.464,81.527L32.984,69.007L45.134,56.857L45.36,56.067L41.076,56.761L40.982,56.773C40.897,56.779 40.876,56.782 40.792,56.779C40.665,56.776 40.538,56.756 40.416,56.72C39.955,56.586 39.578,56.228 39.42,55.773C39.367,55.621 39.344,55.467 39.336,55.307L39.282,52.25L35.993,52.323L35.898,52.323C35.814,52.316 35.793,52.317 35.71,52.303C35.585,52.282 35.463,52.245 35.348,52.193C34.91,51.998 34.586,51.594 34.49,51.125C34.465,51.001 34.455,50.874 34.462,50.747C34.466,50.663 34.471,50.642 34.483,50.559L34.842,48.56L34.111,48.665L34.014,48.676C33.928,48.68 33.906,48.683 33.819,48.679C33.689,48.672 33.56,48.648 33.437,48.609C32.935,48.447 32.547,48.022 32.432,47.507C32.404,47.38 32.392,47.25 32.398,47.12C32.401,47.033 32.406,47.012 32.418,46.926L32.808,44.665L32.374,44.9ZM70.277,79.52L66.345,75.588L67.844,74.089L71.776,78.021L70.277,79.52ZM35.543,73.688L31.61,77.621L30.111,76.122L34.044,72.189L35.543,73.688ZM79.085,70.396C79.085,70.921 78.659,71.348 78.133,71.348C77.608,71.348 77.181,70.921 77.181,70.396C77.181,69.87 77.608,69.444 78.133,69.444C78.659,69.444 79.085,69.87 79.085,70.396ZM23.763,67.544C24.285,67.547 24.708,67.973 24.708,68.496C24.708,69.019 24.285,69.445 23.763,69.448L23.756,69.448C23.231,69.448 22.804,69.021 22.804,68.496C22.804,67.971 23.231,67.544 23.756,67.544L23.763,67.544ZM81.704,67.777C81.704,68.302 81.278,68.729 80.752,68.729C80.227,68.729 79.8,68.302 79.8,67.777C79.8,67.251 80.227,66.825 80.752,66.825C81.278,66.825 81.704,67.251 81.704,67.777ZM76.422,67.733C76.422,68.258 75.996,68.685 75.47,68.685C74.945,68.685 74.518,68.258 74.518,67.733C74.518,67.207 74.945,66.781 75.47,66.781C75.996,66.781 76.422,67.207 76.422,67.733ZM21.144,64.925C21.666,64.928 22.089,65.354 22.089,65.877C22.089,66.4 21.666,66.826 21.144,66.829L21.137,66.829C20.612,66.829 20.185,66.402 20.185,65.877C20.185,65.352 20.612,64.925 21.137,64.925L21.144,64.925ZM26.426,64.881C26.948,64.884 27.371,65.31 27.371,65.833C27.371,66.356 26.948,66.782 26.426,66.785L26.419,66.785C25.894,66.785 25.467,66.358 25.467,65.833C25.467,65.308 25.894,64.881 26.419,64.881L26.426,64.881ZM79.041,65.114C79.041,65.639 78.615,66.066 78.089,66.066C77.564,66.066 77.137,65.639 77.137,65.114C77.137,64.588 77.564,64.162 78.089,64.162C78.615,64.162 79.041,64.588 79.041,65.114ZM23.807,62.262C24.329,62.265 24.752,62.691 24.752,63.214C24.752,63.737 24.329,64.163 23.807,64.166L23.8,64.166C23.275,64.166 22.848,63.739 22.848,63.214C22.848,62.689 23.275,62.262 23.8,62.262L23.807,62.262ZM85.944,55.989L89.876,59.921L88.378,61.419L84.446,57.487L85.944,55.989ZM12.012,58.022L15.945,54.089L17.443,55.587L13.51,59.52L12.012,58.022ZM51.654,26.294C51.829,26.312 51.997,26.346 52.16,26.417C52.58,26.6 52.898,26.975 53.012,27.418C53.048,27.555 53.058,27.692 53.059,27.833L52.537,46.586C52.531,46.679 52.532,46.702 52.516,46.794C52.487,46.966 52.428,47.133 52.341,47.285C52.238,47.467 52.096,47.627 51.927,47.752C51.815,47.834 51.691,47.901 51.56,47.95C51.097,48.122 50.566,48.052 50.164,47.764C50.022,47.662 49.898,47.536 49.799,47.392C49.661,47.19 49.574,46.955 49.546,46.712C49.536,46.619 49.538,46.595 49.538,46.502L50.06,27.75C50.071,27.573 50.1,27.404 50.165,27.239C50.32,26.847 50.641,26.533 51.037,26.385C51.169,26.336 51.304,26.311 51.444,26.296C51.549,26.291 51.549,26.291 51.654,26.294ZM38.089,27.894C38.213,27.904 38.333,27.921 38.452,27.957C38.747,28.048 39.011,28.23 39.2,28.474C39.276,28.573 39.335,28.679 39.388,28.791L45.764,43.387C45.799,43.474 45.83,43.559 45.851,43.65C45.9,43.86 45.902,44.08 45.858,44.292C45.827,44.443 45.773,44.588 45.697,44.723C45.421,45.214 44.877,45.514 44.314,45.486C44.161,45.478 44.008,45.446 43.864,45.392C43.691,45.328 43.53,45.231 43.392,45.108C43.277,45.005 43.178,44.885 43.099,44.752C43.057,44.682 43.05,44.662 43.015,44.588L36.639,29.992C36.609,29.916 36.599,29.898 36.576,29.819C36.532,29.671 36.511,29.517 36.514,29.363C36.525,28.8 36.862,28.278 37.371,28.036C37.541,27.956 37.718,27.915 37.904,27.896C37.997,27.892 37.996,27.892 38.089,27.894ZM61.805,31.019C61.999,31.039 62.184,31.085 62.359,31.172C62.808,31.397 63.121,31.843 63.179,32.341C63.202,32.536 63.182,32.725 63.135,32.915C61.943,36.799 60.541,40.616 59.243,44.467C59.214,44.545 59.184,44.621 59.144,44.694C59.04,44.889 58.893,45.06 58.716,45.191C58.606,45.274 58.484,45.34 58.355,45.389C57.859,45.578 57.286,45.486 56.874,45.151C56.746,45.046 56.635,44.921 56.548,44.78C56.446,44.616 56.376,44.433 56.343,44.243C56.315,44.08 56.314,43.912 56.34,43.749C56.352,43.676 56.358,43.659 56.376,43.587C57.567,39.703 58.97,35.886 60.268,32.035C60.316,31.905 60.373,31.782 60.452,31.667C60.64,31.393 60.918,31.186 61.234,31.085C61.367,31.043 61.501,31.024 61.64,31.015C61.723,31.015 61.722,31.015 61.805,31.019Z" style="" fill="black"/></g></g><text x="0" y="115" fill="#000000" font-size="5px" font-weight="bold" font-family="'Helvetica Neue', Helvetica, Arial-Unicode, Arial, Sans-serif">Created by Cezary Lopacinski</text><text x="0" y="120" fill="#000000" font-size="5px" font-weight="bold" font-family="'Helvetica Neue', Helvetica, Arial-Unicode, Arial, Sans-serif">from the Noun Project</text></svg>