<svg xmlns="http://www.w3.org/2000/svg" xmlns:xlink="http://www.w3.org/1999/xlink" version="1.1" x="0px" y="0px" viewBox="0 0 100 125" enable-background="new 0 0 100 100" xml:space="preserve"><g><path d="M54.489,37.227V35c2.709-1.586,4.42-4.489,4.42-7.673c0-4.913-3.997-8.91-8.91-8.91s-8.91,3.997-8.91,8.91   c0,3.183,1.712,6.087,4.42,7.673v2.227c-10.21,2.085-17.915,11.135-17.915,21.952c0,12.354,10.05,22.404,22.404,22.404   s22.405-10.051,22.405-22.404C72.405,48.362,64.699,39.312,54.489,37.227z M48.51,34.104v-2.05h2.979v2.05v2.281H48.51V34.104z    M44.09,27.327c0-3.259,2.651-5.91,5.91-5.91s5.91,2.651,5.91,5.91c0,1.435-0.521,2.789-1.42,3.838v-0.612v0   c0-0.829-0.671-1.5-1.5-1.5H47.01c-0.829,0-1.5,0.671-1.5,1.5v0v0.612C44.612,30.115,44.09,28.761,44.09,27.327z M50,78.583   c-10.7,0-19.404-8.705-19.404-19.404c0-10.7,8.705-19.404,19.404-19.404s19.405,8.705,19.405,19.404   C69.405,69.878,60.699,78.583,50,78.583z"/><path d="M56.858,46.473c0.04-0.638-0.328-1.232-0.918-1.479c-0.59-0.247-1.271-0.094-1.697,0.384l-6.245,6.982   c-0.19,0.213-0.303,0.474-0.351,0.747c-1.624,0.628-2.966,1.878-3.667,3.552c-0.712,1.702-0.642,3.537,0.038,5.11   c-0.16,0.224-0.264,0.487-0.282,0.769l-0.593,9.349c-0.041,0.638,0.328,1.231,0.917,1.479c0.188,0.078,0.384,0.116,0.579,0.116   c0.418,0,0.828-0.175,1.119-0.5l6.245-6.982c0.19-0.213,0.304-0.474,0.351-0.748c1.623-0.628,2.966-1.878,3.667-3.551   c0.673-1.607,0.68-3.382,0.02-4.994c-0.016-0.04-0.043-0.074-0.06-0.113c0.161-0.225,0.266-0.488,0.284-0.772L56.858,46.473z    M53.589,50.608l-0.185,2.92l-1.766-0.739L53.589,50.608z M46.411,67.75l0.186-2.921l0.875,0.366   c0.003,0.001,0.005,0.003,0.008,0.004c0.003,0.001,0.006,0.002,0.009,0.003l0.874,0.366L46.411,67.75z M53.252,60.541   c-0.551,1.315-1.829,2.165-3.255,2.165c-0.465,0-0.921-0.092-1.355-0.273l-0.007-0.003c-1.791-0.752-2.638-2.821-1.888-4.614   c0.551-1.315,1.828-2.165,3.254-2.165c0.466,0,0.924,0.093,1.36,0.275c0.869,0.363,1.544,1.044,1.901,1.915   C53.62,58.714,53.616,59.672,53.252,60.541z"/><circle cx="35.602" cy="59.179" r="1.826"/><circle cx="64.398" cy="59.179" r="1.826"/><circle cx="50" cy="44.781" r="1.826"/><circle cx="50" cy="73.577" r="1.826"/></g><text x="0" y="115" fill="#000000" font-size="5px" font-weight="bold" font-family="'Helvetica Neue', Helvetica, Arial-Unicode, Arial, Sans-serif">Created by Cezary Lopacinski</text><text x="0" y="120" fill="#000000" font-size="5px" font-weight="bold" font-family="'Helvetica Neue', Helvetica, Arial-Unicode, Arial, Sans-serif">from the Noun Project</text></svg>