<svg xmlns="http://www.w3.org/2000/svg" xmlns:xlink="http://www.w3.org/1999/xlink" version="1.1" x="0px" y="0px" viewBox="0 0 100 125" enable-background="new 0 0 100 100" xml:space="preserve"><g><path d="M68.499,19.502H31.5c-1.729,0-3.136,1.407-3.136,3.136v24.364c0,1.729,1.407,3.136,3.136,3.136h12.047v7.894h0.75v-7.894   v-1.268V35.01c0-0.828,0.673-1.501,1.501-1.501S47.3,34.183,47.3,35.01v6.48h0.75c0-0.828,0.673-1.501,1.501-1.501   c0.827,0,1.501,0.673,1.501,1.501h0.75c0-0.828,0.674-1.501,1.501-1.501s1.501,0.673,1.501,1.501h0.75   c0-0.828,0.673-1.501,1.501-1.501s1.501,0.673,1.501,1.501v7.381v1.268v30.358h0.75V50.139h9.193c1.729,0,3.137-1.407,3.137-3.136   V22.639C71.636,20.909,70.229,19.502,68.499,19.502z M57.055,39.24c-0.782,0-1.473,0.401-1.876,1.008   c-0.403-0.607-1.094-1.008-1.876-1.008s-1.473,0.401-1.876,1.008c-0.403-0.607-1.094-1.008-1.876-1.008   c-0.576,0-1.103,0.218-1.501,0.575V35.01c0-1.241-1.01-2.251-2.251-2.251s-2.251,1.01-2.251,2.251v13.111H32.487V21.52h35.026   v26.602h-8.207v-6.631C59.306,40.25,58.296,39.24,57.055,39.24z M70.886,47.003c0,1.316-1.07,2.386-2.387,2.386h-9.193v-0.518   h8.957V20.77H31.737v28.102h11.811v0.518H31.5c-1.316,0-2.386-1.07-2.386-2.386V22.639c0-1.316,1.07-2.386,2.386-2.386h36.999   c1.316,0,2.387,1.07,2.387,2.386V47.003z"/><path d="M46.174,31.449v-1.818l0.884,0.883l0.529-0.53l-1.8-1.8l-1.777,1.777l0.531,0.53l0.883-0.883v1.84   c-1.8,0.19-3.212,1.7-3.212,3.549h0.75c0-1.564,1.273-2.837,2.837-2.837s2.837,1.273,2.837,2.837h0.75   C49.386,33.148,47.973,31.639,46.174,31.449z"/></g><text x="0" y="115" fill="#000000" font-size="5px" font-weight="bold" font-family="'Helvetica Neue', Helvetica, Arial-Unicode, Arial, Sans-serif">Created by Cezary Lopacinski</text><text x="0" y="120" fill="#000000" font-size="5px" font-weight="bold" font-family="'Helvetica Neue', Helvetica, Arial-Unicode, Arial, Sans-serif">from the Noun Project</text></svg>