<svg xmlns="http://www.w3.org/2000/svg" xmlns:xlink="http://www.w3.org/1999/xlink" version="1.1" x="0px" y="0px" viewBox="0 0 100 125" enable-background="new 0 0 100 100" xml:space="preserve"><g><path d="M72.36,48.299c0.586,0.586,1.535,0.586,2.121,0l6.054-6.054c0.586-0.586,0.586-1.536,0-2.121l-2.7-2.7   c3.713-4.973,5.921-12.622,1.819-16.724c-4.101-4.101-11.746-1.895-16.723,1.82l-2.701-2.701c-0.586-0.586-1.535-0.586-2.121,0   l-6.054,6.054c-0.586,0.586-0.586,1.535,0,2.121l2.596,2.596L35.289,50.173l-2.707-2.707c-0.586-0.586-1.536-0.586-2.121,0   l-6.054,6.054c-0.586,0.586-0.586,1.535,0,2.121l2.754,2.754l-2.073,2.097c-0.059,0.06-0.113,0.125-0.161,0.194l-5.587,7.974   c-1.633,1.741-1.6,4.485,0.1,6.185l5.363,5.363c1.691,1.691,4.417,1.733,6.159,0.125l8.252-5.273   c0.084-0.054,0.163-0.116,0.235-0.185l2.131-2.06l3.133,3.133c0.586,0.586,1.536,0.586,2.121,0l6.054-6.054   c0.586-0.586,0.586-1.536,0-2.121l-2.995-2.995l19.802-19.143L72.36,48.299z M29.088,56.079l-1.499-1.499l3.933-3.933l1.499,1.499   L29.088,56.079z M48.208,67.334l1.498,1.498l-3.933,3.933l-1.498-1.498L48.208,67.334z M73.421,45.117l-1.498-1.498l3.932-3.932   l1.498,1.498L73.421,45.117z M56.735,28.431l-1.499-1.499L59.169,23l1.499,1.499L56.735,28.431z M37.471,72.612l-8.248,5.271   c-0.091,0.058-0.176,0.126-0.253,0.203c-0.564,0.564-1.482,0.563-2.046-0.001l-5.363-5.363c-0.564-0.564-0.564-1.481,0-2.045   c0.061-0.061,0.117-0.128,0.167-0.2l5.582-7.966l35.742-36.154c3.627-3.627,11.305-6.71,14.48-3.536s0.092,10.853-3.517,14.462   L37.471,72.612z"/><circle cx="66.317" cy="31.418" r="0.952"/><circle cx="68.936" cy="34.037" r="0.952"/><circle cx="63.654" cy="34.081" r="0.952"/><circle cx="66.273" cy="36.699" r="0.952"/><circle cx="38.669" cy="59.065" r="0.952"/><circle cx="41.288" cy="61.684" r="0.952"/><circle cx="36.006" cy="61.728" r="0.952"/><circle cx="38.625" cy="64.347" r="0.952"/></g><text x="0" y="115" fill="#000000" font-size="5px" font-weight="bold" font-family="'Helvetica Neue', Helvetica, Arial-Unicode, Arial, Sans-serif">Created by Cezary Lopacinski</text><text x="0" y="120" fill="#000000" font-size="5px" font-weight="bold" font-family="'Helvetica Neue', Helvetica, Arial-Unicode, Arial, Sans-serif">from the Noun Project</text></svg>