<svg xmlns="http://www.w3.org/2000/svg" xmlns:xlink="http://www.w3.org/1999/xlink" version="1.1" x="0px" y="0px" viewBox="0 0 100 125" enable-background="new 0 0 100 100" xml:space="preserve"><g><path d="M69.215,37.388l0.97,0.97c0.293,0.293,0.677,0.439,1.061,0.439s0.768-0.146,1.061-0.439c0.586-0.586,0.586-1.536,0-2.121   l-2.064-2.064c0,0,0-0.001-0.001-0.001c0,0,0,0-0.001,0l-2.031-2.03c-0.586-0.586-1.535-0.586-2.121,0s-0.586,1.536,0,2.121   l1.004,1.004l-1.801,1.859c-2.737-2.49-6.082-4.32-9.783-5.244v-5.576h3.615c0.828,0,1.5-0.671,1.5-1.5s-0.672-1.5-1.5-1.5H54.01   H45.99h-5.115c-0.829,0-1.5,0.671-1.5,1.5s0.671,1.5,1.5,1.5h3.615v5.576c-9.888,2.47-17.235,11.425-17.235,22.068   c0,12.542,10.204,22.745,22.746,22.745c12.542,0,22.746-10.203,22.746-22.745c0-5.582-2.024-10.697-5.373-14.659L69.215,37.388z    M47.49,26.306h5.021v5.039c-0.825-0.091-1.662-0.142-2.51-0.142c-0.849,0-1.685,0.051-2.51,0.142V26.306z M50,73.694   c-10.888,0-19.746-8.857-19.746-19.745c0-9.629,6.931-17.657,16.063-19.389c0.609-0.115,1.213-0.204,1.813-0.262   c0.269-0.025,0.545-0.027,0.817-0.041c0.697-0.039,1.394-0.039,2.09-0.001c0.278,0.015,0.559,0.016,0.833,0.042   c0.6,0.059,1.204,0.147,1.814,0.263c9.131,1.732,16.061,9.761,16.061,19.389C69.746,64.837,60.888,73.694,50,73.694z"/><path d="M40.942,43.037c-0.594-0.578-1.543-0.565-2.121,0.028c-0.578,0.594-0.565,1.543,0.028,2.121l10.104,9.838   c0.292,0.283,0.669,0.425,1.046,0.425c0.391,0,0.781-0.151,1.075-0.453c0.578-0.594,0.565-1.544-0.028-2.122L40.942,43.037z"/></g><text x="0" y="115" fill="#000000" font-size="5px" font-weight="bold" font-family="'Helvetica Neue', Helvetica, Arial-Unicode, Arial, Sans-serif">Created by Cezary Lopacinski</text><text x="0" y="120" fill="#000000" font-size="5px" font-weight="bold" font-family="'Helvetica Neue', Helvetica, Arial-Unicode, Arial, Sans-serif">from the Noun Project</text></svg>