<svg xmlns="http://www.w3.org/2000/svg" xmlns:xlink="http://www.w3.org/1999/xlink" viewBox="0 0 100 125" version="1.1" xml:space="preserve" style="" x="0px" y="0px" fill-rule="evenodd" clip-rule="evenodd" stroke-linejoin="round" stroke-miterlimit="1.41421"><g transform="matrix(1,0,0,1,0,-2.42887)"><g><path d="M32.259,40.409L32.262,40.404C32.351,40.233 32.473,40.08 32.62,39.956C32.742,39.852 32.881,39.768 33.029,39.708C33.109,39.676 33.13,39.671 33.212,39.647L38.105,38.366C38.201,38.344 38.293,38.329 38.39,38.32C38.487,38.317 38.486,38.317 38.583,38.32C38.668,38.329 38.689,38.329 38.773,38.345C38.9,38.37 39.022,38.411 39.138,38.467C39.576,38.678 39.89,39.101 39.967,39.582C39.987,39.709 39.991,39.838 39.978,39.966C39.969,40.051 39.963,40.072 39.947,40.156L38.712,45.484L42.36,46.849L42.447,46.884C42.56,46.939 42.668,47 42.767,47.079C43.038,47.293 43.228,47.601 43.301,47.938C43.334,48.093 43.338,48.247 43.327,48.405L43.242,49.238L46.617,48.532L46.712,48.515C46.797,48.506 46.818,48.501 46.904,48.5C47.032,48.498 47.161,48.513 47.285,48.544C47.758,48.661 48.152,49.01 48.325,49.465C48.371,49.585 48.402,49.711 48.415,49.838C48.425,49.923 48.423,49.945 48.424,50.03L48.314,55.439C48.31,55.524 48.311,55.546 48.298,55.631C48.274,55.789 48.225,55.944 48.153,56.087C48.066,56.258 47.945,56.413 47.8,56.539C47.752,56.582 47.7,56.621 47.646,56.657L37.505,66.455L40.629,69.579C41.215,70.164 41.215,71.114 40.629,71.7L34.576,77.753C33.991,78.339 33.041,78.339 32.455,77.753L29.61,74.908L23.206,83.28C23.165,83.332 23.122,83.381 23.075,83.428C21.341,85.162 18.521,85.162 16.787,83.428L5.059,71.7C3.325,69.966 3.325,67.146 5.059,65.412C5.103,65.367 5.15,65.326 5.199,65.288L13.522,58.819L10.734,56.031C10.148,55.445 10.148,54.496 10.734,53.91L16.787,47.857C17.372,47.271 18.322,47.271 18.908,47.857L22.041,50.99L32.259,40.409ZM54.099,56.72C54.06,56.699 54.021,56.675 53.984,56.65C53.798,56.524 53.642,56.356 53.529,56.162C53.48,56.078 53.444,55.991 53.409,55.9L52.211,52.446C52.186,52.365 52.178,52.345 52.16,52.262C52.127,52.105 52.12,51.944 52.138,51.785C52.153,51.658 52.183,51.533 52.229,51.414C52.404,50.962 52.797,50.616 53.267,50.499C53.422,50.46 53.583,50.447 53.743,50.459C53.828,50.466 53.848,50.471 53.932,50.486L58.186,51.366L58.064,50.151L58.057,50.056C58.057,49.971 58.055,49.95 58.062,49.865C58.074,49.739 58.101,49.614 58.144,49.494C58.187,49.375 58.245,49.26 58.316,49.155C58.569,48.785 58.984,48.543 59.431,48.505C59.558,48.495 59.686,48.5 59.811,48.522C59.894,48.536 59.914,48.544 59.996,48.566L61.286,48.962L60.643,45.117L60.63,45.022C60.624,44.937 60.62,44.916 60.623,44.83C60.626,44.703 60.646,44.575 60.681,44.453C60.806,44.02 61.128,43.659 61.544,43.485C61.662,43.436 61.786,43.402 61.913,43.384C62.039,43.366 62.168,43.364 62.295,43.379C62.379,43.389 62.4,43.395 62.483,43.413L64.329,43.871L64.372,41.075L64.377,40.98C64.394,40.821 64.426,40.669 64.488,40.521C64.647,40.138 64.965,39.834 65.354,39.69C65.505,39.635 65.659,39.61 65.818,39.599C65.913,39.599 65.913,39.599 66.008,39.604C66.091,39.615 66.113,39.615 66.195,39.633C66.278,39.652 66.297,39.66 66.378,39.686L69.795,40.909C69.875,40.941 69.895,40.947 69.972,40.986C70.036,41.019 70.099,41.057 70.158,41.099L70.159,41.098L70.162,41.102C70.232,41.152 70.298,41.207 70.358,41.268C70.401,41.312 70.441,41.358 70.478,41.407L81.676,52.221L84.42,49.477C85.006,48.891 85.955,48.891 86.541,49.477L92.595,55.531C93.181,56.117 93.181,57.066 92.595,57.652L89.994,60.253L92.402,62.578C97.219,67.395 97.55,75.483 93.128,79.905C88.705,84.327 80.618,83.997 75.819,79.198L73.475,76.772L70.875,79.372C70.29,79.958 69.34,79.958 68.754,79.372L62.7,73.318C62.114,72.732 62.114,71.783 62.7,71.197L65.439,68.458L54.099,56.72ZM34.495,42.412L23.158,54.152C21.645,55.82 19.979,57.446 18.236,58.952L7.127,67.589C6.617,68.156 6.634,69.032 7.18,69.578L18.908,81.305C19.452,81.85 20.326,81.869 20.894,81.363L28.861,70.952C30.432,69.12 32.074,67.432 33.794,65.868L45.328,54.724L45.386,51.854L41.85,52.594L41.757,52.61C41.569,52.631 41.384,52.629 41.198,52.585C40.672,52.461 40.245,52.051 40.099,51.532C40.047,51.348 40.037,51.163 40.05,50.974L40.225,49.253L36.428,47.832L36.341,47.797C36.199,47.728 36.067,47.648 35.949,47.541C35.645,47.267 35.464,46.871 35.454,46.462C35.451,46.335 35.468,46.213 35.493,46.089L36.464,41.897L34.495,42.412ZM68.443,43.612L67.339,43.217L67.299,45.804L67.295,45.9C67.285,45.985 67.285,46.007 67.267,46.091C67.24,46.216 67.198,46.339 67.14,46.454C66.922,46.889 66.494,47.196 66.012,47.266C65.885,47.284 65.755,47.286 65.628,47.271C65.543,47.261 65.522,47.255 65.438,47.237L63.978,46.875L64.645,50.859L64.658,50.954C64.664,51.038 64.667,51.06 64.665,51.144C64.661,51.303 64.632,51.461 64.578,51.611C64.535,51.731 64.477,51.845 64.406,51.95C64.154,52.321 63.738,52.564 63.291,52.602C63.164,52.612 63.036,52.607 62.911,52.585C62.827,52.571 62.807,52.563 62.726,52.541L61.275,52.096L61.377,53.098L61.383,53.191C61.384,53.381 61.363,53.564 61.3,53.744C61.122,54.253 60.671,54.635 60.14,54.726C59.952,54.759 59.767,54.75 59.58,54.717L55.911,53.959L56.083,54.456L77.958,77.096C81.544,80.681 87.772,81.018 91.006,77.784C94.24,74.549 93.903,68.322 90.299,64.718L68.443,43.612ZM71.313,74.692L69.815,76.19L65.883,72.258L67.381,70.76L71.313,74.692ZM35.948,69.139L37.446,70.637L33.514,74.569L32.016,73.071L35.948,69.139ZM78.622,67.066C78.622,67.591 78.196,68.018 77.67,68.018C77.145,68.018 76.718,67.591 76.718,67.066C76.718,66.54 77.145,66.114 77.67,66.114C78.196,66.114 78.622,66.54 78.622,67.066ZM25.666,64.493C26.188,64.496 26.611,64.921 26.611,65.445C26.611,65.968 26.188,66.394 25.666,66.397L25.659,66.397C25.134,66.397 24.707,65.97 24.707,65.445C24.707,64.919 25.134,64.493 25.659,64.493L25.666,64.493ZM81.241,64.447C81.241,64.972 80.815,65.399 80.289,65.399C79.764,65.399 79.337,64.972 79.337,64.447C79.337,63.921 79.764,63.495 80.289,63.495C80.815,63.495 81.241,63.921 81.241,64.447ZM75.959,64.403C75.959,64.928 75.533,65.355 75.007,65.355C74.482,65.355 74.055,64.928 74.055,64.403C74.055,63.877 74.482,63.451 75.007,63.451C75.533,63.451 75.959,63.877 75.959,64.403ZM23.047,61.874C23.569,61.877 23.992,62.302 23.992,62.826C23.992,63.349 23.569,63.775 23.047,63.778L23.04,63.778C22.515,63.778 22.088,63.351 22.088,62.826C22.088,62.3 22.515,61.874 23.04,61.874L23.047,61.874ZM28.329,61.83C28.851,61.833 29.274,62.258 29.274,62.782C29.274,63.305 28.851,63.731 28.329,63.734L28.322,63.734C27.797,63.734 27.37,63.307 27.37,62.782C27.37,62.256 27.797,61.83 28.322,61.83L28.329,61.83ZM78.578,61.784C78.578,62.309 78.152,62.736 77.626,62.736C77.101,62.736 76.674,62.309 76.674,61.784C76.674,61.258 77.101,60.832 77.626,60.832C78.152,60.832 78.578,61.258 78.578,61.784ZM25.71,59.211C26.232,59.214 26.655,59.639 26.655,60.163C26.655,60.686 26.232,61.112 25.71,61.115L25.703,61.115C25.178,61.115 24.751,60.688 24.751,60.163C24.751,59.637 25.178,59.211 25.703,59.211L25.71,59.211ZM83.982,54.158L85.481,52.659L89.413,56.591L87.914,58.09L83.982,54.158ZM15.414,56.469L13.915,54.97L17.847,51.038L19.346,52.537L15.414,56.469ZM55.032,20.135C55.139,20.148 55.166,20.149 55.27,20.175C55.388,20.204 55.501,20.248 55.608,20.305C56.002,20.515 56.288,20.899 56.375,21.337C56.399,21.455 56.408,21.577 56.402,21.698C56.401,21.738 56.395,21.778 56.392,21.818L53.262,46.53C53.244,46.636 53.243,46.663 53.212,46.766C53.167,46.921 53.096,47.068 53.004,47.2C52.911,47.332 52.798,47.449 52.668,47.545C52.31,47.812 51.84,47.905 51.407,47.796C51.251,47.757 51.101,47.692 50.965,47.605C50.83,47.518 50.708,47.409 50.607,47.284C50.429,47.064 50.316,46.795 50.284,46.515C50.269,46.393 50.275,46.275 50.285,46.153L53.416,21.441C53.422,21.401 53.428,21.361 53.436,21.322C53.461,21.203 53.5,21.088 53.552,20.979C53.728,20.614 54.051,20.331 54.436,20.204C54.551,20.166 54.67,20.143 54.791,20.134C54.831,20.131 54.871,20.131 54.912,20.129C54.952,20.131 54.992,20.133 55.032,20.135ZM42.347,26.828C42.473,26.843 42.595,26.865 42.715,26.906C43.043,27.02 43.325,27.249 43.505,27.546C43.587,27.682 43.641,27.827 43.682,27.98L47.219,43.032C47.238,43.125 47.253,43.216 47.257,43.311C47.267,43.531 47.227,43.752 47.142,43.955C47.081,44.1 46.997,44.235 46.894,44.354C46.792,44.473 46.671,44.576 46.536,44.657C46.073,44.938 45.478,44.945 45.009,44.674C44.846,44.58 44.701,44.455 44.583,44.307C44.486,44.184 44.408,44.045 44.353,43.898C44.324,43.82 44.32,43.799 44.298,43.718L40.762,28.666C40.724,28.479 40.71,28.294 40.738,28.105C40.812,27.601 41.147,27.16 41.611,26.953C41.787,26.875 41.969,26.839 42.159,26.825C42.253,26.824 42.253,26.824 42.347,26.828ZM64.837,28.266C65.044,28.281 65.243,28.327 65.431,28.42C65.546,28.477 65.654,28.549 65.751,28.634C66.104,28.941 66.296,29.408 66.261,29.874C66.246,30.083 66.184,30.278 66.092,30.464C64.15,33.928 62.033,37.29 60.002,40.702C59.961,40.767 59.918,40.831 59.869,40.891C59.754,41.03 59.614,41.148 59.457,41.237C58.981,41.509 58.378,41.496 57.913,41.204C57.782,41.121 57.665,41.018 57.565,40.9C57.449,40.762 57.358,40.603 57.298,40.433C57.239,40.263 57.21,40.082 57.214,39.902C57.219,39.667 57.282,39.445 57.386,39.235C59.328,35.772 61.446,32.41 63.476,28.997C63.532,28.91 63.59,28.826 63.661,28.75C63.835,28.56 64.058,28.417 64.304,28.337C64.427,28.297 64.553,28.277 64.682,28.267C64.76,28.264 64.759,28.264 64.837,28.266Z" style="" fill="black"/></g></g><text x="0" y="115" fill="#000000" font-size="5px" font-weight="bold" font-family="'Helvetica Neue', Helvetica, Arial-Unicode, Arial, Sans-serif">Created by Cezary Lopacinski</text><text x="0" y="120" fill="#000000" font-size="5px" font-weight="bold" font-family="'Helvetica Neue', Helvetica, Arial-Unicode, Arial, Sans-serif">from the Noun Project</text></svg>