<?xml version="1.0" encoding="utf-8"?>
<!-- Generator: Adobe Illustrator 19.0.0, SVG Export Plug-In . SVG Version: 6.00 Build 0)  -->
<svg version="1.1" id="Layer_1" xmlns="http://www.w3.org/2000/svg" xmlns:xlink="http://www.w3.org/1999/xlink" x="0px" y="0px"
	 width="100px" height="100px" viewBox="34 -30 100 100" style="enable-background:new 34 -30 100 100;" xml:space="preserve">
<style type="text/css">
	.st0{fill:#FFFFFF;}
</style>
<g>
	<path class="st0" d="M132.6-2.7l-5.7-5.7c-0.6-0.6-1.5-0.6-2.1,0l-0.6,0.6l-1.5-1.5c0.7-1.1,1.1-2.4,1.1-3.7c0-1.8-0.7-3.5-2-4.8
		c-1.3-1.3-3-2-4.8-2c-1.3,0-2.6,0.4-3.7,1.1l-1.5-1.5l0.6-0.6c0.6-0.6,0.6-1.5,0-2.1l-5.7-5.7c-0.3-0.3-0.7-0.4-1.1-0.4
		s-0.8,0.2-1.1,0.4l-6.1,6.1c-0.6,0.6-0.6,1.5,0,2.1l5.7,5.7c0.3,0.3,0.7,0.4,1.1,0.4s0.8-0.2,1.1-0.4l0.6-0.6l1.3,1.3
		c-1.1,0.8-2.5,1.3-3.8,1.3l-0.6,0l-0.3,0c0,0-0.1,0-0.1,0c-0.2,0-0.5,0-0.7,0l-0.2,0c-0.2,0-0.4,0-0.6,0.1l-0.2,0
		c-0.2,0-0.4,0.1-0.6,0.1l-0.2,0c-0.2,0.1-0.5,0.2-0.7,0.3l-0.1,0c-0.2,0.1-0.4,0.2-0.6,0.3c-0.1,0-0.1,0.1-0.2,0.1
		c-0.2,0.1-0.3,0.2-0.5,0.3c-0.1,0-0.1,0.1-0.2,0.1c-0.2,0.2-0.4,0.3-0.6,0.5l-23,23.9L53.3,34.1c-0.2,0.2-0.4,0.4-0.5,0.6l-0.1,0.2
		c-0.1,0.2-0.2,0.3-0.3,0.5c0,0.1-0.1,0.1-0.1,0.2c-0.1,0.2-0.2,0.4-0.3,0.6c0,0,0,0.1-0.1,0.1c-0.1,0.2-0.2,0.5-0.2,0.7l-0.1,0.2
		c0,0.2-0.1,0.4-0.1,0.6l0,0.2c0,0.2-0.1,0.4-0.1,0.6c0,0,0,0.1,0,0.1c0,0.2,0,0.5,0,0.7l0,0.2c0,0.2,0,0.4,0,0.6c0,0,0,0.1,0,0.1
		c0,1.4-0.4,2.8-1.3,4L48.6,43l0.6-0.6c0.6-0.6,0.6-1.5,0-2.1l-5.7-5.7c-0.6-0.6-1.5-0.6-2.1,0l-6.1,6.1c-0.6,0.6-0.6,1.5,0,2.1
		l5.7,5.7c0.3,0.3,0.7,0.4,1.1,0.4s0.8-0.1,1.1-0.4l0.6-0.6l1.5,1.5c-0.7,1.1-1.1,2.4-1.1,3.7c0,1.8,0.7,3.5,2,4.8
		c1.3,1.3,3,2,4.8,2c1.3,0,2.6-0.4,3.7-1.1l1.5,1.5l-0.6,0.6c-0.6,0.6-0.6,1.5,0,2.1l5.7,5.7c0.3,0.3,0.7,0.4,1.1,0.4
		s0.8-0.1,1.1-0.4l6.1-6.1c0.6-0.6,0.6-1.5,0-2.1l-5.7-5.7c-0.6-0.6-1.5-0.6-2.1,0L61,55.4L59.7,54c1.1-0.8,2.5-1.3,3.8-1.3l0.2,0
		c0,0,0.1,0,0.1,0l0.3,0l0.4,0c0.2,0,0.5,0,0.7,0l0.2,0c0.2,0,0.4,0,0.6-0.1l0.2,0c0.2,0,0.4-0.1,0.6-0.1l0.2,0
		c0.2-0.1,0.5-0.2,0.7-0.2l0.1-0.1c0.2-0.1,0.4-0.2,0.6-0.3l0.2-0.1c0.2-0.1,0.3-0.2,0.5-0.3l0.2-0.1c0.2-0.2,0.4-0.3,0.6-0.6
		l20.9-21.8l23.9-23c0.2-0.2,0.4-0.4,0.5-0.6c0-0.1,0.1-0.1,0.1-0.2c0.1-0.2,0.2-0.3,0.3-0.5l0.1-0.2c0.1-0.2,0.2-0.4,0.3-0.6
		c0,0,0-0.1,0.1-0.1c0.1-0.2,0.2-0.5,0.2-0.7l0.1-0.2c0-0.2,0.1-0.4,0.1-0.5l0-0.3c0-0.2,0.1-0.4,0.1-0.6c0,0,0-0.1,0-0.2
		c0-0.2,0-0.5,0-0.7l0-0.2c0-0.2,0-0.4,0-0.6c0,0,0-0.1,0-0.1c0-1.4,0.4-2.8,1.3-4l1.3,1.3l-0.6,0.6c-0.6,0.6-0.6,1.5,0,2.1l5.7,5.7
		c0.3,0.3,0.7,0.4,1.1,0.4s0.8-0.1,1.1-0.4l6.1-6.1C133.2-1.1,133.2-2.1,132.6-2.7z M101.7-21.5l3.9-3.9l3.6,3.6l-2,2l-1.3,1.3l0,0
		l-0.6,0.6L101.7-21.5z M109.7-18l1.4,1.4l-0.5,0.5l-1.4-1.4L109.7-18z M38.5,41.6l3.9-3.9l3.6,3.6l-0.6,0.6l-2.7,2.7l-0.6,0.6
		L38.5,41.6z M47.9,46.5l-0.5,0.5L46,45.7l0.5-0.5L47.9,46.5z M66.3,61.5l-3.9,3.9l-3.6-3.6l0.6-0.6l2.7-2.7l0.6-0.6L66.3,61.5z
		 M56.9,56.6l0.5-0.5l1.4,1.4L58.3,58L56.9,56.6z M113.8-0.2c0,0.2,0,0.3,0,0.5l0,0.1c0,0.2,0,0.4,0,0.6l0,0.1c0,0.1,0,0.3-0.1,0.4
		l0,0.2c0,0.1-0.1,0.2-0.1,0.4c0,0,0,0.1,0,0.1c0,0.1-0.1,0.3-0.1,0.4c0,0,0,0.1,0,0.1c0,0.1-0.1,0.2-0.2,0.3l-0.1,0.1
		c-0.1,0.1-0.1,0.2-0.2,0.2c0,0-0.1,0.1-0.1,0.1c-0.1,0.1-0.2,0.2-0.2,0.3l-24,23.1L67.8,48.6c-0.1,0.1-0.2,0.2-0.3,0.3l-0.1,0.1
		c-0.1,0.1-0.2,0.1-0.3,0.2L67,49.2c-0.1,0.1-0.2,0.1-0.3,0.2l-0.1,0c-0.1,0.1-0.3,0.1-0.4,0.1l-0.1,0c-0.1,0-0.2,0.1-0.4,0.1
		l-0.2,0c-0.1,0-0.3,0-0.4,0.1c0,0-0.1,0-0.1,0c-0.2,0-0.4,0-0.5,0l-0.3,0l-0.3,0c-2.6-0.1-5.2,1-7.1,2.9l-3,3
		c-1.4,1.4-3.9,1.4-5.3,0C47.6,55,47.2,54,47.2,53c0-1,0.4-1.9,1.1-2.6l3-3c1.9-1.9,3-4.5,2.9-7.1c0,0,0-0.1,0-0.1
		c0-0.2,0-0.3,0-0.5v-0.1c0-0.2,0-0.4,0-0.5l0-0.1c0-0.1,0-0.3,0.1-0.4l0-0.2c0-0.1,0.1-0.2,0.1-0.4c0,0,0-0.1,0-0.1
		c0-0.1,0.1-0.3,0.1-0.4c0,0,0-0.1,0-0.1c0-0.1,0.1-0.2,0.2-0.3l0.1-0.1c0-0.1,0.1-0.2,0.2-0.3c0,0,0.1-0.1,0.1-0.1
		c0.1-0.1,0.2-0.2,0.2-0.3l21.8-20.9l23-23.9c0.1-0.1,0.2-0.2,0.3-0.3l0.1-0.1c0.1-0.1,0.2-0.1,0.3-0.2l0.1-0.1
		c0.1-0.1,0.2-0.1,0.3-0.1l0.1,0c0.1-0.1,0.3-0.1,0.4-0.1l0.1,0c0.1,0,0.2-0.1,0.4-0.1l0.2,0c0.1,0,0.3,0,0.4-0.1l0.1,0
		c0.2,0,0.4,0,0.6,0l0.1,0l0.2,0l0.3,0c2.6,0.1,5.2-1,7.1-2.9l3-3c1.4-1.4,3.9-1.4,5.3,0c0.7,0.7,1.1,1.6,1.1,2.6s-0.4,1.9-1.1,2.6
		l-3,3C114.7-5.4,113.7-2.8,113.8-0.2z M121.5-5.1l-1.4-1.4l0.5-0.5l1.4,1.4L121.5-5.1z M125.5,2.3l-3.6-3.6l0.6-0.6l2.7-2.7
		l0.6-0.6l3.6,3.6L125.5,2.3z"/>
	<circle class="st0" cx="115.6" cy="-14.2" r="1"/>
	<circle class="st0" cx="118.2" cy="-11.6" r="1"/>
	<circle class="st0" cx="112.9" cy="-11.6" r="1"/>
	<circle class="st0" cx="115.6" cy="-8.9" r="1"/>
	<circle class="st0" cx="52.4" cy="48.9" r="1"/>
	<circle class="st0" cx="55.1" cy="51.6" r="1"/>
	<circle class="st0" cx="49.8" cy="51.6" r="1"/>
	<circle class="st0" cx="52.4" cy="54.2" r="1"/>
</g>
</svg>
