<?xml version="1.0" encoding="utf-8"?>
<!-- Generator: Adobe Illustrator 19.0.0, SVG Export Plug-In . SVG Version: 6.00 Build 0)  -->
<svg version="1.1" id="Layer_1" xmlns="http://www.w3.org/2000/svg" xmlns:xlink="http://www.w3.org/1999/xlink" x="0px" y="0px"
	 width="100px" height="100px" viewBox="34 -30 100 100" style="enable-background:new 34 -30 100 100;" xml:space="preserve">
<style type="text/css">
	.st0{fill:#FFFFFF;}
</style>
<g>
	<circle class="st0" cx="64.3" cy="37" r="1"/>
	<circle class="st0" cx="67" cy="39.7" r="1"/>
	<circle class="st0" cx="61.7" cy="39.7" r="1"/>
	<circle class="st0" cx="64.3" cy="42.3" r="1"/>
	<circle class="st0" cx="105.6" cy="-4.2" r="1"/>
	<circle class="st0" cx="108.2" cy="-1.6" r="1"/>
	<circle class="st0" cx="102.9" cy="-1.5" r="1"/>
	<circle class="st0" cx="105.5" cy="1.1" r="1"/>
	<path class="st0" d="M109.5,10.5l5,5c0.6,0.6,1.5,0.6,2.1,0l6.1-6.1c0.6-0.6,0.6-1.5,0-2.1l-5-5c4.9-6.8,6.1-13.6,2.8-17.6
		c-0.3-0.5-0.8-0.9-1.1-1.1c-4-3.3-10.9-2.1-17.6,2.8l-5-5c-0.6-0.6-1.5-0.6-2.1,0l-6.1,6.1c-0.6,0.6-0.6,1.5,0,2.1l5,5L61.4,32
		l-0.9-0.8l0.6-0.6c0.6-0.6,0.6-1.5,0-2.1l-5.7-5.7c-0.6-0.6-1.5-0.6-2.1,0l-6.1,6.1c-0.6,0.6-0.6,1.5,0,2.1l5.7,5.7
		c0.6,0.6,1.5,0.6,2.1,0l0.6-0.6l1.2,1.2L46.2,49.7c-1.7,1.7-1.7,4.5,0,6.2l1.8,1.8c1.7,1.7,4.5,1.7,6.2,0L66.9,47l1.2,1.2l-0.6,0.6
		c-0.6,0.6-0.6,1.5,0,2.1l5.7,5.7c0.6,0.6,1.5,0.6,2.1,0l6.1-6.1c0.6-0.6,0.6-1.5,0-2.1l-5.7-5.7c-0.6-0.6-1.5-0.6-2.1,0l-0.6,0.6
		L72,42.6L109.5,10.5z M54.1,33.3l-3.6-3.6l3.9-3.9l3.6,3.6L57.4,30l-2.7,2.7L54.1,33.3z M57.9,33.8l0.5-0.5l0.9,0.9l-0.5,0.6
		L57.9,33.8z M74.6,46l3.6,3.6l-3.9,3.9l-3.6-3.6l0.6-0.6l2.7-2.7L74.6,46z M70.2,46.1l-1-1l0.6-0.5l0.9,0.9L70.2,46.1z M115.8,4.8
		l3.6,3.6l-3.9,3.9l-3.6-3.6L115.8,4.8z M95.3-7.9l-3.6-3.6l3.9-3.9l3.6,3.6L95.3-7.9z M52.2,55.6c-0.6,0.6-1.5,0.6-2,0l-1.8-1.8
		c-0.6-0.6-0.6-1.5,0-2c0,0,0.1-0.1,0.1-0.1L99.1-7.4c0.1-0.1,0.2-0.2,0.4-0.3c6.7-6.5,14.4-9.2,18.1-6.2c0.2,0.1,0.3,0.2,0.5,0.6
		c2.9,3.6,0.2,11.3-6.3,18c-0.1,0.1-0.2,0.2-0.3,0.3L52.2,55.6C52.3,55.6,52.3,55.6,52.2,55.6z"/>
</g>
</svg>
