<?xml version="1.0" encoding="utf-8"?>
<!-- Generator: Adobe Illustrator 19.0.0, SVG Export Plug-In . SVG Version: 6.00 Build 0)  -->
<svg version="1.1" id="Layer_1" xmlns="http://www.w3.org/2000/svg" xmlns:xlink="http://www.w3.org/1999/xlink" x="0px" y="0px"
	 width="140px" height="40px" viewBox="229.5 12 140 40" style="enable-background:new 229.5 12 140 40;" xml:space="preserve">
<style type="text/css">
	.st0{fill:#FFFFFF;}
</style>
<g id="XMLID_14_">
	<path id="XMLID_16_" class="st0" d="M257,20.6l1.1,0.8c0.2,0.1,0.2,0.3,0.2,0.4v4.5c0,0.1,0,0.2-0.1,0.3l-0.3,0.7
		c0,0.1-0.1,0.1-0.2,0.2l-3.1,2.4c-0.1,0.1-0.3,0.1-0.4,0.1h-1.1c-0.1,0-0.3,0-0.4-0.1l-0.8-0.6v11.9c0,0.2-0.1,0.3-0.2,0.4
		c-0.1,0.1-0.3,0.2-0.4,0.2h-1.7c-0.1,0-0.3-0.1-0.4-0.2s-0.2-0.2-0.2-0.4V21.8c0-0.2,0.1-0.3,0.2-0.4l1.1-0.8
		c0.1-0.1,0.2-0.1,0.3-0.1c0.1,0,0.1,0,0.2,0l2.6,0.9l2.6-0.9c0,0,0.1,0,0.2,0C256.7,20.5,256.8,20.5,257,20.6L257,20.6z
		 M252.2,23.8v1.9l1.6,1.3l1.6-1.3v-1.8l-1.2,0.4c-0.1,0-0.1,0-0.2,0h-0.5c0,0-0.1,0-0.2,0l-0.6-0.2c-0.2-0.1-0.3-0.1-0.4-0.1
		C252.3,23.8,252.2,23.8,252.2,23.8z"/>
	<path id="XMLID_19_" class="st0" d="M272.3,26.2l1.1,0.8c0.2,0.1,0.2,0.3,0.2,0.4v19.3c0,0.1-0.1,0.3-0.2,0.4s-0.2,0.2-0.4,0.2
		h-1.7c-0.2,0-0.3-0.1-0.4-0.2c-0.1-0.1-0.2-0.2-0.2-0.4v-8.6h-3.3v8.6c0,0.2-0.1,0.3-0.2,0.4c-0.1,0.1-0.3,0.2-0.4,0.2h-1.7
		c-0.1,0-0.3-0.1-0.4-0.2c-0.1-0.1-0.2-0.2-0.2-0.4V27.5c0-0.2,0.1-0.3,0.2-0.4l1.1-0.8c0.1-0.1,0.2-0.1,0.3-0.1c0.1,0,0.1,0,0.2,0
		l2.6,0.9l2.6-0.9c0,0,0.1,0,0.2,0C272,26.1,272.2,26.1,272.3,26.2L272.3,26.2z M270.8,29.4l-1.2,0.4c-0.1,0-0.1,0-0.2,0h-0.5
		c0,0-0.1,0-0.2,0l-1.2-0.4v5.9h3.3v-3C270.8,32.4,270.8,29.4,270.8,29.4z"/>
	<path id="XMLID_22_" class="st0" d="M288.5,20.7c0.2,0,0.3,0.1,0.4,0.2c0.1,0.1,0.1,0.3,0.1,0.4l-3,19.8c0,0.2-0.1,0.3-0.2,0.4
		c-0.1,0.1-0.2,0.1-0.4,0.1h-1.7c-0.2,0-0.3,0-0.4-0.1c-0.1-0.1-0.2-0.2-0.2-0.3L280,21.4c0-0.2,0-0.3,0.1-0.4
		c0.1-0.1,0.2-0.2,0.4-0.2l1.7-0.3h0.1c0.1,0,0.3,0,0.4,0.1s0.2,0.2,0.2,0.4l1.6,11.9l1.7-11.9c0-0.1,0.1-0.3,0.2-0.3
		c0.1-0.1,0.2-0.1,0.4-0.1l0.9,0.1C288,20.7,288.3,20.8,288.5,20.7L288.5,20.7z"/>
	<path id="XMLID_24_" class="st0" d="M297.6,41.7h-1.7c-0.2,0-0.3,0-0.4-0.1c-0.1-0.1-0.2-0.2-0.2-0.4V21.9c0-0.2,0.1-0.3,0.2-0.4
		l1.1-0.8c0.1-0.1,0.2-0.1,0.3-0.1c0,0,0.1,0,0.2,0l2.6,2l2.6-2c0,0,0.1,0,0.2,0c0.1,0,0.2,0,0.3,0.1l1.1,0.8
		c0.2,0.1,0.2,0.3,0.2,0.4v19.3c0,0.2-0.1,0.3-0.2,0.4c-0.1,0.1-0.2,0.2-0.4,0.2H302c-0.2,0-0.3,0-0.4-0.1c-0.1-0.1-0.2-0.2-0.2-0.4
		V23.9l-1.2,1.5c0,0-0.1,0-0.2,0h-0.5c-0.1,0-0.1,0-0.2,0l-1.2-1.5v17.3c0,0.2-0.1,0.3-0.2,0.4C297.9,41.7,297.7,41.8,297.6,41.7
		L297.6,41.7z"/>
	<path id="XMLID_26_" class="st0" d="M312.3,41.6l-1.2-0.8c-0.2-0.1-0.3-0.3-0.3-0.5V21.9c0-0.2,0.1-0.3,0.2-0.4l1.1-0.8
		c0.1-0.1,0.2-0.1,0.3-0.1c0.1,0,0.1,0,0.2,0l2.6,0.9l2.6-0.9c0,0,0.1,0,0.2,0c0.1,0,0.2,0,0.3,0.1c0.1,0.1,0.2,0.2,0.2,0.3l0.5,1.6
		c0,0.1,0,0.3,0,0.4c-0.1,0.2-0.2,0.3-0.3,0.3l-3.1,1c-0.1,0-0.1,0-0.2,0h-0.5c0,0-0.1,0-0.2,0l-1.2-0.4v5.9h3.1
		c0.1,0,0.3,0.1,0.4,0.2c0.1,0.1,0.2,0.3,0.2,0.4v1.7c0,0.1-0.1,0.3-0.2,0.4c-0.1,0.1-0.2,0.2-0.4,0.2h-3.1v5.7l1.1-0.5
		c0.1,0,0.1-0.1,0.2-0.1h0.7c0.1,0,0.2,0,0.2,0.1l3.1,1.3c0.1,0.1,0.2,0.2,0.3,0.3c0.1,0.2,0.1,0.3,0,0.4l-0.7,1.5
		c-0.1,0.2-0.2,0.3-0.3,0.3c-0.1,0-0.2,0-0.2,0c-0.1,0-0.1,0-0.3,0l-2.5-1.1l-2.5,1.1c-0.1,0-0.2,0-0.2,0
		C312.5,41.7,312.3,41.7,312.3,41.6L312.3,41.6L312.3,41.6z"/>
	<path id="XMLID_28_" class="st0" d="M334.3,20.5c0.2,0,0.3,0.1,0.4,0.2c0.1,0.1,0.1,0.2,0.1,0.4v20.1c0,0.1-0.1,0.3-0.2,0.4
		c-0.1,0.1-0.3,0.2-0.4,0.2h-1.7c-0.2,0-0.3-0.1-0.4-0.2c-0.1-0.1-0.2-0.2-0.2-0.4V25l-3.3-1.2v17.3c0,0.2-0.1,0.3-0.2,0.4
		c-0.1,0.1-0.3,0.2-0.4,0.2h-1.7c-0.1,0-0.3-0.1-0.4-0.2s-0.2-0.2-0.2-0.4V21.8c0-0.2,0.1-0.3,0.3-0.4l1.1-0.8
		c0.1-0.1,0.2-0.1,0.3-0.1c0,0,0.1,0,0.2,0L332,22v-1c0-0.2,0-0.3,0.1-0.4c0.1-0.1,0.2-0.2,0.4-0.2h0.9H334.3z"/>
	<path id="XMLID_30_" class="st0" d="M344.9,41.7c-0.2,0-0.3-0.1-0.4-0.2c-0.1-0.1-0.2-0.2-0.2-0.4V23.9l-2.1-0.7
		c-0.2-0.1-0.3-0.2-0.3-0.3c-0.1-0.1-0.1-0.3,0-0.4l0.5-1.6c0-0.1,0.1-0.2,0.2-0.3c0.1-0.1,0.2-0.1,0.3-0.1c0.1,0,0.1,0,0.2,0
		l2.6,0.8l2.6-0.9c0,0,0.1,0,0.2,0s0.2,0,0.3,0.1c0.1,0.1,0.2,0.2,0.2,0.3l0.5,1.6c0,0.2,0,0.3,0,0.4s-0.2,0.2-0.3,0.3l-2.1,0.7
		v17.2c0,0.1-0.1,0.3-0.2,0.4s-0.3,0.2-0.4,0.2h-0.8L344.9,41.7z"/>
</g>
<g id="XMLID_13_">
	<path id="XMLID_39_" class="st0" d="M273.1,22.5l-0.5-1.6c0-0.1-0.1-0.2-0.2-0.3c-0.1,0-0.1-0.1-0.2-0.1l0,0c-0.1,0-0.1,0-0.2,0
		l0,0l0,0c-0.1,0-0.1,0-0.2,0l-2.6,0.9l-2.6-0.9c0,0-0.1,0-0.2,0c-0.1,0-0.2,0-0.3,0.1c-0.1,0.1-0.2,0.1-0.2,0.3l-0.5,1.6
		c0,0.1,0,0.3,0,0.4c0.1,0.1,0.2,0.2,0.3,0.3l3.1,1.1c0.1,0,0.1,0,0.2,0h0.5c0,0,0.1,0,0.2,0l1-0.3l2-0.7c0.1-0.1,0.2-0.2,0.3-0.3
		C273.1,22.7,273.1,22.6,273.1,22.5z"/>
</g>
<g id="XMLID_11_">
	<g id="XMLID_12_">
		<path id="XMLID_37_" class="st0" d="M349.2,47.3h-68.8c-0.3,0-0.5-0.2-0.5-0.5v-1.9c0-0.3,0.2-0.5,0.5-0.5h68.8
			c0.3,0,0.5,0.2,0.5,0.5v1.9C349.6,47.1,349.4,47.3,349.2,47.3z"/>
	</g>
</g>
<g id="XMLID_6_">
	<g id="XMLID_10_">
		<path id="XMLID_34_" class="st0" d="M257.8,47.3h-8c-0.3,0-0.5-0.2-0.5-0.5v-1.9c0-0.3,0.2-0.5,0.5-0.5h8c0.3,0,0.5,0.2,0.5,0.5
			v1.9C258.3,47.1,258.1,47.3,257.8,47.3z"/>
	</g>
</g>
</svg>
